{
.appVersion = "3186";
classes = (
{
automatic = 1;

glyphs = (
{
color = 4;
glyphname = A;
layers = (
{
anchors = (
{
name = bottom;
position = "{542, 0}";
},
{
name = ogonek;
position = "{1023, 9}";
},
{
name = top;
position = "{556, 1284}";
}
);
background = {
anchors = (
{
name = bottom;
position = "{542, 30}";
},
{
name = ogonek;
position = "{979, 9}";
},
{
name = top;
position = "{542, 1284}";
},
{
name = top_case;
position = "{556, 1284}";
}
);
paths = (
{
closed = 1;
nodes = (
"190 -13 LINE",
"310 367 LINE",
"251 320 LINE",
"844 320 LINE",
"786 367 LINE",
"902 -13 LINE",
"1023 9 LINE",
"644 1284 LINE",
"457 1284 LINE",
"60 9 LINE"
);
},
{
closed = 1;
nodes = (
"559 1217 LINE",
"533 1217 LINE",
"778 377 LINE",
"810 421 LINE",
"274 421 LINE",
"306 377 LINE"
);
}
);
};
guideLines = (
{
angle = 190.3048;
position = "{968, -2}";
},
{
angle = -9.6052;
position = "{130, -2}";
}
);
layerId = "1D628CB9-BBF5-410A-9D74-9E6094BFE839";
paths = (
{
closed = 1;
nodes = (
"190 -13 LINE",
"310 367 LINE",
"251 320 LINE",
"844 320 LINE",
"786 367 LINE",
"902 -13 LINE",
"1023 9 LINE",
"644 1284 LINE",
"457 1284 LINE",
"60 9 LINE"
);
},
{
closed = 1;
nodes = (
"559 1217 LINE",
"533 1217 LINE",
"778 377 LINE",
"810 421 LINE",
"274 421 LINE",
"306 377 LINE"
);
}
);
width = 1083;
},
{
anchors = (
{
name = bottom;
position = "{605, 0}";
},
{
name = ogonek;
position = "{1194, 25}";
},
{
name = top;
position = "{608, 1284}";
}
);
background = {
anchors = (
{
name = bottom;
position = "{605, -50}";
},
{
name = ogonek;
position = "{1066, 30}";
},
{
name = top;
position = "{604, 1336}";
},
{
name = top_case;
position = "{613, 1336}";
}
);
paths = (
{
closed = 1;
nodes = (
"321 -25 LINE",
"419 335 LINE",
"275 219 LINE",
"928 219 LINE",
"785 344 LINE",
"886 -25 LINE",
"1188 25 LINE",
"799 1284 LINE",
"411 1284 LINE",
"19 25 LINE"
);
},
{
closed = 1;
nodes = (
"632 1047 LINE",
"577 1047 LINE",
"775 377 LINE",
"879 489 LINE",
"323 489 LINE",
"432 377 LINE"
);
}
);
};
guideLines = (
{
angle = 170.5377;
position = "{272, -17}";
},
{
position = "{-3, 25}";
},
{
position = "{-6, -30}";
},
{
angle = 9.4623;
position = "{936, -17}";
},
{
angle = 73.3155;
position = "{472, 512}";
},
{
angle = 106.5863;
position = "{737, 512}";
}
);
layerId = "D42B5605-DB46-4B3B-8EA0-4CE7066523CE";
paths = (
{
closed = 1;
nodes = (
"321 -25 LINE",
"419 335 LINE",
"275 219 LINE",
"928 219 LINE",
"785 344 LINE",
"886 -25 LINE",
"1194 25 LINE",
"805 1284 LINE",
"411 1284 LINE",
"19 25 LINE"
);
},
{
closed = 1;
nodes = (
"632 1047 LINE",
"577 1047 LINE",
"775 377 LINE",
"879 489 LINE",
"323 489 LINE",
"432 377 LINE"
);
}
);
width = 1207;
}
);
leftKerningGroup = A;
rightKerningGroup = A;
unicode = 0041;
},
{
color = 4;
glyphname = AE;
layers = (
{
anchors = (
{
name = bottom;
position = "{784, 0}";
},
{
name = top;
position = "{784, 1284}";
}
);
background = {
anchors = (
{
name = bottom;
position = "{720, 0}";
},
{
name = top_case;
position = "{986, 1284}";
}
);
paths = (
{
closed = 1;
nodes = (
"1409 0 LINE",
"1393 106 LINE",
"803 106 LINE",
"848 56 LINE",
"848 671 LINE",
"803 620 LINE",
"1349 620 LINE",
"1349 726 LINE",
"803 726 LINE",
"848 677 LINE",
"848 1228 LINE",
"803 1178 LINE",
"1383 1178 LINE",
"1405 1284 LINE",
"720 1284 LINE",
"720 0 LINE"
);
}
);
};
guideLines = (
{
angle = -9.6052;
position = "{75, -2}";
},
{
position = "{158, 9}";
},
{
angle = 244.0891;
position = "{429, 585}";
}
);
layerId = "1D628CB9-BBF5-410A-9D74-9E6094BFE839";
paths = (
{
closed = 1;
nodes = (
"138 -14 LINE",
"324 369 LINE",
"258 320 LINE",
"720 320 LINE",
"720 0 LINE",
"1329 0 LINE",
"1313 106 LINE",
"848 106 LINE",
"848 621 LINE",
"1269 621 LINE",
"1269 727 LINE",
"848 727 LINE",
"848 1178 LINE",
"1303 1178 LINE",
"1325 1284 LINE",
"647 1284 LINE",
"9 8 LINE"
);
},
{
closed = 1;
nodes = (
"720 1184 LINE",
"720 421 LINE",
"302 421 LINE",
"329 379 LINE"
);
}
);
width = 1387;
},
{
anchors = (
{
name = bottom;
position = "{1000, 0}";
},
{
name = top;
position = "{1059, 1284}";
}
);
background = {
paths = (
{
closed = 1;
nodes = (
"1670 0 LINE",
"1647 280 LINE",
"1014 280 LINE",
"1169 56 LINE",
"1169 638 LINE",
"1014 530 LINE",
"1610 530 LINE",
"1610 810 LINE",
"1014 810 LINE",
"1169 684 LINE",
"1169 1228 LINE",
"1014 1004 LINE",
"1631 1004 LINE",
"1666 1284 LINE",
"831 1284 LINE",
"831 0 LINE"
);
}
);
};
guideLines = (
{
angle = 66.8122;
position = "{362, 642}";
},
{
angle = 66.8122;
position = "{664, 653}";
},
{
position = "{-255, 489}";
}
);
layerId = "D42B5605-DB46-4B3B-8EA0-4CE7066523CE";
paths = (
{
closed = 1;
nodes = (
"372 -28 LINE",
"496 260 LINE",
"429 219 LINE",
"831 219 LINE",
"831 0 LINE",
"1610 0 LINE",
"1587 280 LINE",
"1169 280 LINE",
"1169 530 LINE",
"1550 530 LINE",
"1550 810 LINE",
"1169 810 LINE",
"1169 1004 LINE",
"1571 1004 LINE",
"1606 1284 LINE",
"587 1284 LINE",
"16 20 LINE"
);
},
{
closed = 1;
nodes = (
"831 1043 LINE",
"831 489 LINE",
"545 489 LINE",
"576 448 LINE"
);
}
);
width = 1671;
}
);
leftKerningGroup = AE;
rightKerningGroup = E;
rightMetricsKey = "=E";
unicode = 00C6;
},
{
color = 4;
glyphname = B;
layers = (
{
anchors = (
{
name = bottom;
position = "{495, 0}";
},
{
name = top;
position = "{495, 1284}";
}
);
background = {
anchors = (
{
name = bottom;
position = "{495, 0}";
},
{
name = top_case;
position = "{495, 1284}";
}
);
paths = (
{
closed = 1;
nodes = (
"478 0 LINE SMOOTH",
"791 0 OFFCURVE",
"960 65 OFFCURVE",
"960 377 CURVE SMOOTH",
"960 556 OFFCURVE",
"863 650 OFFCURVE",
"720 683 CURVE",
"863 718 OFFCURVE",
"914 810 OFFCURVE",
"914 971 CURVE SMOOTH",
"914 1217 OFFCURVE",
"775 1284 OFFCURVE",
"481 1284 CURVE SMOOTH",
"160 1284 LINE",
"160 0 LINE"
);
},
{
closed = 1;
nodes = (
"288 665 LINE",
"233 626 LINE",
"522 626 LINE SMOOTH",
"723 626 OFFCURVE",
"832 555 OFFCURVE",
"832 375 CURVE SMOOTH",
"832 139 OFFCURVE",
"705 101 OFFCURVE",
"485 101 CURVE SMOOTH",
"233 101 LINE",
"288 46 LINE"
);
},
{
closed = 1;
nodes = (
"288 1238 LINE",
"233 1183 LINE",
"505 1183 LINE SMOOTH",
"709 1183 OFFCURVE",
"786 1127 OFFCURVE",
"786 971 CURVE SMOOTH",
"786 781 OFFCURVE",
"711 727 OFFCURVE",
"521 727 CURVE SMOOTH",
"233 727 LINE",
"288 687 LINE"
);
}
);
};
layerId = "1D628CB9-BBF5-410A-9D74-9E6094BFE839";
paths = (
{
closed = 1;
nodes = (
"478 0 LINE SMOOTH",
"833 0 OFFCURVE",
"960 97 OFFCURVE",
"960 367 CURVE SMOOTH",
"960 539 OFFCURVE",
"879 646 OFFCURVE",
"720 683 CURVE",
"858 717 OFFCURVE",
"914 803 OFFCURVE",
"914 981 CURVE SMOOTH",
"914 1202 OFFCURVE",
"797 1284 OFFCURVE",
"481 1284 CURVE SMOOTH",
"160 1284 LINE",
"160 0 LINE"
);
},
{
closed = 1;
nodes = (
"288 665 LINE",
"233 626 LINE",
"522 626 LINE SMOOTH",
"734 626 OFFCURVE",
"832 546 OFFCURVE",
"832 375 CURVE SMOOTH",
"832 160 OFFCURVE",
"744 101 OFFCURVE",
"485 101 CURVE SMOOTH",
"233 101 LINE",
"288 46 LINE"
);
},
{
closed = 1;
nodes = (
"288 1238 LINE",
"233 1183 LINE",
"505 1183 LINE SMOOTH",
"712 1183 OFFCURVE",
"786 1125 OFFCURVE",
"786 961 CURVE SMOOTH",
"786 787 OFFCURVE",
"718 727 OFFCURVE",
"521 727 CURVE SMOOTH",
"233 727 LINE",
"288 687 LINE"
);
}
);
width = 1044;
},
{
anchors = (
{
name = bottom;
position = "{565, 0}";
},
{
name = top;
position = "{555, 1284}";
}
);
background = {
anchors = (
{
name = bottom;
position = "{565, 0}";
},
{
name = top_case;
position = "{555, 1334}";
}
);
paths = (
{
closed = 1;
nodes = (
"568 0 LINE SMOOTH",
"902 0 OFFCURVE",
"1090 91 OFFCURVE",
"1090 357 CURVE SMOOTH",
"1090 536 OFFCURVE",
"993 621 OFFCURVE",
"850 668 CURVE",
"993 720 OFFCURVE",
"1043 807 OFFCURVE",
"1043 955 CURVE SMOOTH",
"1043 1201 OFFCURVE",
"868 1284 OFFCURVE",
"539 1284 CURVE SMOOTH",
"130 1284 LINE",
"130 0 LINE"
);
},
{
closed = 1;
nodes = (
"458 648 LINE",
"313 532 LINE",
"615 532 LINE SMOOTH",
"707 532 OFFCURVE",
"762 494 OFFCURVE",
"762 391 CURVE SMOOTH",
"762 289 OFFCURVE",
"688 260 OFFCURVE",
"575 260 CURVE SMOOTH",
"313 260 LINE",
"458 46 LINE"
);
},
{
closed = 1;
nodes = (
"458 1238 LINE",
"313 1024 LINE",
"565 1024 LINE SMOOTH",
"654 1024 OFFCURVE",
"715 995 OFFCURVE",
"715 908 CURVE SMOOTH",
"715 821 OFFCURVE",
"664 792 OFFCURVE",
"595 792 CURVE SMOOTH",
"313 792 LINE",
"458 694 LINE"
);
}
);
};
layerId = "D42B5605-DB46-4B3B-8EA0-4CE7066523CE";
paths = (
{
closed = 1;
nodes = (
"573 0 LINE SMOOTH",
"934 0 OFFCURVE",
"1095 110 OFFCURVE",
"1095 357 CURVE SMOOTH",
"1095 516 OFFCURVE",
"1019 614 OFFCURVE",
"855 668 CURVE",
"992 718 OFFCURVE",
"1048 801 OFFCURVE",
"1048 955 CURVE SMOOTH",
"1048 1185 OFFCURVE",
"897 1284 OFFCURVE",
"544 1284 CURVE SMOOTH",
"130 1284 LINE",
"130 0 LINE"
);
},
{
closed = 1;
nodes = (
"468 648 LINE",
"313 532 LINE",
"615 532 LINE SMOOTH",
"710 532 OFFCURVE",
"762 487 OFFCURVE",
"762 391 CURVE SMOOTH",
"762 300 OFFCURVE",
"710 260 OFFCURVE",
"615 260 CURVE SMOOTH",
"313 260 LINE",
"468 46 LINE"
);
},
{
closed = 1;
nodes = (
"468 1238 LINE",
"313 1024 LINE",
"590 1024 LINE SMOOTH",
"671 1024 OFFCURVE",
"715 986 OFFCURVE",
"715 908 CURVE SMOOTH",
"715 831 OFFCURVE",
"671 792 OFFCURVE",
"590 792 CURVE SMOOTH",
"313 792 LINE",
"468 694 LINE"
);
}
);
width = 1150;
}
);
leftKerningGroup = StraightUPPER;
leftMetricsKey = "=H";
rightKerningGroup = B;
unicode = 0042;
},
{
color = 4;
glyphname = C;
layers = (
{
anchors = (
{
name = bottom;
position = "{509, 0}";
},
{
name = cedilla;
position = "{580, 0}";
},
{
name = top;
position = "{594, 1284}";
}
);
background = {
paths = (
{
closed = 1;
nodes = (
"929 -15 OFFCURVE",
"1016 236 OFFCURVE",
"1016 652 CURVE SMOOTH",
"1016 1069 OFFCURVE",
"917 1303 OFFCURVE",
"568 1303 CURVE SMOOTH",
"219 1303 OFFCURVE",
"120 1069 OFFCURVE",
"120 652 CURVE SMOOTH",
"120 236 OFFCURVE",
"207 -15 OFFCURVE",
"568 -15 CURVE SMOOTH"
);
},
{
closed = 1;
nodes = (
"318 91 OFFCURVE",
"248 268 OFFCURVE",
"248 649 CURVE SMOOTH",
"248 1034 OFFCURVE",
"321 1197 OFFCURVE",
"568 1197 CURVE SMOOTH",
"815 1197 OFFCURVE",
"888 1034 OFFCURVE",
"888 649 CURVE SMOOTH",
"888 268 OFFCURVE",
"818 91 OFFCURVE",
"568 91 CURVE SMOOTH"
);
}
);
};
guideLines = (
{
angle = 270;
position = "{577, 639}";
},
{
angle = 270;
position = "{898, 639}";
}
);
layerId = "1D628CB9-BBF5-410A-9D74-9E6094BFE839";
paths = (
{
closed = 1;
nodes = (
"704 -10 OFFCURVE",
"808 8 OFFCURVE",
"925 64 CURVE",
"885 161 LINE",
"782 112 OFFCURVE",
"695 96 OFFCURVE",
"608 96 CURVE SMOOTH",
"393 96 OFFCURVE",
"248 242 OFFCURVE",
"248 638 CURVE SMOOTH",
"248 1092 OFFCURVE",
"373 1195 OFFCURVE",
"599 1195 CURVE SMOOTH",
"681 1195 OFFCURVE",
"758 1175 OFFCURVE",
"812 1146 CURVE",
"789 1202 LINE",
"789 949 LINE",
"898 959 LINE",
"898 1226 LINE",
"788 1280 OFFCURVE",
"687 1301 OFFCURVE",
"588 1301 CURVE SMOOTH",
"272 1301 OFFCURVE",
"120 1114 OFFCURVE",
"120 641 CURVE SMOOTH",
"120 179 OFFCURVE",
"321 -10 OFFCURVE",
"600 -10 CURVE SMOOTH"
);
}
);
width = 939;
},
{
anchors = (
{
name = bottom;
position = "{636, 0}";
},
{
name = cedilla;
position = "{617, 0}";
},
{
name = top;
position = "{631, 1284}";
}
);
background = {
anchors = (
{
name = bottom;
position = "{636, 0}";
},
{
name = cedilla;
position = "{617, -20}";
},
{
name = top;
position = "{715, 1334}";
},
{
name = top_case;
position = "{631, 1334}";
}
);
paths = (
{
closed = 1;
nodes = (
"961 -20 OFFCURVE",
"1143 147 OFFCURVE",
"1143 648 CURVE SMOOTH",
"1143 1150 OFFCURVE",
"949 1311 OFFCURVE",
"610 1311 CURVE SMOOTH",
"271 1311 OFFCURVE",
"77 1150 OFFCURVE",
"77 648 CURVE SMOOTH",
"77 147 OFFCURVE",
"259 -20 OFFCURVE",
"610 -20 CURVE SMOOTH"
);
},
{
closed = 1;
nodes = (
"460 267 OFFCURVE",
"405 351 OFFCURVE",
"405 645 CURVE SMOOTH",
"405 944 OFFCURVE",
"463 1024 OFFCURVE",
"610 1024 CURVE SMOOTH",
"757 1024 OFFCURVE",
"815 944 OFFCURVE",
"815 645 CURVE SMOOTH",
"815 351 OFFCURVE",
"760 267 OFFCURVE",
"610 267 CURVE SMOOTH"
);
}
);
};
guideLines = (
{
angle = 270;
position = "{630, 639}";
},
{
angle = 270;
position = "{1075, 639}";
}
);
layerId = "D42B5605-DB46-4B3B-8EA0-4CE7066523CE";
paths = (
{
closed = 1;
nodes = (
"770 -22 OFFCURVE",
"913 16 OFFCURVE",
"1035 101 CURVE",
"924 355 LINE",
"818 284 OFFCURVE",
"728 267 OFFCURVE",
"648 267 CURVE SMOOTH",
"478 267 OFFCURVE",
"415 351 OFFCURVE",
"415 637 CURVE SMOOTH",
"415 941 OFFCURVE",
"481 1021 OFFCURVE",
"623 1021 CURVE SMOOTH",
"719 1021 OFFCURVE",
"767 992 OFFCURVE",
"825 954 CURVE",
"712 1212 LINE",
"712 796 LINE",
"998 824 LINE",
"998 1206 LINE",
"842 1288 OFFCURVE",
"738 1308 OFFCURVE",
"599 1308 CURVE SMOOTH",
"277 1308 OFFCURVE",
"77 1156 OFFCURVE",
"77 640 CURVE SMOOTH",
"77 133 OFFCURVE",
"310 -22 OFFCURVE",
"603 -22 CURVE SMOOTH"
);
}
);
width = 1105;
}
);
leftKerningGroup = RoundUPPER;
leftMetricsKey = "=O";
rightKerningGroup = C;
unicode = 0043;
},
{
color = 4;
glyphname = D;
layers = (
{
anchors = (
{
name = bottom;
position = "{541, 0}";
},
{
name = center;
position = "{561, 642}";
},
{
name = top;
position = "{521, 1284}";
}
);
background = {
anchors = (
{
name = bottom;
position = "{541, 0}";
},
{
name = center;
position = "{561, 642}";
},
{
name = top_case;
position = "{521, 1284}";
}
);
paths = (
{
closed = 1;
nodes = (
"444 0 LINE SMOOTH",
"916 0 OFFCURVE",
"992 229 OFFCURVE",
"992 636 CURVE SMOOTH",
"992 1101 OFFCURVE",
"887 1284 OFFCURVE",
"433 1284 CURVE SMOOTH",
"160 1284 LINE",
"160 0 LINE"
);
},
{
closed = 1;
nodes = (
"288 1228 LINE",
"243 1183 LINE",
"433 1183 LINE SMOOTH",
"808 1183 OFFCURVE",
"864 1030 OFFCURVE",
"864 636 CURVE SMOOTH",
"864 266 OFFCURVE",
"828 101 OFFCURVE",
"444 101 CURVE SMOOTH",
"243 101 LINE",
"288 56 LINE"
);
}
);
};
layerId = "1D628CB9-BBF5-410A-9D74-9E6094BFE839";
paths = (
{
closed = 1;
nodes = (
"444 0 LINE SMOOTH",
"916 0 OFFCURVE",
"992 229 OFFCURVE",
"992 636 CURVE SMOOTH",
"992 1101 OFFCURVE",
"887 1284 OFFCURVE",
"433 1284 CURVE SMOOTH",
"160 1284 LINE",
"160 0 LINE"
);
},
{
closed = 1;
nodes = (
"288 1228 LINE",
"243 1178 LINE",
"433 1178 LINE SMOOTH",
"808 1178 OFFCURVE",
"864 1030 OFFCURVE",
"864 636 CURVE SMOOTH",
"864 266 OFFCURVE",
"828 106 OFFCURVE",
"444 106 CURVE SMOOTH",
"243 106 LINE",
"288 56 LINE"
);
}
);
width = 1112;
},
{
anchors = (
{
name = bottom;
position = "{626, 0}";
},
{
name = center;
position = "{611, 642}";
},
{
name = top;
position = "{626, 1284}";
}
);
background = {
anchors = (
{
name = bottom;
position = "{581, -50}";
},
{
name = center;
position = "{611, 642}";
},
{
name = top_case;
position = "{551, 1334}";
}
);
paths = (
{
closed = 1;
nodes = (
"514 0 LINE SMOOTH",
"977 0 OFFCURVE",
"1122 191 OFFCURVE",
"1122 646 CURVE SMOOTH",
"1122 1101 OFFCURVE",
"977 1284 OFFCURVE",
"503 1284 CURVE SMOOTH",
"130 1284 LINE",
"130 0 LINE"
);
},
{
closed = 1;
nodes = (
"458 1228 LINE",
"213 999 LINE",
"503 999 LINE SMOOTH",
"744 999 OFFCURVE",
"794 933 OFFCURVE",
"794 646 CURVE SMOOTH",
"794 359 OFFCURVE",
"745 285 OFFCURVE",
"514 285 CURVE SMOOTH",
"213 285 LINE",
"458 56 LINE"
);
}
);
};
layerId = "D42B5605-DB46-4B3B-8EA0-4CE7066523CE";
paths = (
{
closed = 1;
nodes = (
"574 0 LINE SMOOTH",
"937 0 OFFCURVE",
"1122 191 OFFCURVE",
"1122 646 CURVE SMOOTH",
"1122 1101 OFFCURVE",
"937 1284 OFFCURVE",
"563 1284 CURVE SMOOTH",
"130 1284 LINE",
"130 0 LINE"
);
},
{
closed = 1;
nodes = (
"468 1228 LINE",
"213 1004 LINE",
"553 1004 LINE SMOOTH",
"704 1004 OFFCURVE",
"784 913 OFFCURVE",
"784 646 CURVE SMOOTH",
"784 379 OFFCURVE",
"705 280 OFFCURVE",
"564 280 CURVE SMOOTH",
"213 280 LINE",
"468 56 LINE"
);
}
);
width = 1199;
}
);
leftKerningGroup = StraightUPPER;
leftMetricsKey = "=H";
rightKerningGroup = RoundUPPER;
rightMetricsKey = "=O";
unicode = 0044;
},
{
color = 4;
glyphname = Eth;
layers = (
{
background = {
paths = (
{
closed = 1;
nodes = (
"454 0 LINE SMOOTH",
"926 0 OFFCURVE",
"1002 229 OFFCURVE",
"1002 636 CURVE SMOOTH",
"1002 1101 OFFCURVE",
"897 1284 OFFCURVE",
"443 1284 CURVE SMOOTH",
"170 1284 LINE",
"170 0 LINE"
);
},
{
closed = 1;
nodes = (
"298 1228 LINE",
"253 1178 LINE",
"443 1178 LINE SMOOTH",
"818 1178 OFFCURVE",
"874 1030 OFFCURVE",
"874 636 CURVE SMOOTH",
"874 266 OFFCURVE",
"838 106 OFFCURVE",
"454 106 CURVE SMOOTH",
"253 106 LINE",
"298 56 LINE"
);
}
);
};
layerId = "1D628CB9-BBF5-410A-9D74-9E6094BFE839";
paths = (
{
closed = 1;
nodes = (
"454 0 LINE SMOOTH",
"926 0 OFFCURVE",
"1002 229 OFFCURVE",
"1002 636 CURVE SMOOTH",
"1002 1101 OFFCURVE",
"897 1284 OFFCURVE",
"443 1284 CURVE SMOOTH",
"170 1284 LINE",
"170 712 LINE",
"21 712 LINE",
"21 609 LINE",
"170 609 LINE",
"170 0 LINE"
);
},
{
closed = 1;
nodes = (
"298 609 LINE",
"501 609 LINE",
"501 712 LINE",
"298 712 LINE",
"298 1229 LINE",
"253 1184 LINE",
"443 1184 LINE SMOOTH",
"818 1184 OFFCURVE",
"874 1030 OFFCURVE",
"874 636 CURVE SMOOTH",
"874 269 OFFCURVE",
"838 104 OFFCURVE",
"454 104 CURVE SMOOTH",
"253 104 LINE",
"298 59 LINE"
);
}
);
width = 1122;
},
{
background = {
paths = (
{
closed = 1;
nodes = (
"584 0 LINE SMOOTH",
"947 0 OFFCURVE",
"1132 191 OFFCURVE",
"1132 646 CURVE SMOOTH",
"1132 1101 OFFCURVE",
"947 1284 OFFCURVE",
"573 1284 CURVE SMOOTH",
"140 1284 LINE",
"140 0 LINE"
);
},
{
closed = 1;
nodes = (
"478 1228 LINE",
"223 1004 LINE",
"563 1004 LINE SMOOTH",
"714 1004 OFFCURVE",
"794 913 OFFCURVE",
"794 646 CURVE SMOOTH",
"794 379 OFFCURVE",
"715 280 OFFCURVE",
"574 280 CURVE SMOOTH",
"223 280 LINE",
"478 56 LINE"
);
}
);
};
layerId = "D42B5605-DB46-4B3B-8EA0-4CE7066523CE";
paths = (
{
closed = 1;
nodes = (
"584 0 LINE SMOOTH",
"947 0 OFFCURVE",
"1132 191 OFFCURVE",
"1132 646 CURVE SMOOTH",
"1132 1101 OFFCURVE",
"947 1284 OFFCURVE",
"573 1284 CURVE SMOOTH",
"140 1284 LINE",
"140 742 LINE",
"9 742 LINE",
"9 577 LINE",
"140 577 LINE",
"140 0 LINE"
);
},
{
closed = 1;
nodes = (
"478 577 LINE",
"668 577 LINE",
"668 742 LINE",
"478 742 LINE",
"478 1228 LINE",
"223 1004 LINE",
"563 1004 LINE SMOOTH",
"714 1004 OFFCURVE",
"794 913 OFFCURVE",
"794 646 CURVE SMOOTH",
"794 379 OFFCURVE",
"715 280 OFFCURVE",
"574 280 CURVE SMOOTH",
"223 280 LINE",
"478 56 LINE"
);
}
);
width = 1209;
}
);
leftKerningGroup = ethcroat;
rightKerningGroup = RoundUPPER;
rightMetricsKey = O;
unicode = 00D0;
},
{
color = 4;
glyphname = E;
layers = (
{
anchors = (
{
name = bottom;
position = "{505, 0}";
},
{
name = cedilla;
position = "{487, 0}";
},
{
name = ogonek;
position = "{799, 0}";
},
{
name = top;
position = "{513, 1284}";
}
);
background = {
anchors = (
{
name = bottom;
position = "{505, 0}";
},
{
name = cedilla;
position = "{487, 0}";
},
{
name = ogonek;
position = "{799, 0}";
},
{
name = top;
position = "{514, 1284}";
},
{
name = top_case;
position = "{513, 1284}";
}
);
paths = (
{
closed = 1;
nodes = (
"849 0 LINE",
"833 101 LINE",
"243 101 LINE",
"288 56 LINE",
"288 671 LINE",
"243 622 LINE",
"789 622 LINE",
"789 723 LINE",
"243 723 LINE",
"288 677 LINE",
"288 1228 LINE",
"243 1183 LINE",
"823 1183 LINE",
"845 1284 LINE",
"160 1284 LINE",
"160 0 LINE"
);
}
);
};
layerId = "1D628CB9-BBF5-410A-9D74-9E6094BFE839";
paths = (
{
closed = 1;
nodes = (
"849 0 LINE",
"833 106 LINE",
"243 106 LINE",
"288 56 LINE",
"288 671 LINE",
"243 620 LINE",
"789 620 LINE",
"789 726 LINE",
"243 726 LINE",
"288 677 LINE",
"288 1228 LINE",
"243 1178 LINE",
"823 1178 LINE",
"845 1284 LINE",
"160 1284 LINE",
"160 0 LINE"
);
}
);
width = 907;
},
{
anchors = (
{
name = bottom;
position = "{600, 0}";
},
{
name = cedilla;
position = "{544, 0}";
},
{
name = ogonek;
position = "{909, 0}";
},
{
name = top;
position = "{554, 1284}";
}
);
background = {
anchors = (
{
name = bottom;
position = "{564, -50}";
},
{
name = cedilla;
position = "{544, 0}";
},
{
name = ogonek;
position = "{847, 5}";
},
{
name = top;
position = "{554, 1337}";
},
{
name = top_case;
position = "{554, 1336}";
}
);
paths = (
{
closed = 1;
nodes = (
"969 0 LINE",
"946 295 LINE",
"313 295 LINE",
"458 56 LINE",
"458 638 LINE",
"313 521 LINE",
"909 521 LINE",
"909 796 LINE",
"313 796 LINE",
"458 684 LINE",
"458 1228 LINE",
"313 989 LINE",
"930 989 LINE",
"965 1284 LINE",
"130 1284 LINE",
"130 0 LINE"
);
}
);
};
guideLines = (
{
angle = 263.2847;
position = "{971, 1319}";
},
{
angle = 270;
position = "{554, 0}";
},
{
position = "{1390, -148}";
}
);
layerId = "D42B5605-DB46-4B3B-8EA0-4CE7066523CE";
paths = (
{
closed = 1;
nodes = (
"969 0 LINE",
"946 280 LINE",
"313 280 LINE",
"468 56 LINE",
"468 638 LINE",
"313 530 LINE",
"909 530 LINE",
"909 810 LINE",
"313 810 LINE",
"468 684 LINE",
"468 1228 LINE",
"313 1004 LINE",
"930 1004 LINE",
"965 1284 LINE",
"130 1284 LINE",
"130 0 LINE"
);
}
);
width = 1030;
}
);
leftKerningGroup = StraightUPPER;
leftMetricsKey = "=H";
rightKerningGroup = E;
unicode = 0045;
},
{
color = 4;
glyphname = F;
layers = (
{
anchors = (
{
name = bottom;
position = "{510, 0}";
},
{
name = top;
position = "{510, 1284}";
}
);
background = {
anchors = (
{
name = bottom;
position = "{430, 0}";
},
{
name = top_case;
position = "{510, 1284}";
}
);
paths = (
{
closed = 1;
nodes = (
"288 0 LINE",
"288 648 LINE",
"243 603 LINE",
"744 603 LINE",
"744 699 LINE",
"243 699 LINE",
"288 654 LINE",
"288 1228 LINE",
"243 1183 LINE",
"808 1183 LINE",
"830 1284 LINE",
"160 1284 LINE",
"160 0 LINE"
);
}
);
};
guideLines = (
{
angle = 77.7751;
position = "{829, 1172}";
}
);
layerId = "1D628CB9-BBF5-410A-9D74-9E6094BFE839";
paths = (
{
closed = 1;
nodes = (
"288 0 LINE",
"288 629 LINE",
"243 579 LINE",
"744 579 LINE",
"744 685 LINE",
"243 685 LINE",
"288 635 LINE",
"288 1228 LINE",
"243 1178 LINE",
"808 1178 LINE",
"830 1284 LINE",
"160 1284 LINE",
"160 0 LINE"
);
}
);
width = 857;
},
{
anchors = (
{
name = bottom;
position = "{578, 0}";
},
{
name = top;
position = "{578, 1284}";
}
);
background = {
anchors = (
{
name = bottom;
position = "{677, 0}";
},
{
name = top_case;
position = "{578, 1334}";
}
);
paths = (
{
closed = 1;
nodes = (
"458 0 LINE",
"458 612 LINE",
"313 478 LINE",
"891 478 LINE",
"891 753 LINE",
"313 753 LINE",
"458 618 LINE",
"458 1228 LINE",
"313 989 LINE",
"942 989 LINE",
"977 1284 LINE",
"130 1284 LINE",
"130 0 LINE"
);
}
);
};
guideLines = (
{
angle = 263.2847;
position = "{981, 1319}";
}
);
layerId = "D42B5605-DB46-4B3B-8EA0-4CE7066523CE";
paths = (
{
closed = 1;
nodes = (
"468 0 LINE",
"468 612 LINE",
"313 490 LINE",
"865 490 LINE",
"865 770 LINE",
"313 770 LINE",
"468 618 LINE",
"468 1228 LINE",
"313 1004 LINE",
"916 1004 LINE",
"951 1284 LINE",
"130 1284 LINE",
"130 0 LINE"
);
}
);
width = 988;
}
);
leftKerningGroup = StraightUPPER;
leftMetricsKey = "=H";
rightKerningGroup = F;
unicode = 0046;
},
{
color = 4;
glyphname = G;
layers = (
{
anchors = (
{
name = bottom;
position = "{589, 0}";
},
{
name = top;
position = "{583, 1284}";
}
);
background = {
anchors = (
{
name = bottom;
position = "{589, 0}";
},
{
name = top_case;
position = "{583, 1284}";
}
);
paths = (
{
closed = 1;
nodes = (
"704 -10 OFFCURVE",
"808 8 OFFCURVE",
"925 64 CURVE",
"885 161 LINE",
"782 112 OFFCURVE",
"695 96 OFFCURVE",
"608 96 CURVE SMOOTH",
"393 96 OFFCURVE",
"248 242 OFFCURVE",
"248 638 CURVE SMOOTH",
"248 1092 OFFCURVE",
"373 1195 OFFCURVE",
"599 1195 CURVE SMOOTH",
"681 1195 OFFCURVE",
"758 1175 OFFCURVE",
"812 1146 CURVE",
"789 1202 LINE",
"789 949 LINE",
"898 959 LINE",
"898 1226 LINE",
"788 1280 OFFCURVE",
"687 1301 OFFCURVE",
"588 1301 CURVE SMOOTH",
"272 1301 OFFCURVE",
"120 1114 OFFCURVE",
"120 641 CURVE SMOOTH",
"120 179 OFFCURVE",
"321 -10 OFFCURVE",
"600 -10 CURVE SMOOTH"
);
}
);
};
guideLines = (
{
angle = 270;
position = "{585, 639}";
}
);
layerId = "1D628CB9-BBF5-410A-9D74-9E6094BFE839";
paths = (
{
closed = 1;
nodes = (
"794 -10 OFFCURVE",
"911 52 OFFCURVE",
"974 89 CURVE",
"974 665 LINE",
"622 665 LINE",
"622 559 LINE",
"903 559 LINE",
"853 614 LINE",
"853 100 LINE",
"885 161 LINE",
"782 112 OFFCURVE",
"695 96 OFFCURVE",
"608 96 CURVE SMOOTH",
"393 96 OFFCURVE",
"248 242 OFFCURVE",
"248 638 CURVE SMOOTH",
"248 1092 OFFCURVE",
"371 1195 OFFCURVE",
"620 1195 CURVE SMOOTH",
"701 1195 OFFCURVE",
"803 1176 OFFCURVE",
"850 1147 CURVE",
"830 1202 LINE",
"830 944 LINE",
"939 954 LINE",
"939 1226 LINE",
"829 1280 OFFCURVE",
"708 1301 OFFCURVE",
"609 1301 CURVE SMOOTH",
"272 1301 OFFCURVE",
"120 1114 OFFCURVE",
"120 641 CURVE SMOOTH",
"120 179 OFFCURVE",
"321 -10 OFFCURVE",
"600 -10 CURVE SMOOTH"
);
}
);
width = 1116;
},
{
anchors = (
{
name = bottom;
position = "{643, 0}";
},
{
name = top;
position = "{645, 1284}";
}
);
background = {
anchors = (
{
name = bottom;
position = "{685, -50}";
},
{
name = top_case;
position = "{649, 1334}";
}
);
paths = (
{
closed = 1;
nodes = (
"2339 -40 OFFCURVE",
"2517 -4 OFFCURVE",
"2660 62 CURVE",
"2660 685 LINE",
"2163 685 LINE",
"2163 420 LINE",
"2489 420 LINE",
"2352 534 LINE",
"2352 65 LINE",
"2533 338 LINE",
"2377 272 OFFCURVE",
"2278 245 OFFCURVE",
"2185 245 CURVE SMOOTH",
"2011 245 OFFCURVE",
"1905 337 OFFCURVE",
"1905 638 CURVE SMOOTH",
"1905 982 OFFCURVE",
"1983 1046 OFFCURVE",
"2126 1046 CURVE SMOOTH",
"2260 1046 OFFCURVE",
"2332 1015 OFFCURVE",
"2389 986 CURVE",
"2325 1232 LINE",
"2325 828 LINE",
"2625 858 LINE",
"2625 1226 LINE",
"2445 1310 OFFCURVE",
"2307 1331 OFFCURVE",
"2135 1331 CURVE SMOOTH",
"1779 1331 OFFCURVE",
"1577 1174 OFFCURVE",
"1577 641 CURVE SMOOTH",
"1577 119 OFFCURVE",
"1819 -40 OFFCURVE",
"2147 -40 CURVE SMOOTH"
);
},
{
closed = 1;
nodes = (
"770 -22 OFFCURVE",
"913 16 OFFCURVE",
"1035 101 CURVE",
"924 355 LINE",
"818 284 OFFCURVE",
"728 267 OFFCURVE",
"648 267 CURVE SMOOTH",
"478 267 OFFCURVE",
"415 351 OFFCURVE",
"415 637 CURVE SMOOTH",
"415 944 OFFCURVE",
"481 1024 OFFCURVE",
"623 1024 CURVE SMOOTH",
"719 1024 OFFCURVE",
"767 995 OFFCURVE",
"825 957 CURVE",
"712 1215 LINE",
"712 799 LINE",
"998 827 LINE",
"998 1209 LINE",
"842 1291 OFFCURVE",
"738 1311 OFFCURVE",
"599 1311 CURVE SMOOTH",
"277 1311 OFFCURVE",
"77 1159 OFFCURVE",
"77 640 CURVE SMOOTH",
"77 133 OFFCURVE",
"310 -22 OFFCURVE",
"603 -22 CURVE SMOOTH"
);
}
);
};
guideLines = (
{
angle = 270;
position = "{630, 1539}";
},
{
position = "{917, 665}";
}
);
layerId = "D42B5605-DB46-4B3B-8EA0-4CE7066523CE";
paths = (
{
closed = 1;
nodes = (
"800 -22 OFFCURVE",
"980 31 OFFCURVE",
"1082 111 CURVE",
"1082 700 LINE",
"633 700 LINE",
"633 430 LINE",
"989 430 LINE",
"786 534 LINE",
"786 209 LINE",
"924 355 LINE",
"818 284 OFFCURVE",
"738 267 OFFCURVE",
"658 267 CURVE SMOOTH",
"488 267 OFFCURVE",
"415 351 OFFCURVE",
"415 637 CURVE SMOOTH",
"415 944 OFFCURVE",
"491 1024 OFFCURVE",
"653 1024 CURVE SMOOTH",
"749 1024 OFFCURVE",
"818 996 OFFCURVE",
"875 967 CURVE",
"759 1212 LINE",
"759 830 LINE",
"1045 858 LINE",
"1045 1206 LINE",
"898 1290 OFFCURVE",
"777 1311 OFFCURVE",
"647 1311 CURVE SMOOTH",
"293 1311 OFFCURVE",
"77 1159 OFFCURVE",
"77 640 CURVE SMOOTH",
"77 133 OFFCURVE",
"320 -22 OFFCURVE",
"643 -22 CURVE SMOOTH"
);
}
);
width = 1202;
}
);
leftKerningGroup = RoundUPPER;
leftMetricsKey = "=O";
rightKerningGroup = G;
unicode = 0047;
},
{
color = 4;
glyphname = H;
layers = (
{
anchors = (
{
name = bottom;
position = "{578, 0}";
},
{
name = center;
position = "{578, 995}";
},
{
name = top;
position = "{578, 1284}";
}
);
background = {
anchors = (
{
name = bottom;
position = "{578, 0}";
},
{
name = center;
position = "{578, 642}";
},
{
name = top_case;
position = "{578, 1284}";
}
);
paths = (
{
closed = 1;
nodes = (
"288 0 LINE",
"288 647 LINE",
"243 602 LINE",
"913 602 LINE",
"868 647 LINE",
"868 0 LINE",
"996 0 LINE",
"996 1284 LINE",
"868 1284 LINE",
"868 658 LINE",
"913 703 LINE",
"243 703 LINE",
"288 658 LINE",
"288 1284 LINE",
"160 1284 LINE",
"160 0 LINE"
);
}
);
};
layerId = "1D628CB9-BBF5-410A-9D74-9E6094BFE839";
paths = (
{
closed = 1;
nodes = (
"288 0 LINE",
"288 668 LINE",
"243 620 LINE",
"913 620 LINE",
"868 668 LINE",
"868 0 LINE",
"996 0 LINE",
"996 1284 LINE",
"868 1284 LINE",
"868 679 LINE",
"913 726 LINE",
"243 726 LINE",
"288 679 LINE",
"288 1284 LINE",
"160 1284 LINE",
"160 0 LINE"
);
}
);
width = 1156;
},
{
anchors = (
{
name = bottom;
position = "{663, 0}";
},
{
name = center;
position = "{663, 1049}";
},
{
name = top;
position = "{663, 1284}";
}
);
background = {
anchors = (
{
name = bottom;
position = "{658, -50}";
},
{
name = center;
position = "{658, 642}";
},
{
name = top_case;
position = "{658, 1334}";
}
);
paths = (
{
closed = 1;
nodes = (
"468 0 LINE",
"468 637 LINE",
"323 510 LINE",
"1013 510 LINE",
"868 637 LINE",
"868 0 LINE",
"1196 0 LINE",
"1196 1284 LINE",
"868 1284 LINE",
"868 668 LINE",
"1013 795 LINE",
"323 795 LINE",
"468 668 LINE",
"468 1284 LINE",
"140 1284 LINE",
"140 0 LINE"
);
}
);
};
layerId = "D42B5605-DB46-4B3B-8EA0-4CE7066523CE";
paths = (
{
closed = 1;
nodes = (
"468 0 LINE",
"468 654 LINE",
"323 530 LINE",
"1003 530 LINE",
"858 654 LINE",
"858 0 LINE",
"1196 0 LINE",
"1196 1284 LINE",
"858 1284 LINE",
"858 685 LINE",
"1003 810 LINE",
"323 810 LINE",
"468 685 LINE",
"468 1284 LINE",
"130 1284 LINE",
"130 0 LINE"
);
}
);
width = 1326;
}
);
leftKerningGroup = StraightUPPER;
rightKerningGroup = StraightUPPER;
rightMetricsKey = "=|";
unicode = 0048;
userData = {
com.fontlab.hintData = {
hhints = (
{
position = 0;
width = 21;
},
{
position = 602;
width = 101;
},
{
position = 1264;
width = 20;
}
);
vhints = (
{
position = 149;
width = 128;
},
{
position = 857;
width = 128;
}
);
};
};
},
{
color = 4;
glyphname = Hbar;
layers = (
{
background = {
paths = (
{
closed = 1;
nodes = (
"1118 955 LINE",
"1118 1045 LINE",
"58 1045 LINE",
"58 955 LINE"
);
},
{
closed = 1;
nodes = (
"298 0 LINE",
"298 668 LINE",
"253 620 LINE",
"923 620 LINE",
"878 668 LINE",
"878 0 LINE",
"1006 0 LINE",
"1006 1284 LINE",
"878 1284 LINE",
"878 679 LINE",
"923 726 LINE",
"253 726 LINE",
"298 679 LINE",
"298 1284 LINE",
"170 1284 LINE",
"170 0 LINE"
);
}
);
};
layerId = "1D628CB9-BBF5-410A-9D74-9E6094BFE839";
paths = (
{
closed = 1;
nodes = (
"170 955 LINE",
"170 0 LINE",
"298 0 LINE",
"298 620 LINE",
"878 620 LINE",
"878 0 LINE",
"1006 0 LINE",
"1006 955 LINE",
"1118 955 LINE",
"1118 1045 LINE",
"1006 1045 LINE",
"1006 1284 LINE",
"878 1284 LINE",
"878 1045 LINE",
"298 1045 LINE",
"298 1284 LINE",
"170 1284 LINE",
"170 1045 LINE",
"58 1045 LINE",
"58 955 LINE"
);
},
{
closed = 1;
nodes = (
"298 955 LINE",
"878 955 LINE",
"878 726 LINE",
"298 726 LINE"
);
}
);
width = 1176;
},
{
background = {
paths = (
{
closed = 1;
nodes = (
"1338 970 LINE",
"1338 1130 LINE",
"8 1130 LINE",
"8 970 LINE"
);
},
{
closed = 1;
nodes = (
"478 0 LINE",
"478 654 LINE",
"333 530 LINE",
"1013 530 LINE",
"868 654 LINE",
"868 0 LINE",
"1206 0 LINE",
"1206 1284 LINE",
"868 1284 LINE",
"868 685 LINE",
"1013 810 LINE",
"333 810 LINE",
"478 685 LINE",
"478 1284 LINE",
"140 1284 LINE",
"140 0 LINE"
);
}
);
};
guideLines = (
{
position = "{745, 799}";
},
{
position = "{714, 514}";
}
);
layerId = "D42B5605-DB46-4B3B-8EA0-4CE7066523CE";
paths = (
{
closed = 1;
nodes = (
"140 970 LINE",
"140 0 LINE",
"478 0 LINE",
"478 530 LINE",
"868 530 LINE",
"868 0 LINE",
"1206 0 LINE",
"1206 970 LINE",
"1338 970 LINE",
"1338 1130 LINE",
"1206 1130 LINE",
"1206 1284 LINE",
"868 1284 LINE",
"868 1130 LINE",
"478 1130 LINE",
"478 1284 LINE",
"140 1284 LINE",
"140 1130 LINE",
"8 1130 LINE",
"8 970 LINE"
);
},
{
closed = 1;
nodes = (
"478 970 LINE",
"868 970 LINE",
"868 810 LINE",
"478 810 LINE"
);
}
);
width = 1346;
}
);
leftKerningGroup = StraightUPPER;
rightKerningGroup = StraightUPPER;
unicode = 0126;
},
{
color = 4;
glyphname = I;
layers = (
{
anchors = (
{
name = bottom;
position = "{362, 0}";
},
{
name = ogonek;
position = "{459, 0}";
},
{
name = top;
position = "{365, 1284}";
}
);
background = {
anchors = (
{
name = bottom;
position = "{362, 0}";
},
{
name = ogonek;
position = "{371, 0}";
},
{
name = top;
position = "{365, 1284}";
},
{
name = top_case;
position = "{365, 1284}";
}
);
paths = (
{
closed = 1;
nodes = (
"617 0 LINE",
"617 106 LINE",
"384 106 LINE",
"429 61 LINE",
"429 1223 LINE",
"384 1178 LINE",
"613 1178 LINE",
"613 1284 LINE",
"107 1284 LINE",
"107 1178 LINE",
"346 1178 LINE",
"301 1223 LINE",
"301 61 LINE",
"346 106 LINE",
"107 106 LINE",
"107 0 LINE"
);
}
);
};
layerId = "1D628CB9-BBF5-410A-9D74-9E6094BFE839";
paths = (
{
closed = 1;
nodes = (
"623 0 LINE",
"623 106 LINE",
"384 106 LINE",
"429 61 LINE",
"429 1223 LINE",
"384 1178 LINE",
"623 1178 LINE",
"623 1284 LINE",
"107 1284 LINE",
"107 1178 LINE",
"346 1178 LINE",
"301 1223 LINE",
"301 61 LINE",
"346 106 LINE",
"107 106 LINE",
"107 0 LINE"
);
}
);
width = 730;
},
{
anchors = (
{
name = bottom;
position = "{468, 0}";
},
{
name = ogonek;
position = "{637, 0}";
},
{
name = top;
position = "{468, 1284}";
}
);
background = {
anchors = (
{
name = bottom;
position = "{460, -50}";
},
{
name = ogonek;
position = "{479, 6}";
},
{
name = top;
position = "{464, 1336}";
},
{
name = top_case;
position = "{463, 1336}";
}
);
paths = (
{
closed = 1;
nodes = (
"845 0 LINE",
"845 285 LINE",
"482 285 LINE",
"627 61 LINE",
"627 1223 LINE",
"482 999 LINE",
"841 999 LINE",
"841 1284 LINE",
"75 1284 LINE",
"75 999 LINE",
"444 999 LINE",
"299 1223 LINE",
"299 61 LINE",
"444 285 LINE",
"75 285 LINE",
"75 0 LINE"
);
}
);
};
guideLines = (
{
angle = 270;
position = "{463, 916}";
}
);
layerId = "D42B5605-DB46-4B3B-8EA0-4CE7066523CE";
paths = (
{
closed = 1;
nodes = (
"861 0 LINE",
"861 280 LINE",
"482 280 LINE",
"637 161 LINE",
"637 1123 LINE",
"482 1004 LINE",
"861 1004 LINE",
"861 1284 LINE",
"75 1284 LINE",
"75 1004 LINE",
"444 1004 LINE",
"299 1123 LINE",
"299 161 LINE",
"444 280 LINE",
"75 280 LINE",
"75 0 LINE"
);
}
);
width = 936;
}
);
leftKerningGroup = I;
rightKerningGroup = I;
rightMetricsKey = "=|";
unicode = 0049;
},
{
color = 4;
glyphname = J;
layers = (
{
anchors = (
{
name = top;
position = "{268, 1284}";
}
);
background = {
anchors = (
{
name = bottom;
position = "{290, 0}";
},
{
name = top_case;
position = "{290, 1284}";
}
);
paths = (
{
closed = 1;
nodes = (
"363 -232 OFFCURVE",
"462 -155 OFFCURVE",
"462 91 CURVE SMOOTH",
"462 1284 LINE",
"73 1284 LINE",
"73 1183 LINE",
"379 1183 LINE",
"334 1228 LINE",
"334 91 LINE SMOOTH",
"334 -62 OFFCURVE",
"295 -126 OFFCURVE",
"182 -126 CURVE SMOOTH",
"135 -126 OFFCURVE",
"78 -115 OFFCURVE",
"30 -98 CURVE",
"15 -200 LINE",
"70 -221 OFFCURVE",
"134 -232 OFFCURVE",
"191 -232 CURVE SMOOTH"
);
}
);
};
guideLines = (
{
angle = 270;
position = "{73, 727}";
}
);
layerId = "1D628CB9-BBF5-410A-9D74-9E6094BFE839";
paths = (
{
closed = 1;
nodes = (
"363 -15 OFFCURVE",
"462 62 OFFCURVE",
"462 308 CURVE SMOOTH",
"462 1284 LINE",
"73 1284 LINE",
"73 1178 LINE",
"379 1178 LINE",
"334 1228 LINE",
"334 308 LINE SMOOTH",
"334 155 OFFCURVE",
"295 91 OFFCURVE",
"182 91 CURVE SMOOTH",
"135 91 OFFCURVE",
"81 104 OFFCURVE",
"38 122 CURVE",
"15 21 LINE",
"70 -2 OFFCURVE",
"134 -15 OFFCURVE",
"191 -15 CURVE SMOOTH"
);
}
);
width = 622;
},
{
anchors = (
{
name = top;
position = "{410, 1284}";
}
);
background = {
anchors = (
{
name = bottom;
position = "{258, 0}";
},
{
name = top_case;
position = "{436, 1334}";
}
);
paths = (
{
closed = 1;
nodes = (
"481 -340 OFFCURVE",
"719 -248 OFFCURVE",
"719 121 CURVE SMOOTH",
"719 1284 LINE",
"101 1284 LINE",
"101 999 LINE",
"536 999 LINE",
"391 1228 LINE",
"391 117 LINE SMOOTH",
"391 -26 OFFCURVE",
"320 -55 OFFCURVE",
"257 -55 CURVE SMOOTH",
"214 -55 OFFCURVE",
"133 -46 OFFCURVE",
"60 -26 CURVE",
"21 -295 LINE",
"115 -326 OFFCURVE",
"231 -340 OFFCURVE",
"301 -340 CURVE SMOOTH"
);
}
);
};
layerId = "D42B5605-DB46-4B3B-8EA0-4CE7066523CE";
paths = (
{
closed = 1;
nodes = (
"481 -15 OFFCURVE",
"719 77 OFFCURVE",
"719 446 CURVE SMOOTH",
"719 1284 LINE",
"101 1284 LINE",
"101 1004 LINE",
"436 1004 LINE",
"381 1090 LINE",
"381 442 LINE SMOOTH",
"381 299 OFFCURVE",
"310 270 OFFCURVE",
"247 270 CURVE SMOOTH",
"204 270 OFFCURVE",
"143 279 OFFCURVE",
"80 299 CURVE",
"21 34 LINE",
"95 -1 OFFCURVE",
"211 -15 OFFCURVE",
"301 -15 CURVE SMOOTH"
);
}
);
width = 849;
}
);
leftKerningGroup = J;
rightKerningGroup = StraightUPPER;
unicode = 004A;
},
{
color = 3;
glyphname = K;
layers = (
{
anchors = (
{
name = bottom;
position = "{527, 0}";
},
{
name = top;
position = "{527, 1284}";
}
);
background = {
anchors = (
{
name = bottom;
position = "{527, 0}";
},
{
name = top;
position = "{527, 1284}";
}
);
paths = (
{
closed = 1;
nodes = (
"288 0 LINE",
"288 525 LINE",
"256 449 LINE",
"496 683 LINE",
"450 676 LINE",
"576 453 OFFCURVE",
"725 211 OFFCURVE",
"874 -14 CURVE",
"1004 9 LINE",
"845 248 OFFCURVE",
"690 497 OFFCURVE",
"546 748 CURVE",
"534 685 LINE",
"980 1277 LINE",
"845 1296 LINE",
"443 778 LINE",
"258 576 LINE",
"288 564 LINE",
"288 1284 LINE",
"160 1284 LINE",
"160 0 LINE"
);
}
);
};
guideLines = (
{
position = "{824, 9}";
},
{
angle = 190.3049;
position = "{939, -2}";
}
);
layerId = "1D628CB9-BBF5-410A-9D74-9E6094BFE839";
paths = (
{
closed = 1;
nodes = (
"288 0 LINE",
"288 525 LINE",
"256 449 LINE",
"496 683 LINE",
"450 676 LINE",
"576 453 OFFCURVE",
"725 211 OFFCURVE",
"874 -14 CURVE",
"1004 9 LINE",
"845 248 OFFCURVE",
"690 497 OFFCURVE",
"546 748 CURVE",
"534 685 LINE",
"980 1277 LINE",
"845 1296 LINE",
"443 778 LINE",
"258 576 LINE",
"288 564 LINE",
"288 1284 LINE",
"160 1284 LINE",
"160 0 LINE"
);
}
);
width = 1054;
},
{
anchors = (
{
name = bottom;
position = "{634, 0}";
},
{
name = top;
position = "{647, 1284}";
}
);
background = {
anchors = (
{
name = bottom;
position = "{634, -50}";
},
{
name = top;
position = "{647, 1286}";
}
);
paths = (
{
closed = 1;
nodes = (
"458 0 LINE",
"458 505 LINE",
"371 347 LINE",
"616 541 LINE",
"540 564 LINE",
"657 352 OFFCURVE",
"756 196 OFFCURVE",
"897 -30 CURVE",
"1249 24 LINE",
"1067 306 OFFCURVE",
"938 501 OFFCURVE",
"776 776 CURVE",
"775 632 LINE",
"1200 1252 LINE",
"854 1308 LINE",
"544 863 LINE",
"342 643 LINE",
"458 634 LINE",
"458 1284 LINE",
"130 1284 LINE",
"130 0 LINE"
);
}
);
};
layerId = "D42B5605-DB46-4B3B-8EA0-4CE7066523CE";
paths = (
{
closed = 1;
nodes = (
"468 0 LINE",
"468 505 LINE",
"381 347 LINE",
"626 541 LINE",
"540 564 LINE",
"657 352 OFFCURVE",
"756 196 OFFCURVE",
"897 -30 CURVE",
"1259 24 LINE",
"1077 306 OFFCURVE",
"944 501 OFFCURVE",
"786 776 CURVE",
"785 632 LINE",
"1210 1252 LINE",
"854 1308 LINE",
"544 863 LINE",
"342 643 LINE",
"468 634 LINE",
"468 1284 LINE",
"130 1284 LINE",
"130 0 LINE"
);
}
);
width = 1257;
}
);
leftKerningGroup = StraightUPPER;
leftMetricsKey = "=H";
rightKerningGroup = K;
unicode = 004B;
userData = {
com.fontlab.hintData = {
hhints = (
{
position = 0;
width = 21;
},
{
position = 1264;
width = 20;
}
);
vhints = (
{
position = 149;
width = 128;
}
);
};
};
},
{
color = 4;
glyphname = L;
layers = (
{
anchors = (
{
name = bottom;
position = "{479, 0}";
},
{
name = center;
position = "{705, 675}";
},
{
name = top;
position = "{224, 1284}";
},
{
name = topright;
position = "{568, 1284}";
}
);
background = {
anchors = (
{
name = bottom;
position = "{479, 0}";
},
{
name = center;
position = "{727, 675}";
},
{
name = top_case;
position = "{404, 1284}";
},
{
name = topright;
position = "{568, 1284}";
}
);
paths = (
{
closed = 1;
nodes = (
"797 0 LINE",
"780 101 LINE",
"243 101 LINE",
"288 56 LINE",
"288 1284 LINE",
"160 1284 LINE",
"160 0 LINE"
);
}
);
};
guideLines = (
{
angle = -80.5924;
position = "{793, 162}";
}
);
layerId = "1D628CB9-BBF5-410A-9D74-9E6094BFE839";
paths = (
{
closed = 1;
nodes = (
"797 0 LINE",
"780 106 LINE",
"243 106 LINE",
"288 56 LINE",
"288 1284 LINE",
"160 1284 LINE",
"160 0 LINE"
);
}
);
width = 831;
},
{
anchors = (
{
name = bottom;
position = "{551, -50}";
},
{
name = center;
position = "{789, 695}";
},
{
name = top;
position = "{299, 1284}";
},
{
name = topright;
position = "{628, 1284}";
}
);
background = {
anchors = (
{
name = bottom;
position = "{551, -50}";
},
{
name = center;
position = "{732, 695}";
},
{
name = top_case;
position = "{404, 1324}";
},
{
name = topright;
position = "{708, 1284}";
}
);
paths = (
{
closed = 1;
nodes = (
"979 0 LINE",
"944 285 LINE",
"313 285 LINE",
"458 56 LINE",
"458 1284 LINE",
"130 1284 LINE",
"130 0 LINE"
);
}
);
};
guideLines = (
{
angle = -83.2847;
position = "{824, 1319}";
},
{
angle = 270;
position = "{549, 619}";
}
);
layerId = "D42B5605-DB46-4B3B-8EA0-4CE7066523CE";
paths = (
{
closed = 1;
nodes = (
"949 0 LINE",
"914 285 LINE",
"313 285 LINE",
"468 56 LINE",
"468 1284 LINE",
"130 1284 LINE",
"130 0 LINE"
);
}
);
width = 980;
}
);
leftKerningGroup = StraightUPPER;
leftMetricsKey = "=H";
rightKerningGroup = L;
unicode = 004C;
},
{
color = 4;
glyphname = Lslash;
layers = (
{
background = {
paths = (
{
closed = 1;
nodes = (
"837 0 LINE",
"820 106 LINE",
"283 106 LINE",
"328 56 LINE",
"328 1284 LINE",
"200 1284 LINE",
"200 0 LINE"
);
},
{
closed = 1;
nodes = (
"733 912 LINE",
"681 992 LINE",
"-15 550 LINE",
"38 470 LINE"
);
}
);
};
layerId = "1D628CB9-BBF5-410A-9D74-9E6094BFE839";
paths = (
{
closed = 1;
nodes = (
"837 0 LINE",
"820 106 LINE",
"328 106 LINE",
"328 654 LINE",
"733 912 LINE",
"681 992 LINE",
"328 768 LINE",
"328 1284 LINE",
"200 1284 LINE",
"200 687 LINE",
"-15 550 LINE",
"38 470 LINE",
"200 573 LINE",
"200 0 LINE"
);
}
);
width = 871;
},
{
background = {
paths = (
{
closed = 1;
nodes = (
"989 0 LINE",
"954 285 LINE",
"353 285 LINE",
"508 56 LINE",
"508 1284 LINE",
"170 1284 LINE",
"170 0 LINE"
);
},
{
closed = 1;
nodes = (
"867 876 LINE",
"778 1008 LINE",
"-61 470 LINE",
"28 339 LINE"
);
}
);
};
guideLines = (
{
angle = 123.6239;
position = "{-9, 443}";
},
{
angle = 123.6239;
position = "{791, 1060}";
}
);
layerId = "D42B5605-DB46-4B3B-8EA0-4CE7066523CE";
paths = (
{
closed = 1;
nodes = (
"989 0 LINE",
"954 285 LINE",
"508 285 LINE",
"508 646 LINE",
"867 876 LINE",
"778 1008 LINE",
"508 835 LINE",
"508 1284 LINE",
"170 1284 LINE",
"170 618 LINE",
"-61 470 LINE",
"28 339 LINE",
"170 430 LINE",
"170 0 LINE"
);
}
);
width = 1020;
}
);
leftKerningGroup = H;
rightKerningGroup = L;
rightMetricsKey = L;
unicode = 0141;
},
{
color = 4;
glyphname = M;
layers = (
{
anchors = (
{
name = bottom;
position = "{679, 0}";
},
{
name = top;
position = "{675, 1284}";
}
);
background = {
anchors = (
{
name = bottom;
position = "{679, 0}";
},
{
name = top_case;
position = "{675, 1284}";
}
);
paths = (
{
closed = 1;
nodes = (
"257 -9 LINE",
"352 1131 LINE",
"330 1127 LINE",
"622 438 LINE",
"737 438 LINE",
"1029 1131 LINE",
"1008 1134 LINE",
"1103 -9 LINE",
"1223 5 LINE",
"1119 1284 LINE",
"978 1284 LINE",
"662 540 LINE",
"697 541 LINE",
"382 1284 LINE",
"240 1284 LINE",
"135 5 LINE"
);
}
);
};
guideLines = (
{
angle = 270;
position = "{679, 1133}";
},
{
angle = 6.6544;
position = "{1163, -2}";
}
);
layerId = "1D628CB9-BBF5-410A-9D74-9E6094BFE839";
paths = (
{
closed = 1;
nodes = (
"257 -9 LINE",
"352 1131 LINE",
"330 1127 LINE",
"622 438 LINE",
"737 438 LINE",
"1029 1131 LINE",
"1008 1134 LINE",
"1103 -9 LINE",
"1226 5 LINE",
"1122 1284 LINE",
"977 1284 LINE",
"662 540 LINE",
"697 541 LINE",
"382 1284 LINE",
"237 1284 LINE",
"132 5 LINE"
);
}
);
width = 1358;
},
{
anchors = (
{
name = bottom;
position = "{841, 0}";
},
{
name = top;
position = "{840, 1284}";
}
);
background = {
anchors = (
{
name = bottom;
position = "{833, 0}";
},
{
name = top_case;
position = "{829, 1334}";
}
);
paths = (
{
closed = 1;
nodes = (
"450 -18 LINE",
"530 1144 LINE",
"430 1141 LINE",
"713 357 LINE",
"968 357 LINE",
"1251 1143 LINE",
"1152 1146 LINE",
"1232 -18 LINE",
"1547 14 LINE",
"1430 1284 LINE",
"1048 1284 LINE",
"743 475 LINE",
"938 475 LINE",
"632 1284 LINE",
"251 1284 LINE",
"134 14 LINE"
);
}
);
};
guideLines = (
{
angle = 265.6286;
position = "{224, 443}";
},
{
angle = -85.6286;
position = "{1451, 443}";
},
{
angle = 270;
position = "{840, 876}";
},
{
angle = 185.6062;
position = "{1375, -1}";
}
);
layerId = "D42B5605-DB46-4B3B-8EA0-4CE7066523CE";
paths = (
{
closed = 1;
nodes = (
"450 -18 LINE",
"530 1144 LINE",
"410 1141 LINE",
"703 357 LINE",
"978 357 LINE",
"1261 1143 LINE",
"1152 1146 LINE",
"1232 -18 LINE",
"1578 14 LINE",
"1461 1284 LINE",
"1048 1284 LINE",
"743 475 LINE",
"938 475 LINE",
"632 1284 LINE",
"221 1284 LINE",
"104 14 LINE"
);
}
);
width = 1682;
}
);
leftKerningGroup = M;
rightKerningGroup = M;
unicode = 004D;
},
{
color = 4;
glyphname = N;
layers = (
{
anchors = (
{
name = bottom;
position = "{612, 0}";
},
{
name = top;
position = "{607, 1284}";
}
);
background = {
anchors = (
{
name = bottom;
position = "{612, 0}";
},
{
name = top_case;
position = "{607, 1284}";
}
);
paths = (
{
closed = 1;
nodes = (
"288 0 LINE",
"288 1126 LINE",
"266 1120 LINE",
"909 -10 LINE",
"1043 6 LINE",
"1043 1284 LINE",
"915 1284 LINE",
"915 174 LINE",
"938 180 LINE",
"300 1284 LINE",
"160 1284 LINE",
"160 0 LINE"
);
}
);
};
guideLines = (
{
angle = 6.6544;
position = "{976, -2}";
}
);
layerId = "1D628CB9-BBF5-410A-9D74-9E6094BFE839";
paths = (
{
closed = 1;
nodes = (
"285 0 LINE",
"285 1116 LINE",
"266 1110 LINE",
"909 -10 LINE",
"1043 6 LINE",
"1043 1284 LINE",
"918 1284 LINE",
"918 174 LINE",
"938 180 LINE",
"300 1284 LINE",
"160 1284 LINE",
"160 0 LINE"
);
}
);
width = 1203;
},
{
anchors = (
{
name = bottom;
position = "{682, 0}";
},
{
name = top;
position = "{682, 1284}";
}
);
background = {
anchors = (
{
name = bottom;
position = "{697, -50}";
},
{
name = top_case;
position = "{695, 1334}";
}
);
paths = (
{
closed = 1;
nodes = (
"453 0 LINE",
"453 1026 LINE",
"298 1020 LINE",
"914 -18 LINE",
"1233 13 LINE",
"1233 1284 LINE",
"910 1284 LINE",
"910 274 LINE",
"1066 280 LINE",
"460 1284 LINE",
"130 1284 LINE",
"130 0 LINE"
);
}
);
};
guideLines = (
{
angle = 120.0349;
position = "{240, 1681}";
},
{
angle = 270;
position = "{687, 199}";
},
{
angle = 185.6062;
position = "{1341, 24}";
},
{
position = "{866, -18}";
}
);
layerId = "D42B5605-DB46-4B3B-8EA0-4CE7066523CE";
paths = (
{
closed = 1;
nodes = (
"458 0 LINE",
"458 1016 LINE",
"298 1010 LINE",
"914 -18 LINE",
"1233 13 LINE",
"1233 1284 LINE",
"905 1284 LINE",
"905 274 LINE",
"1066 280 LINE",
"460 1284 LINE",
"130 1284 LINE",
"130 0 LINE"
);
}
);
width = 1363;
}
);
leftKerningGroup = StraightUPPER;
leftMetricsKey = "=H";
rightKerningGroup = StraightUPPER;
rightMetricsKey = "=H";
unicode = 004E;
},
{
color = 4;
glyphname = Eng;
layers = (
{
background = {
anchors = (
{
name = bottom;
position = "{587, -29}";
},
{
name = top_case;
position = "{600, 1308}";
}
);
paths = (
{
closed = 1;
nodes = (
"285 0 LINE",
"285 1116 LINE",
"266 1110 LINE",
"909 -10 LINE",
"1043 6 LINE",
"1043 1284 LINE",
"918 1284 LINE",
"918 174 LINE",
"938 180 LINE",
"300 1284 LINE",
"160 1284 LINE",
"160 0 LINE"
);
}
);
};
guideLines = (
{
angle = 270;
position = "{939, 565}";
}
);
layerId = "1D628CB9-BBF5-410A-9D74-9E6094BFE839";
paths = (
{
closed = 1;
nodes = (
"844 -403 OFFCURVE",
"1043 -325 OFFCURVE",
"1043 -20 CURVE SMOOTH",
"1043 1284 LINE",
"918 1284 LINE",
"918 174 LINE",
"938 181 LINE",
"300 1284 LINE",
"160 1284 LINE",
"160 0 LINE",
"285 0 LINE",
"285 1116 LINE",
"266 1110 LINE",
"937 -60 LINE",
"918 24 LINE",
"918 -65 LINE SMOOTH",
"918 -245 OFFCURVE",
"785 -296 OFFCURVE",
"600 -296 CURVE",
"602 -403 LINE"
);
}
);
width = 1203;
},
{
background = {
anchors = (
{
name = bottom;
position = "{717, -50}";
},
{
name = top_case;
position = "{685, 1334}";
}
);
paths = (
{
closed = 1;
nodes = (
"458 0 LINE",
"458 1016 LINE",
"298 1010 LINE",
"914 -18 LINE",
"1233 13 LINE",
"1233 1284 LINE",
"905 1284 LINE",
"905 274 LINE",
"1066 280 LINE",
"460 1284 LINE",
"130 1284 LINE",
"130 0 LINE"
);
}
);
};
layerId = "D42B5605-DB46-4B3B-8EA0-4CE7066523CE";
paths = (
{
closed = 1;
nodes = (
"1094 -402 OFFCURVE",
"1233 -214 OFFCURVE",
"1233 40 CURVE SMOOTH",
"1233 1284 LINE",
"905 1284 LINE",
"905 274 LINE",
"1066 280 LINE",
"460 1284 LINE",
"130 1284 LINE",
"130 0 LINE",
"458 0 LINE",
"458 1016 LINE",
"298 1010 LINE",
"926 -39 LINE",
"905 85 LINE",
"905 19 LINE SMOOTH",
"905 -93 OFFCURVE",
"816 -136 OFFCURVE",
"674 -136 CURVE",
"713 -406 LINE"
);
}
);
width = 1363;
}
);
leftKerningGroup = StraightUPPER;
leftMetricsKey = H;
rightKerningGroup = J;
rightMetricsKey = H;
unicode = 014A;
},
{
color = 4;
glyphname = O;
layers = (
{
anchors = (
{
name = bottom;
position = "{568, 0}";
},
{
name = center;
position = "{568, 642}";
},
{
name = ogonek;
position = "{667, 0}";
},
{
name = top;
position = "{568, 1284}";
},
{
name = topright;
position = "{714, 1284}";
}
);
background = {
anchors = (
{
name = bottom;
position = "{568, -20}";
},
{
name = ogonek;
position = "{729, 30}";
},
{
name = top;
position = "{568, 1284}";
},
{
name = top_case;
position = "{568, 1284}";
},
{
name = topright;
position = "{894, 954}";
}
);
paths = (
{
closed = 1;
nodes = (
"929 -10 OFFCURVE",
"1016 241 OFFCURVE",
"1016 657 CURVE SMOOTH",
"1016 1074 OFFCURVE",
"917 1308 OFFCURVE",
"568 1308 CURVE SMOOTH",
"219 1308 OFFCURVE",
"120 1074 OFFCURVE",
"120 657 CURVE SMOOTH",
"120 241 OFFCURVE",
"207 -10 OFFCURVE",
"568 -10 CURVE SMOOTH"
);
},
{
closed = 1;
nodes = (
"318 96 OFFCURVE",
"248 273 OFFCURVE",
"248 654 CURVE SMOOTH",
"248 1039 OFFCURVE",
"321 1202 OFFCURVE",
"568 1202 CURVE SMOOTH",
"815 1202 OFFCURVE",
"888 1039 OFFCURVE",
"888 654 CURVE SMOOTH",
"888 273 OFFCURVE",
"818 96 OFFCURVE",
"568 96 CURVE SMOOTH"
);
}
);
};
layerId = "1D628CB9-BBF5-410A-9D74-9E6094BFE839";
paths = (
{
closed = 1;
nodes = (
"929 -15 OFFCURVE",
"1016 236 OFFCURVE",
"1016 652 CURVE SMOOTH",
"1016 1069 OFFCURVE",
"917 1303 OFFCURVE",
"568 1303 CURVE SMOOTH",
"219 1303 OFFCURVE",
"120 1069 OFFCURVE",
"120 652 CURVE SMOOTH",
"120 236 OFFCURVE",
"207 -15 OFFCURVE",
"568 -15 CURVE SMOOTH"
);
},
{
closed = 1;
nodes = (
"318 91 OFFCURVE",
"248 268 OFFCURVE",
"248 649 CURVE SMOOTH",
"248 1034 OFFCURVE",
"321 1197 OFFCURVE",
"568 1197 CURVE SMOOTH",
"815 1197 OFFCURVE",
"888 1034 OFFCURVE",
"888 649 CURVE SMOOTH",
"888 268 OFFCURVE",
"818 91 OFFCURVE",
"568 91 CURVE SMOOTH"
);
}
);
width = 1136;
},
{
anchors = (
{
name = bottom;
position = "{610, 0}";
},
{
name = center;
position = "{610, 642}";
},
{
name = ogonek;
position = "{784, 0}";
},
{
name = top;
position = "{610, 1284}";
},
{
name = topright;
position = "{791, 1284}";
}
);
background = {
anchors = (
{
name = bottom;
position = "{610, -50}";
},
{
name = ogonek;
position = "{734, 14}";
},
{
name = top;
position = "{611, 1336}";
},
{
name = top_case;
position = "{610, 1336}";
},
{
name = topright;
position = "{1106, 844}";
}
);
paths = (
{
closed = 1;
nodes = (
"961 -40 OFFCURVE",
"1143 132 OFFCURVE",
"1143 648 CURVE SMOOTH",
"1143 1165 OFFCURVE",
"949 1331 OFFCURVE",
"610 1331 CURVE SMOOTH",
"271 1331 OFFCURVE",
"77 1165 OFFCURVE",
"77 648 CURVE SMOOTH",
"77 132 OFFCURVE",
"259 -40 OFFCURVE",
"610 -40 CURVE SMOOTH"
);
},
{
closed = 1;
nodes = (
"460 245 OFFCURVE",
"405 334 OFFCURVE",
"405 645 CURVE SMOOTH",
"405 961 OFFCURVE",
"463 1046 OFFCURVE",
"610 1046 CURVE SMOOTH",
"757 1046 OFFCURVE",
"815 961 OFFCURVE",
"815 645 CURVE SMOOTH",
"815 334 OFFCURVE",
"760 245 OFFCURVE",
"610 245 CURVE SMOOTH"
);
}
);
};
layerId = "D42B5605-DB46-4B3B-8EA0-4CE7066523CE";
paths = (
{
closed = 1;
nodes = (
"961 -20 OFFCURVE",
"1143 147 OFFCURVE",
"1143 648 CURVE SMOOTH",
"1143 1147 OFFCURVE",
"949 1308 OFFCURVE",
"610 1308 CURVE SMOOTH",
"271 1308 OFFCURVE",
"77 1147 OFFCURVE",
"77 648 CURVE SMOOTH",
"77 147 OFFCURVE",
"259 -20 OFFCURVE",
"610 -20 CURVE SMOOTH"
);
},
{
closed = 1;
nodes = (
"467 267 OFFCURVE",
"415 351 OFFCURVE",
"415 645 CURVE SMOOTH",
"415 941 OFFCURVE",
"470 1021 OFFCURVE",
"610 1021 CURVE SMOOTH",
"750 1021 OFFCURVE",
"805 941 OFFCURVE",
"805 645 CURVE SMOOTH",
"805 351 OFFCURVE",
"753 267 OFFCURVE",
"610 267 CURVE SMOOTH"
);
}
);
width = 1220;
}
);
leftKerningGroup = RoundUPPER;
rightKerningGroup = RoundUPPER;
unicode = 004F;
userData = {
com.fontlab.hintData = {
hhints = (
{
position = -10;
width = 106;
},
{
position = 1195;
width = 106;
}
);
vhints = (
{
position = 116;
width = 128;
},
{
position = 884;
width = 128;
}
);
};
};
},
{
color = 6;
glyphname = Ohorn;
layers = (
{
background = {
anchors = (
{
name = _topright;
position = "{894, 974}";
},
{
name = bottom;
position = "{568, 0}";
},
{
name = ogonek;
position = "{729, 30}";
},
{
name = top;
position = "{568, 1284}";
},
{
name = top_case;
position = "{568, 1284}";
},
{
name = topright;
position = "{894, 974}";
}
);
components = (
{
name = O;
},
{
name = horncomb;
transform = "{1, 0, 0, 1, 854, -31}";
}
);
};
components = (
{
name = O;
},
{
name = horncomb;
transform = "{1, 0, 0, 1, 364, 299}";
}
);
layerId = "1D628CB9-BBF5-410A-9D74-9E6094BFE839";
width = 1136;
},
{
anchors = (
{
name = _topright;
position = "{890, 974}";
},
{
name = bottom;
position = "{564, 0}";
},
{
name = ogonek;
position = "{725, 30}";
},
{
name = top;
position = "{564, 1284}";
},
{
name = topright;
position = "{890, 974}";
}
);
associatedMasterId = "1D628CB9-BBF5-410A-9D74-9E6094BFE839";
layerId = "14DD0084-6660-4B70-A99D-CC78A7D99BE3";
name = "Regular Jul 25 16, 11:36";
paths = (
{
closed = 1;
nodes = (
"925 -10 OFFCURVE",
"1012 232 OFFCURVE",
"1012 648 CURVE SMOOTH",
"1012 1065 OFFCURVE",
"913 1301 OFFCURVE",
"564 1301 CURVE SMOOTH",
"215 1301 OFFCURVE",
"116 1065 OFFCURVE",
"116 648 CURVE SMOOTH",
"116 232 OFFCURVE",
"203 -10 OFFCURVE",
"564 -10 CURVE SMOOTH"
);
},
{
closed = 1;
nodes = (
"314 96 OFFCURVE",
"244 264 OFFCURVE",
"244 645 CURVE SMOOTH",
"244 1030 OFFCURVE",
"317 1195 OFFCURVE",
"564 1195 CURVE SMOOTH",
"811 1195 OFFCURVE",
"884 1030 OFFCURVE",
"884 645 CURVE SMOOTH",
"884 264 OFFCURVE",
"814 96 OFFCURVE",
"564 96 CURVE SMOOTH"
);
},
{
closed = 1;
nodes = (
"900 1066 LINE SMOOTH",
"1022 1107 OFFCURVE",
"1128 1166 OFFCURVE",
"1128 1291 CURVE SMOOTH",
"1128 1331 OFFCURVE",
"1121 1363 OFFCURVE",
"1111 1389 CURVE",
"979 1389 LINE",
"992 1361 OFFCURVE",
"1000 1330 OFFCURVE",
"1000 1299 CURVE SMOOTH",
"1000 1223 OFFCURVE",
"961 1180 OFFCURVE",
"890 1149 CURVE SMOOTH",
"855 1134 LINE",
"855 1051 LINE"
);
}
);
width = 1128;
},
{
background = {
anchors = (
{
name = _topright;
position = "{914, 974}";
},
{
name = bottom;
position = "{588, -50}";
},
{
name = ogonek;
position = "{749, -20}";
},
{
name = top;
position = "{588, 1334}";
},
{
name = top_case;
position = "{588, 1334}";
},
{
name = topright;
position = "{914, 974}";
}
);
components = (
{
name = O;
},
{
name = horncomb;
transform = "{1, 0, 0, 1, 925, -141}";
}
);
};
components = (
{
name = O;
},
{
name = horncomb;
transform = "{1, 0, 0, 1, 441, 269}";
}
);
layerId = "D42B5605-DB46-4B3B-8EA0-4CE7066523CE";
width = 1220;
}
);
leftKerningGroup = RoundUPPER;
rightKerningGroup = hornUPPER;
unicode = 01A0;
userData = {
com.schriftgestaltung.Glyphs.ColorIndex = 7;
};
},
{
color = 4;
glyphname = OE;
layers = (
{
anchors = (
{
name = bottom;
position = "{888, 0}";
},
{
name = top;
position = "{888, 1284}";
}
);
background = {
paths = (
{
closed = 1;
nodes = (
"952 1284 LINE",
"679 1284 LINE SMOOTH",
"225 1284 OFFCURVE",
"120 1101 OFFCURVE",
"120 636 CURVE SMOOTH",
"120 229 OFFCURVE",
"196 0 OFFCURVE",
"668 0 CURVE SMOOTH",
"952 0 LINE"
);
},
{
closed = 1;
nodes = (
"869 106 LINE",
"668 106 LINE SMOOTH",
"284 106 OFFCURVE",
"248 266 OFFCURVE",
"248 636 CURVE SMOOTH",
"248 1030 OFFCURVE",
"304 1178 OFFCURVE",
"679 1178 CURVE SMOOTH",
"869 1178 LINE",
"824 1228 LINE",
"824 56 LINE"
);
},
{
closed = 1;
nodes = (
"1513 0 LINE",
"1497 106 LINE",
"907 106 LINE",
"952 56 LINE",
"952 671 LINE",
"907 620 LINE",
"1453 620 LINE",
"1453 726 LINE",
"907 726 LINE",
"952 677 LINE",
"952 1228 LINE",
"907 1178 LINE",
"1487 1178 LINE",
"1509 1284 LINE",
"824 1284 LINE",
"824 0 LINE"
);
}
);
};
layerId = "1D628CB9-BBF5-410A-9D74-9E6094BFE839";
paths = (
{
closed = 1;
nodes = (
"1403 0 LINE",
"1387 106 LINE",
"922 106 LINE",
"922 620 LINE",
"1343 620 LINE",
"1343 726 LINE",
"922 726 LINE",
"922 1178 LINE",
"1377 1178 LINE",
"1399 1284 LINE",
"679 1284 LINE SMOOTH",
"225 1284 OFFCURVE",
"120 1101 OFFCURVE",
"120 636 CURVE SMOOTH",
"120 229 OFFCURVE",
"196 0 OFFCURVE",
"668 0 CURVE SMOOTH"
);
},
{
closed = 1;
nodes = (
"248 1030 OFFCURVE",
"304 1178 OFFCURVE",
"679 1178 CURVE SMOOTH",
"794 1178 LINE",
"794 106 LINE",
"668 106 LINE SMOOTH",
"284 106 OFFCURVE",
"248 266 OFFCURVE",
"248 636 CURVE SMOOTH"
);
}
);
width = 1461;
},
{
anchors = (
{
name = bottom;
position = "{900, 0}";
},
{
name = top;
position = "{900, 1284}";
}
);
background = {
anchors = (
{
name = bottom;
position = "{897, 0}";
},
{
name = top_case;
position = "{902, 1284}";
}
);
paths = (
{
closed = 1;
nodes = (
"1675 0 LINE",
"1652 295 LINE",
"1164 295 LINE",
"1164 521 LINE",
"1615 521 LINE",
"1615 796 LINE",
"1164 796 LINE",
"1164 989 LINE",
"1636 989 LINE",
"1671 1284 LINE",
"660 1284 LINE SMOOTH",
"186 1284 OFFCURVE",
"41 1101 OFFCURVE",
"41 648 CURVE SMOOTH",
"41 191 OFFCURVE",
"186 0 OFFCURVE",
"649 0 CURVE SMOOTH"
);
},
{
closed = 1;
nodes = (
"418 285 OFFCURVE",
"369 356 OFFCURVE",
"369 645 CURVE SMOOTH",
"369 933 OFFCURVE",
"419 999 OFFCURVE",
"660 999 CURVE SMOOTH",
"836 999 LINE",
"836 285 LINE",
"649 285 LINE SMOOTH"
);
}
);
};
layerId = "D42B5605-DB46-4B3B-8EA0-4CE7066523CE";
paths = (
{
closed = 1;
nodes = (
"1490 0 LINE",
"1467 280 LINE",
"1049 280 LINE",
"1049 530 LINE",
"1430 530 LINE",
"1430 810 LINE",
"1049 810 LINE",
"1049 1004 LINE",
"1451 1004 LINE",
"1486 1284 LINE",
"636 1284 LINE SMOOTH",
"262 1284 OFFCURVE",
"77 1101 OFFCURVE",
"77 646 CURVE SMOOTH",
"77 191 OFFCURVE",
"262 0 OFFCURVE",
"625 0 CURVE SMOOTH"
);
},
{
closed = 1;
nodes = (
"415 913 OFFCURVE",
"495 1004 OFFCURVE",
"646 1004 CURVE SMOOTH",
"711 1004 LINE",
"711 280 LINE",
"635 280 LINE SMOOTH",
"494 280 OFFCURVE",
"415 379 OFFCURVE",
"415 646 CURVE SMOOTH"
);
}
);
width = 1551;
}
);
leftKerningGroup = RoundUPPER;
leftMetricsKey = "=O";
rightKerningGroup = E;
rightMetricsKey = "=E";
unicode = 0152;
},
{
color = 4;
glyphname = P;
layers = (
{
anchors = (
{
name = bottom;
position = "{502, 0}";
},
{
name = top;
position = "{502, 1284}";
}
);
background = {
anchors = (
{
name = bottom;
position = "{502, 0}";
},
{
name = top_case;
position = "{502, 1284}";
}
);
paths = (
{
closed = 1;
nodes = (
"288 0 LINE",
"288 536 LINE",
"465 536 LINE SMOOTH",
"730 536 OFFCURVE",
"928 597 OFFCURVE",
"928 905 CURVE SMOOTH",
"928 1200 OFFCURVE",
"768 1284 OFFCURVE",
"509 1284 CURVE SMOOTH",
"160 1284 LINE",
"160 0 LINE"
);
},
{
closed = 1;
nodes = (
"288 1228 LINE",
"243 1183 LINE",
"517 1183 LINE SMOOTH",
"705 1183 OFFCURVE",
"800 1127 OFFCURVE",
"800 903 CURVE SMOOTH",
"800 665 OFFCURVE",
"654 637 OFFCURVE",
"442 637 CURVE SMOOTH",
"243 637 LINE",
"288 592 LINE"
);
}
);
};
layerId = "1D628CB9-BBF5-410A-9D74-9E6094BFE839";
paths = (
{
closed = 1;
nodes = (
"288 0 LINE",
"288 536 LINE",
"455 536 LINE SMOOTH",
"720 536 OFFCURVE",
"928 597 OFFCURVE",
"928 905 CURVE SMOOTH",
"928 1200 OFFCURVE",
"768 1284 OFFCURVE",
"509 1284 CURVE SMOOTH",
"160 1284 LINE",
"160 0 LINE"
);
},
{
closed = 1;
nodes = (
"288 1228 LINE",
"243 1178 LINE",
"517 1178 LINE SMOOTH",
"705 1178 OFFCURVE",
"800 1127 OFFCURVE",
"800 903 CURVE SMOOTH",
"800 665 OFFCURVE",
"654 642 OFFCURVE",
"442 642 CURVE SMOOTH",
"243 642 LINE",
"288 592 LINE"
);
}
);
width = 1003;
},
{
anchors = (
{
name = bottom;
position = "{574, 0}";
},
{
name = top;
position = "{574, 1284}";
}
);
background = {
anchors = (
{
name = bottom;
position = "{754, 0}";
},
{
name = top_case;
position = "{574, 1334}";
}
);
paths = (
{
closed = 1;
nodes = (
"458 0 LINE",
"458 426 LINE",
"575 426 LINE SMOOTH",
"888 426 OFFCURVE",
"1080 507 OFFCURVE",
"1080 855 CURVE SMOOTH",
"1080 1170 OFFCURVE",
"916 1284 OFFCURVE",
"656 1284 CURVE SMOOTH",
"130 1284 LINE",
"130 0 LINE"
);
},
{
closed = 1;
nodes = (
"458 1223 LINE",
"413 1009 LINE",
"604 1009 LINE SMOOTH",
"686 1009 OFFCURVE",
"752 969 OFFCURVE",
"752 861 CURVE SMOOTH",
"752 726 OFFCURVE",
"683 701 OFFCURVE",
"547 701 CURVE SMOOTH",
"413 701 LINE",
"458 487 LINE"
);
}
);
};
layerId = "D42B5605-DB46-4B3B-8EA0-4CE7066523CE";
paths = (
{
closed = 1;
nodes = (
"468 0 LINE",
"468 426 LINE",
"575 426 LINE SMOOTH",
"888 426 OFFCURVE",
"1085 547 OFFCURVE",
"1085 855 CURVE SMOOTH",
"1085 1170 OFFCURVE",
"896 1284 OFFCURVE",
"626 1284 CURVE SMOOTH",
"130 1284 LINE",
"130 0 LINE"
);
},
{
closed = 1;
nodes = (
"468 1223 LINE",
"413 1009 LINE",
"604 1009 LINE SMOOTH",
"686 1009 OFFCURVE",
"752 969 OFFCURVE",
"752 861 CURVE SMOOTH",
"752 726 OFFCURVE",
"683 701 OFFCURVE",
"547 701 CURVE SMOOTH",
"413 701 LINE",
"468 487 LINE"
);
}
);
width = 1134;
}
);
leftKerningGroup = StraightUPPER;
leftMetricsKey = "=H";
rightKerningGroup = P;
unicode = 0050;
},
{
color = 4;
glyphname = Thorn;
layers = (
{
background = {
paths = (
{
closed = 1;
nodes = (
"288 -232 LINE",
"288 304 LINE",
"455 304 LINE SMOOTH",
"720 304 OFFCURVE",
"928 365 OFFCURVE",
"928 673 CURVE SMOOTH",
"928 968 OFFCURVE",
"768 1052 OFFCURVE",
"509 1052 CURVE SMOOTH",
"160 1052 LINE",
"160 -232 LINE"
);
},
{
closed = 1;
nodes = (
"288 996 LINE",
"243 951 LINE",
"517 951 LINE SMOOTH",
"705 951 OFFCURVE",
"800 895 OFFCURVE",
"800 671 CURVE SMOOTH",
"800 433 OFFCURVE",
"654 405 OFFCURVE",
"442 405 CURVE SMOOTH",
"243 405 LINE",
"288 360 LINE"
);
}
);
};
layerId = "1D628CB9-BBF5-410A-9D74-9E6094BFE839";
paths = (
{
closed = 1;
nodes = (
"288 0 LINE",
"288 354 LINE",
"243 286 LINE",
"455 286 LINE SMOOTH",
"720 286 OFFCURVE",
"928 347 OFFCURVE",
"928 655 CURVE SMOOTH",
"928 950 OFFCURVE",
"768 1034 OFFCURVE",
"509 1034 CURVE SMOOTH",
"244 1034 LINE",
"289 989 LINE",
"289 1284 LINE",
"160 1284 LINE",
"160 0 LINE"
);
},
{
closed = 1;
nodes = (
"288 979 LINE",
"243 933 LINE",
"517 933 LINE SMOOTH",
"705 933 OFFCURVE",
"800 877 OFFCURVE",
"800 653 CURVE SMOOTH",
"800 415 OFFCURVE",
"654 387 OFFCURVE",
"442 387 CURVE SMOOTH",
"243 387 LINE",
"288 368 LINE"
);
}
);
width = 1003;
},
{
background = {
paths = (
{
closed = 1;
nodes = (
"468 -175 LINE",
"468 251 LINE",
"575 251 LINE SMOOTH",
"888 251 OFFCURVE",
"1085 372 OFFCURVE",
"1085 680 CURVE SMOOTH",
"1085 995 OFFCURVE",
"896 1109 OFFCURVE",
"626 1109 CURVE SMOOTH",
"130 1109 LINE",
"130 -175 LINE"
);
},
{
closed = 1;
nodes = (
"468 1048 LINE",
"413 834 LINE",
"604 834 LINE SMOOTH",
"686 834 OFFCURVE",
"752 794 OFFCURVE",
"752 686 CURVE SMOOTH",
"752 551 OFFCURVE",
"683 526 OFFCURVE",
"547 526 CURVE SMOOTH",
"413 526 LINE",
"468 312 LINE"
);
}
);
};
guideLines = (
{
position = "{717, 697}";
}
);
layerId = "D42B5605-DB46-4B3B-8EA0-4CE7066523CE";
paths = (
{
closed = 1;
nodes = (
"468 0 LINE",
"468 382 LINE",
"413 231 LINE",
"575 231 LINE SMOOTH",
"888 231 OFFCURVE",
"1085 328 OFFCURVE",
"1085 660 CURVE SMOOTH",
"1085 975 OFFCURVE",
"896 1089 OFFCURVE",
"626 1089 CURVE SMOOTH",
"414 1089 LINE",
"468 947 LINE",
"468 1284 LINE",
"130 1284 LINE",
"130 0 LINE"
);
},
{
closed = 1;
nodes = (
"468 937 LINE",
"413 814 LINE",
"604 814 LINE SMOOTH",
"686 814 OFFCURVE",
"752 774 OFFCURVE",
"752 666 CURVE SMOOTH",
"752 531 OFFCURVE",
"683 506 OFFCURVE",
"547 506 CURVE SMOOTH",
"413 506 LINE",
"468 396 LINE"
);
}
);
width = 1134;
}
);
leftKerningGroup = StraightUPPER;
leftMetricsKey = H;
rightKerningGroup = Thorn;
rightMetricsKey = P;
unicode = 00DE;
},
{
color = 4;
glyphname = Q;
layers = (
{
anchors = (
{
name = bottom;
position = "{570, 0}";
},
{
name = top;
position = "{570, 1284}";
}
);
background = {
anchors = (
{
name = bottom;
position = "{570, 0}";
},
{
name = top;
position = "{570, 1284}";
}
);
paths = (
{
closed = 1;
nodes = (
"929 -5 OFFCURVE",
"1016 237 OFFCURVE",
"1016 653 CURVE SMOOTH",
"1016 1070 OFFCURVE",
"917 1306 OFFCURVE",
"568 1306 CURVE SMOOTH",
"219 1306 OFFCURVE",
"120 1070 OFFCURVE",
"120 653 CURVE SMOOTH",
"120 237 OFFCURVE",
"207 -5 OFFCURVE",
"568 -5 CURVE SMOOTH"
);
},
{
closed = 1;
nodes = (
"1010 -94 LINE",
"888 55 OFFCURVE",
"780 206 OFFCURVE",
"684 361 CURVE",
"600 295 LINE",
"696 141 OFFCURVE",
"804 -11 OFFCURVE",
"926 -159 CURVE"
);
},
{
closed = 1;
nodes = (
"318 101 OFFCURVE",
"248 269 OFFCURVE",
"248 650 CURVE SMOOTH",
"248 1035 OFFCURVE",
"321 1200 OFFCURVE",
"568 1200 CURVE SMOOTH",
"815 1200 OFFCURVE",
"888 1035 OFFCURVE",
"888 650 CURVE SMOOTH",
"888 269 OFFCURVE",
"818 101 OFFCURVE",
"568 101 CURVE SMOOTH"
);
}
);
};
layerId = "1D628CB9-BBF5-410A-9D74-9E6094BFE839";
paths = (
{
closed = 1;
nodes = (
"929 -15 OFFCURVE",
"1016 236 OFFCURVE",
"1016 652 CURVE SMOOTH",
"1016 1069 OFFCURVE",
"917 1303 OFFCURVE",
"568 1303 CURVE SMOOTH",
"219 1303 OFFCURVE",
"120 1069 OFFCURVE",
"120 652 CURVE SMOOTH",
"120 236 OFFCURVE",
"207 -15 OFFCURVE",
"568 -15 CURVE SMOOTH"
);
},
{
closed = 1;
nodes = (
"1010 -94 LINE",
"888 55 OFFCURVE",
"780 206 OFFCURVE",
"684 361 CURVE",
"600 295 LINE",
"696 141 OFFCURVE",
"804 -11 OFFCURVE",
"926 -159 CURVE"
);
},
{
closed = 1;
nodes = (
"318 91 OFFCURVE",
"248 268 OFFCURVE",
"248 649 CURVE SMOOTH",
"248 1034 OFFCURVE",
"321 1197 OFFCURVE",
"568 1197 CURVE SMOOTH",
"815 1197 OFFCURVE",
"888 1034 OFFCURVE",
"888 649 CURVE SMOOTH",
"888 268 OFFCURVE",
"818 91 OFFCURVE",
"568 91 CURVE SMOOTH"
);
}
);
width = 1136;
},
{
anchors = (
{
name = bottom;
position = "{610, 0}";
},
{
name = top;
position = "{610, 1284}";
}
);
background = {
anchors = (
{
name = bottom;
position = "{610, 0}";
},
{
name = top;
position = "{610, 1284}";
}
);
paths = (
{
closed = 1;
nodes = (
"941 -40 OFFCURVE",
"1143 142 OFFCURVE",
"1143 648 CURVE SMOOTH",
"1143 1165 OFFCURVE",
"949 1331 OFFCURVE",
"610 1331 CURVE SMOOTH",
"271 1331 OFFCURVE",
"77 1165 OFFCURVE",
"77 648 CURVE SMOOTH",
"77 132 OFFCURVE",
"259 -40 OFFCURVE",
"610 -40 CURVE SMOOTH"
);
},
{
closed = 1;
nodes = (
"1132 -52 LINE",
"973 123 OFFCURVE",
"807 371 OFFCURVE",
"686 564 CURVE",
"484 427 LINE",
"588 263 OFFCURVE",
"791 -37 OFFCURVE",
"941 -211 CURVE"
);
},
{
closed = 1;
nodes = (
"460 242 OFFCURVE",
"405 334 OFFCURVE",
"405 645 CURVE SMOOTH",
"405 961 OFFCURVE",
"463 1046 OFFCURVE",
"610 1046 CURVE SMOOTH",
"757 1046 OFFCURVE",
"815 961 OFFCURVE",
"815 635 CURVE SMOOTH",
"815 304 OFFCURVE",
"780 242 OFFCURVE",
"610 242 CURVE SMOOTH"
);
}
);
};
layerId = "D42B5605-DB46-4B3B-8EA0-4CE7066523CE";
paths = (
{
closed = 1;
nodes = (
"961 -20 OFFCURVE",
"1143 147 OFFCURVE",
"1143 648 CURVE SMOOTH",
"1143 1150 OFFCURVE",
"949 1311 OFFCURVE",
"610 1311 CURVE SMOOTH",
"271 1311 OFFCURVE",
"77 1150 OFFCURVE",
"77 648 CURVE SMOOTH",
"77 147 OFFCURVE",
"259 -20 OFFCURVE",
"610 -20 CURVE SMOOTH"
);
},
{
closed = 1;
nodes = (
"1132 -52 LINE",
"973 123 OFFCURVE",
"807 371 OFFCURVE",
"686 564 CURVE",
"484 427 LINE",
"588 263 OFFCURVE",
"791 -37 OFFCURVE",
"941 -211 CURVE"
);
},
{
closed = 1;
nodes = (
"467 242 OFFCURVE",
"415 329 OFFCURVE",
"415 632 CURVE SMOOTH",
"415 941 OFFCURVE",
"470 1024 OFFCURVE",
"610 1024 CURVE SMOOTH",
"750 1024 OFFCURVE",
"805 941 OFFCURVE",
"805 632 CURVE SMOOTH",
"805 329 OFFCURVE",
"753 242 OFFCURVE",
"610 242 CURVE SMOOTH"
);
}
);
width = 1220;
}
);
leftKerningGroup = RoundUPPER;
leftMetricsKey = "=O";
rightKerningGroup = RoundUPPER;
rightMetricsKey = "=O";
unicode = 0051;
},
{
color = 4;
glyphname = R;
layers = (
{
anchors = (
{
name = bottom;
position = "{508, 0}";
},
{
name = top;
position = "{508, 1284}";
}
);
background = {
anchors = (
{
name = bottom;
position = "{508, 0}";
},
{
name = top;
position = "{508, 1284}";
},
{
name = top_case;
position = "{508, 1284}";
}
);
paths = (
{
closed = 1;
nodes = (
"288 0 LINE",
"288 536 LINE",
"455 536 LINE SMOOTH",
"720 536 OFFCURVE",
"928 597 OFFCURVE",
"928 905 CURVE SMOOTH",
"928 1200 OFFCURVE",
"768 1284 OFFCURVE",
"509 1284 CURVE SMOOTH",
"160 1284 LINE",
"160 0 LINE"
);
},
{
closed = 1;
nodes = (
"288 1228 LINE",
"243 1178 LINE",
"517 1178 LINE SMOOTH",
"705 1178 OFFCURVE",
"800 1127 OFFCURVE",
"800 903 CURVE SMOOTH",
"800 665 OFFCURVE",
"654 642 OFFCURVE",
"442 642 CURVE SMOOTH",
"243 642 LINE",
"288 592 LINE"
);
}
);
};
guideLines = (
{
position = "{781, 9}";
},
{
angle = 190.3049;
position = "{939, -2}";
}
);
layerId = "1D628CB9-BBF5-410A-9D74-9E6094BFE839";
paths = (
{
closed = 1;
nodes = (
"995 10 LINE",
"883 202 OFFCURVE",
"767 425 OFFCURVE",
"667 617 CURVE",
"660 556 LINE",
"817 587 OFFCURVE",
"928 692 OFFCURVE",
"928 905 CURVE SMOOTH",
"928 1200 OFFCURVE",
"768 1284 OFFCURVE",
"509 1284 CURVE SMOOTH",
"160 1284 LINE",
"160 0 LINE",
"288 0 LINE",
"288 612 LINE",
"288 536 LINE",
"455 536 LINE SMOOTH",
"507 536 OFFCURVE",
"567 540 OFFCURVE",
"618 547 CURVE",
"552 597 LINE",
"639 408 OFFCURVE",
"776 139 OFFCURVE",
"865 -14 CURVE"
);
},
{
closed = 1;
nodes = (
"288 1223 LINE",
"243 1178 LINE",
"517 1178 LINE SMOOTH",
"705 1178 OFFCURVE",
"800 1127 OFFCURVE",
"800 903 CURVE SMOOTH",
"800 665 OFFCURVE",
"654 642 OFFCURVE",
"442 642 CURVE SMOOTH",
"243 642 LINE",
"288 628 LINE"
);
}
);
width = 1063;
},
{
anchors = (
{
name = bottom;
position = "{614, 0}";
},
{
name = top;
position = "{584, 1284}";
}
);
background = {
anchors = (
{
name = bottom;
position = "{614, -50}";
},
{
name = top;
position = "{584, 1335}";
},
{
name = top_case;
position = "{584, 1334}";
}
);
paths = (
{
closed = 1;
nodes = (
"468 0 LINE",
"468 426 LINE",
"575 426 LINE SMOOTH",
"888 426 OFFCURVE",
"1085 547 OFFCURVE",
"1085 855 CURVE SMOOTH",
"1085 1170 OFFCURVE",
"896 1284 OFFCURVE",
"626 1284 CURVE SMOOTH",
"130 1284 LINE",
"130 0 LINE"
);
},
{
closed = 1;
nodes = (
"468 1223 LINE",
"413 1009 LINE",
"604 1009 LINE SMOOTH",
"686 1009 OFFCURVE",
"752 969 OFFCURVE",
"752 861 CURVE SMOOTH",
"752 726 OFFCURVE",
"683 701 OFFCURVE",
"547 701 CURVE SMOOTH",
"413 701 LINE",
"468 487 LINE"
);
}
);
};
guideLines = (
{
position = "{720, -30}";
},
{
angle = 9.4623;
position = "{982, -3}";
}
);
layerId = "D42B5605-DB46-4B3B-8EA0-4CE7066523CE";
paths = (
{
closed = 1;
nodes = (
"1147 25 LINE",
"1076 146 OFFCURVE",
"930 417 OFFCURVE",
"881 526 CURVE",
"833 465 LINE",
"995 524 OFFCURVE",
"1085 646 OFFCURVE",
"1085 855 CURVE SMOOTH",
"1085 1170 OFFCURVE",
"896 1284 OFFCURVE",
"626 1284 CURVE SMOOTH",
"130 1284 LINE",
"130 0 LINE",
"468 0 LINE",
"468 450 LINE",
"363 426 LINE",
"575 426 LINE SMOOTH",
"612 426 OFFCURVE",
"684 430 OFFCURVE",
"721 436 CURVE",
"578 458 LINE",
"641 305 OFFCURVE",
"751 81 OFFCURVE",
"812 -31 CURVE"
);
},
{
closed = 1;
nodes = (
"468 1094 LINE",
"413 1009 LINE",
"604 1009 LINE SMOOTH",
"686 1009 OFFCURVE",
"752 969 OFFCURVE",
"752 861 CURVE SMOOTH",
"752 726 OFFCURVE",
"683 701 OFFCURVE",
"547 701 CURVE SMOOTH",
"413 701 LINE",
"468 626 LINE"
);
}
);
width = 1178;
}
);
leftKerningGroup = StraightUPPER;
leftMetricsKey = "=H";
rightKerningGroup = R;
unicode = 0052;
},
{
color = 4;
glyphname = S;
layers = (
{
anchors = (
{
name = bottom;
position = "{456, 0}";
},
{
name = cedilla;
position = "{431, 0}";
},
{
name = top;
position = "{478, 1284}";
}
);
background = {
anchors = (
{
name = bottom;
position = "{456, 0}";
},
{
name = cedilla;
position = "{431, 0}";
},
{
name = top_case;
position = "{478, 1284}";
}
);
paths = (
{
closed = 1;
nodes = (
"695 -10 OFFCURVE",
"855 117 OFFCURVE",
"855 353 CURVE SMOOTH",
"855 603 OFFCURVE",
"676 661 OFFCURVE",
"513 720 CURVE SMOOTH",
"399 761 LINE SMOOTH",
"257 812 OFFCURVE",
"215 867 OFFCURVE",
"215 972 CURVE SMOOTH",
"215 1143 OFFCURVE",
"316 1195 OFFCURVE",
"496 1195 CURVE SMOOTH",
"623 1195 OFFCURVE",
"741 1158 OFFCURVE",
"800 1136 CURVE",
"824 1239 LINE",
"715 1284 OFFCURVE",
"597 1301 OFFCURVE",
"479 1301 CURVE SMOOTH",
"264 1301 OFFCURVE",
"87 1213 OFFCURVE",
"87 969 CURVE SMOOTH",
"87 786 OFFCURVE",
"191 700 OFFCURVE",
"358 644 CURVE SMOOTH",
"481 603 LINE SMOOTH",
"642 549 OFFCURVE",
"727 495 OFFCURVE",
"727 355 CURVE SMOOTH",
"727 175 OFFCURVE",
"612 96 OFFCURVE",
"453 96 CURVE SMOOTH",
"292 96 OFFCURVE",
"191 140 OFFCURVE",
"115 173 CURVE",
"87 68 LINE",
"198 18 OFFCURVE",
"327 -10 OFFCURVE",
"453 -10 CURVE SMOOTH"
);
}
);
};
layerId = "1D628CB9-BBF5-410A-9D74-9E6094BFE839";
paths = (
{
closed = 1;
nodes = (
"703 -10 OFFCURVE",
"855 126 OFFCURVE",
"855 353 CURVE SMOOTH",
"855 585 OFFCURVE",
"713 647 OFFCURVE",
"513 720 CURVE SMOOTH",
"399 761 LINE SMOOTH",
"262 810 OFFCURVE",
"215 863 OFFCURVE",
"215 972 CURVE SMOOTH",
"215 1129 OFFCURVE",
"308 1195 OFFCURVE",
"496 1195 CURVE SMOOTH",
"588 1195 OFFCURVE",
"703 1173 OFFCURVE",
"800 1136 CURVE",
"824 1239 LINE",
"723 1280 OFFCURVE",
"618 1301 OFFCURVE",
"489 1301 CURVE SMOOTH",
"237 1301 OFFCURVE",
"87 1182 OFFCURVE",
"87 969 CURVE SMOOTH",
"87 806 OFFCURVE",
"168 707 OFFCURVE",
"358 644 CURVE SMOOTH",
"481 603 LINE SMOOTH",
"666 541 OFFCURVE",
"727 479 OFFCURVE",
"727 355 CURVE SMOOTH",
"727 190 OFFCURVE",
"628 96 OFFCURVE",
"453 96 CURVE SMOOTH",
"292 96 OFFCURVE",
"191 140 OFFCURVE",
"120 173 CURVE",
"87 68 LINE",
"197 18 OFFCURVE",
"324 -10 OFFCURVE",
"449 -10 CURVE SMOOTH"
);
}
);
width = 937;
},
{
anchors = (
{
name = bottom;
position = "{507, 0}";
},
{
name = cedilla;
position = "{465, 0}";
},
{
name = top;
position = "{551, 1284}";
}
);
background = {
anchors = (
{
name = bottom;
position = "{527, -50}";
},
{
name = cedilla;
position = "{465, -30}";
},
{
name = top_case;
position = "{527, 1334}";
}
);
paths = (
{
closed = 1;
nodes = (
"780 -37 OFFCURVE",
"952 66 OFFCURVE",
"952 369 CURVE SMOOTH",
"952 573 OFFCURVE",
"864 705 OFFCURVE",
"623 788 CURVE SMOOTH",
"509 827 LINE SMOOTH",
"424 856 OFFCURVE",
"389 887 OFFCURVE",
"389 939 CURVE SMOOTH",
"389 1010 OFFCURVE",
"417 1043 OFFCURVE",
"544 1043 CURVE SMOOTH",
"626 1043 OFFCURVE",
"734 1028 OFFCURVE",
"851 988 CURVE",
"918 1263 LINE",
"766 1323 OFFCURVE",
"586 1328 OFFCURVE",
"502 1328 CURVE SMOOTH",
"227 1328 OFFCURVE",
"61 1205 OFFCURVE",
"61 944 CURVE SMOOTH",
"61 765 OFFCURVE",
"112 627 OFFCURVE",
"357 549 CURVE SMOOTH",
"458 517 LINE SMOOTH",
"566 483 OFFCURVE",
"624 443 OFFCURVE",
"624 369 CURVE SMOOTH",
"624 297 OFFCURVE",
"594 248 OFFCURVE",
"487 248 CURVE SMOOTH",
"357 248 OFFCURVE",
"218 291 OFFCURVE",
"124 333 CURVE",
"51 61 LINE",
"174 7 OFFCURVE",
"316 -37 OFFCURVE",
"520 -37 CURVE SMOOTH"
);
}
);
};
guideLines = (
{
angle = 251.7901;
position = "{2939, 1360}";
},
{
angle = 270;
position = "{512, 985}";
}
);
layerId = "D42B5605-DB46-4B3B-8EA0-4CE7066523CE";
paths = (
{
closed = 1;
nodes = (
"811 -14 OFFCURVE",
"953 149 OFFCURVE",
"953 405 CURVE SMOOTH",
"953 594 OFFCURVE",
"853 717 OFFCURVE",
"659 774 CURVE SMOOTH",
"486 825 LINE SMOOTH",
"418 845 OFFCURVE",
"388 875 OFFCURVE",
"388 923 CURVE SMOOTH",
"388 980 OFFCURVE",
"429 1030 OFFCURVE",
"554 1030 CURVE SMOOTH",
"647 1030 OFFCURVE",
"745 1012 OFFCURVE",
"851 967 CURVE",
"908 1234 LINE",
"800 1284 OFFCURVE",
"665 1307 OFFCURVE",
"552 1307 CURVE SMOOTH",
"239 1307 OFFCURVE",
"61 1156 OFFCURVE",
"61 905 CURVE SMOOTH",
"61 717 OFFCURVE",
"182 588 OFFCURVE",
"357 543 CURVE SMOOTH",
"512 503 LINE SMOOTH",
"586 484 OFFCURVE",
"624 449 OFFCURVE",
"624 383 CURVE SMOOTH",
"624 304 OFFCURVE",
"571 264 OFFCURVE",
"467 264 CURVE SMOOTH",
"359 264 OFFCURVE",
"243 294 OFFCURVE",
"124 345 CURVE",
"51 81 LINE",
"204 16 OFFCURVE",
"349 -14 OFFCURVE",
"480 -14 CURVE SMOOTH"
);
}
);
width = 994;
}
);
leftKerningGroup = S;
rightKerningGroup = S;
unicode = 0053;
},
{
color = 4;
glyphname = Germandbls;
layers = (
{
background = {
paths = (
{
closed = 1;
nodes = (
"902 -10 OFFCURVE",
"1057 130 OFFCURVE",
"1057 347 CURVE SMOOTH",
"1057 592 OFFCURVE",
"856 735 OFFCURVE",
"556 735 CURVE",
"564 680 LINE",
"967 1080 LINE",
"967 1182 LINE",
"868 1253 OFFCURVE",
"734 1301 OFFCURVE",
"598 1301 CURVE SMOOTH",
"301 1301 OFFCURVE",
"160 1142 OFFCURVE",
"160 822 CURVE SMOOTH",
"160 0 LINE",
"288 0 LINE",
"288 811 LINE SMOOTH",
"288 1071 OFFCURVE",
"374 1195 OFFCURVE",
"594 1195 CURVE SMOOTH",
"709 1195 OFFCURVE",
"805 1161 OFFCURVE",
"888 1109 CURVE",
"888 1161 LINE",
"468 735 LINE",
"468 624 LINE",
"547 624 LINE SMOOTH",
"788 624 OFFCURVE",
"929 531 OFFCURVE",
"929 347 CURVE SMOOTH",
"929 189 OFFCURVE",
"835 95 OFFCURVE",
"678 95 CURVE SMOOTH",
"598 95 OFFCURVE",
"513 122 OFFCURVE",
"445 156 CURVE",
"407 66 LINE",
"492 18 OFFCURVE",
"591 -10 OFFCURVE",
"690 -10 CURVE SMOOTH"
);
}
);
};
layerId = "1D628CB9-BBF5-410A-9D74-9E6094BFE839";
paths = (
{
closed = 1;
nodes = (
"902 -10 OFFCURVE",
"1057 130 OFFCURVE",
"1057 347 CURVE SMOOTH",
"1057 592 OFFCURVE",
"856 729 OFFCURVE",
"576 729 CURVE",
"564 690 LINE",
"967 1080 LINE",
"967 1182 LINE",
"868 1253 OFFCURVE",
"734 1301 OFFCURVE",
"598 1301 CURVE SMOOTH",
"301 1301 OFFCURVE",
"160 1142 OFFCURVE",
"160 822 CURVE SMOOTH",
"160 0 LINE",
"288 0 LINE",
"288 811 LINE SMOOTH",
"288 1071 OFFCURVE",
"374 1195 OFFCURVE",
"594 1195 CURVE SMOOTH",
"709 1195 OFFCURVE",
"805 1161 OFFCURVE",
"888 1109 CURVE",
"888 1141 LINE",
"468 735 LINE",
"468 624 LINE",
"547 624 LINE SMOOTH",
"788 624 OFFCURVE",
"929 531 OFFCURVE",
"929 347 CURVE SMOOTH",
"929 189 OFFCURVE",
"835 95 OFFCURVE",
"678 95 CURVE SMOOTH",
"598 95 OFFCURVE",
"513 122 OFFCURVE",
"445 156 CURVE",
"407 66 LINE",
"492 18 OFFCURVE",
"591 -10 OFFCURVE",
"690 -10 CURVE SMOOTH"
);
}
);
width = 1112;
},
{
background = {
paths = (
{
closed = 1;
nodes = (
"1203 -10 OFFCURVE",
"1347 133 OFFCURVE",
"1347 357 CURVE SMOOTH",
"1347 654 OFFCURVE",
"1139 755 OFFCURVE",
"696 755 CURVE",
"839 599 LINE",
"1257 910 LINE",
"1257 1182 LINE",
"1070 1273 OFFCURVE",
"896 1331 OFFCURVE",
"658 1331 CURVE SMOOTH",
"361 1331 OFFCURVE",
"130 1175 OFFCURVE",
"130 822 CURVE SMOOTH",
"130 0 LINE",
"458 0 LINE",
"458 791 LINE SMOOTH",
"458 957 OFFCURVE",
"514 1046 OFFCURVE",
"710 1046 CURVE SMOOTH",
"825 1046 OFFCURVE",
"895 1012 OFFCURVE",
"978 960 CURVE",
"978 1091 LINE",
"628 765 LINE",
"628 524 LINE",
"732 514 LINE SMOOTH",
"907 497 OFFCURVE",
"1019 481 OFFCURVE",
"1019 377 CURVE SMOOTH",
"1019 292 OFFCURVE",
"952 275 OFFCURVE",
"865 275 CURVE SMOOTH",
"760 275 OFFCURVE",
"653 302 OFFCURVE",
"585 336 CURVE",
"547 66 LINE",
"632 18 OFFCURVE",
"819 -10 OFFCURVE",
"918 -10 CURVE SMOOTH"
);
}
);
};
layerId = "D42B5605-DB46-4B3B-8EA0-4CE7066523CE";
paths = (
{
closed = 1;
nodes = (
"1134 -10 OFFCURVE",
"1304 123 OFFCURVE",
"1304 357 CURVE SMOOTH",
"1304 641 OFFCURVE",
"1124 755 OFFCURVE",
"676 755 CURVE",
"814 599 LINE",
"1217 884 LINE",
"1217 1156 LINE",
"1026 1262 OFFCURVE",
"879 1305 OFFCURVE",
"679 1305 CURVE SMOOTH",
"358 1305 OFFCURVE",
"130 1126 OFFCURVE",
"130 782 CURVE SMOOTH",
"130 0 LINE",
"468 0 LINE",
"468 783 LINE SMOOTH",
"468 933 OFFCURVE",
"539 1020 OFFCURVE",
"710 1020 CURVE SMOOTH",
"803 1020 OFFCURVE",
"889 998 OFFCURVE",
"988 934 CURVE",
"948 1005 LINE",
"611 765 LINE",
"611 524 LINE",
"731 524 LINE SMOOTH",
"892 524 OFFCURVE",
"976 474 OFFCURVE",
"976 387 CURVE SMOOTH",
"976 313 OFFCURVE",
"922 275 OFFCURVE",
"830 275 CURVE SMOOTH",
"739 275 OFFCURVE",
"664 299 OFFCURVE",
"609 329 CURVE",
"532 66 LINE",
"601 26 OFFCURVE",
"751 -10 OFFCURVE",
"871 -10 CURVE SMOOTH"
);
}
);
width = 1386;
}
);
leftKerningGroup = StraightUPPER;
leftMetricsKey = H;
rightKerningGroup = Germandbls;
unicode = 1E9E;
},
{
color = 4;
glyphname = Schwa;
layers = (
{
background = {
paths = (
{
closed = 1;
nodes = (
"419 1301 OFFCURVE",
"315 1283 OFFCURVE",
"198 1227 CURVE",
"238 1130 LINE",
"341 1179 OFFCURVE",
"428 1195 OFFCURVE",
"515 1195 CURVE SMOOTH",
"730 1195 OFFCURVE",
"875 1049 OFFCURVE",
"875 653 CURVE SMOOTH",
"875 199 OFFCURVE",
"750 96 OFFCURVE",
"524 96 CURVE SMOOTH",
"442 96 OFFCURVE",
"365 116 OFFCURVE",
"311 145 CURVE",
"334 89 LINE",
"334 342 LINE",
"225 332 LINE",
"225 65 LINE",
"335 11 OFFCURVE",
"436 -10 OFFCURVE",
"535 -10 CURVE SMOOTH",
"851 -10 OFFCURVE",
"1003 177 OFFCURVE",
"1003 650 CURVE SMOOTH",
"1003 1112 OFFCURVE",
"802 1301 OFFCURVE",
"523 1301 CURVE SMOOTH"
);
}
);
};
layerId = "1D628CB9-BBF5-410A-9D74-9E6094BFE839";
paths = (
{
closed = 1;
nodes = (
"916 -15 OFFCURVE",
"1003 236 OFFCURVE",
"1003 652 CURVE SMOOTH",
"1003 1112 OFFCURVE",
"801 1301 OFFCURVE",
"523 1301 CURVE SMOOTH",
"389 1301 OFFCURVE",
"239 1264 OFFCURVE",
"124 1187 CURVE",
"174 1096 LINE",
"298 1168 OFFCURVE",
"397 1195 OFFCURVE",
"515 1195 CURVE SMOOTH",
"730 1195 OFFCURVE",
"875 1049 OFFCURVE",
"876 639 CURVE",
"920 684 LINE",
"128 684 LINE",
"123 625 OFFCURVE",
"120 569 OFFCURVE",
"120 517 CURVE SMOOTH",
"120 174 OFFCURVE",
"242 -15 OFFCURVE",
"555 -15 CURVE SMOOTH"
);
},
{
closed = 1;
nodes = (
"343 91 OFFCURVE",
"246 219 OFFCURVE",
"246 490 CURVE SMOOTH",
"246 538 OFFCURVE",
"249 591 OFFCURVE",
"255 649 CURVE",
"183 578 LINE",
"920 578 LINE",
"875 631 LINE",
"875 268 OFFCURVE",
"805 91 OFFCURVE",
"555 91 CURVE SMOOTH"
);
}
);
width = 1123;
},
{
associatedMasterId = "1D628CB9-BBF5-410A-9D74-9E6094BFE839";
layerId = "43E52C2D-3EEE-49AE-BEA2-65001AC44158";
name = "Regular Jul 6 16, 10:41";
paths = (
{
closed = 1;
nodes = (
"542 1200 CURVE SMOOTH",
"412 1200 OFFCURVE",
"298 1173 OFFCURVE",
"176 1096 CURVE",
"126 1197 LINE",
"251 1274 OFFCURVE",
"409 1308 OFFCURVE",
"533 1308 CURVE SMOOTH",
"869 1308 OFFCURVE",
"1087 1120 OFFCURVE",
"1087 649 CURVE SMOOTH",
"1087 195 OFFCURVE",
"870 -10 OFFCURVE",
"566 -10 CURVE SMOOTH",
"276 -10 OFFCURVE",
"102 198 OFFCURVE",
"102 507 CURVE SMOOTH",
"102 547 OFFCURVE",
"106 607 OFFCURVE",
"112 684 CURVE",
"920 684 LINE",
"915 1109 OFFCURVE",
"733 1200 OFFCURVE"
);
},
{
closed = 1;
nodes = (
"565 127 CURVE SMOOTH",
"791 127 OFFCURVE",
"900 296 OFFCURVE",
"920 566 CURVE",
"258 566 LINE",
"258 501 LINE SMOOTH",
"258 274 OFFCURVE",
"375 127 OFFCURVE"
);
}
);
width = 1203;
},
{
background = {
paths = (
{
closed = 1;
nodes = (
"435 1311 OFFCURVE",
"292 1273 OFFCURVE",
"170 1188 CURVE",
"281 934 LINE",
"387 1005 OFFCURVE",
"477 1022 OFFCURVE",
"557 1022 CURVE SMOOTH",
"727 1022 OFFCURVE",
"790 938 OFFCURVE",
"790 652 CURVE SMOOTH",
"790 345 OFFCURVE",
"724 265 OFFCURVE",
"582 265 CURVE SMOOTH",
"486 265 OFFCURVE",
"438 294 OFFCURVE",
"380 332 CURVE",
"493 74 LINE",
"493 490 LINE",
"207 462 LINE",
"207 80 LINE",
"363 -2 OFFCURVE",
"467 -22 OFFCURVE",
"606 -22 CURVE SMOOTH",
"928 -22 OFFCURVE",
"1128 130 OFFCURVE",
"1128 649 CURVE SMOOTH",
"1128 1156 OFFCURVE",
"895 1311 OFFCURVE",
"602 1311 CURVE SMOOTH"
);
}
);
};
layerId = "D42B5605-DB46-4B3B-8EA0-4CE7066523CE";
paths = (
{
closed = 1;
nodes = (
"947 -20 OFFCURVE",
"1129 187 OFFCURVE",
"1129 648 CURVE SMOOTH",
"1129 1156 OFFCURVE",
"895 1311 OFFCURVE",
"582 1311 CURVE SMOOTH",
"416 1311 OFFCURVE",
"232 1262 OFFCURVE",
"84 1159 CURVE",
"212 910 LINE",
"305 973 OFFCURVE",
"423 1022 OFFCURVE",
"537 1022 CURVE SMOOTH",
"717 1022 OFFCURVE",
"789 938 OFFCURVE",
"789 690 CURVE",
"918 759 LINE",
"83 759 LINE",
"79 707 OFFCURVE",
"77 657 OFFCURVE",
"77 610 CURVE SMOOTH",
"77 173 OFFCURVE",
"246 -20 OFFCURVE",
"596 -20 CURVE SMOOTH"
);
},
{
closed = 1;
nodes = (
"478 247 OFFCURVE",
"414 327 OFFCURVE",
"414 503 CURVE SMOOTH",
"414 537 OFFCURVE",
"416 574 OFFCURVE",
"421 615 CURVE",
"278 489 LINE",
"918 489 LINE",
"791 560 LINE",
"801 351 OFFCURVE",
"739 247 OFFCURVE",
"596 247 CURVE SMOOTH"
);
}
);
width = 1206;
}
);
leftKerningGroup = RoundUPPER;
leftMetricsKey = O;
rightKerningGroup = RoundUPPER;
rightMetricsKey = O;
unicode = 018F;
userData = {
com.schriftgestaltung.Glyphs.leftMetricsKey = "=O";
com.schriftgestaltung.Glyphs.rightMetricsKey = "=O";
com.typemytype.robofont.layerData = {
"Regular Jul 6 16, 10:41" = {
anchors = (
);
components = (
);
contours = (
{
points = (
{
segmentType = curve;
smooth = 1;
x = 542;
y = 1200;
},
{
smooth = 0;
x = 412;
y = 1200;
},
{
smooth = 0;
x = 298;
y = 1173;
},
{
segmentType = curve;
smooth = 0;
x = 176;
y = 1096;
},
{
segmentType = line;
smooth = 0;
x = 126;
y = 1197;
},
{
smooth = 0;
x = 251;
y = 1274;
},
{
smooth = 0;
x = 409;
y = 1308;
},
{
segmentType = curve;
smooth = 1;
x = 533;
y = 1308;
},
{
smooth = 0;
x = 869;
y = 1308;
},
{
smooth = 0;
x = 1087;
y = 1120;
},
{
segmentType = curve;
smooth = 1;
x = 1087;
y = 649;
},
{
smooth = 0;
x = 1087;
y = 195;
},
{
smooth = 0;
x = 870;
y = -10;
},
{
segmentType = curve;
smooth = 1;
x = 566;
y = -10;
},
{
smooth = 0;
x = 276;
y = -10;
},
{
smooth = 0;
x = 102;
y = 198;
},
{
segmentType = curve;
smooth = 1;
x = 102;
y = 507;
},
{
smooth = 0;
x = 102;
y = 547;
},
{
smooth = 0;
x = 106;
y = 607;
},
{
segmentType = curve;
smooth = 0;
x = 112;
y = 684;
},
{
segmentType = line;
smooth = 0;
x = 920;
y = 684;
},
{
smooth = 0;
x = 915;
y = 1109;
},
{
smooth = 0;
x = 733;
y = 1200;
}
);
},
{
points = (
{
segmentType = curve;
smooth = 1;
x = 565;
y = 127;
},
{
smooth = 0;
x = 791;
y = 127;
},
{
smooth = 0;
x = 900;
y = 296;
},
{
segmentType = curve;
smooth = 0;
x = 920;
y = 566;
},
{
segmentType = line;
smooth = 0;
x = 258;
y = 566;
},
{
segmentType = line;
smooth = 1;
x = 258;
y = 501;
},
{
smooth = 0;
x = 258;
y = 274;
},
{
smooth = 0;
x = 375;
y = 127;
}
);
}
);
lib = {
};
name = Schwa;
unicodes = (
);
width = 1203;
};
};
};
},
{
color = 4;
glyphname = T;
layers = (
{
anchors = (
{
name = bottom;
position = "{439, 0}";
},
{
name = cedilla;
position = "{440, 0}";
},
{
name = center;
position = "{439, 642}";
},
{
name = top;
position = "{439, 1284}";
}
);
background = {
anchors = (
{
name = bottom;
position = "{439, 0}";
},
{
name = cedilla;
position = "{440, 0}";
},
{
name = top_case;
position = "{452, 1284}";
}
);
paths = (
{
closed = 1;
nodes = (
"503 0 LINE",
"503 1223 LINE",
"458 1178 LINE",
"852 1178 LINE",
"852 1284 LINE",
"31 1284 LINE",
"31 1178 LINE",
"420 1178 LINE",
"375 1223 LINE",
"375 0 LINE"
);
}
);
};
layerId = "1D628CB9-BBF5-410A-9D74-9E6094BFE839";
paths = (
{
closed = 1;
nodes = (
"503 0 LINE",
"503 1223 LINE",
"458 1178 LINE",
"847 1178 LINE",
"847 1284 LINE",
"31 1284 LINE",
"31 1178 LINE",
"420 1178 LINE",
"375 1223 LINE",
"375 0 LINE"
);
}
);
width = 878;
},
{
anchors = (
{
name = bottom;
position = "{543, 0}";
},
{
name = cedilla;
position = "{548, 0}";
},
{
name = center;
position = "{543, 642}";
},
{
name = top;
position = "{543, 1284}";
}
);
background = {
anchors = (
{
name = bottom;
position = "{536, -50}";
},
{
name = cedilla;
position = "{548, -16}";
},
{
name = top_case;
position = "{541, 1334}";
}
);
paths = (
{
closed = 1;
nodes = (
"702 0 LINE",
"702 1223 LINE",
"557 999 LINE",
"1046 999 LINE",
"1046 1284 LINE",
"30 1284 LINE",
"30 999 LINE",
"519 999 LINE",
"374 1223 LINE",
"374 0 LINE"
);
}
);
};
layerId = "D42B5605-DB46-4B3B-8EA0-4CE7066523CE";
paths = (
{
closed = 1;
nodes = (
"712 0 LINE",
"712 1223 LINE",
"557 999 LINE",
"1056 999 LINE",
"1056 1284 LINE",
"30 1284 LINE",
"30 999 LINE",
"519 999 LINE",
"374 1223 LINE",
"374 0 LINE"
);
}
);
width = 1086;
}
);
leftKerningGroup = T;
rightKerningGroup = T;
rightMetricsKey = "=|";
unicode = 0054;
},
{
color = 4;
glyphname = Tbar;
layers = (
{
anchors = (
{
name = bottom;
position = "{439, 0}";
},
{
name = cedilla;
position = "{440, 0}";
},
{
name = center;
position = "{439, 642}";
},
{
name = top;
position = "{439, 1284}";
}
);
background = {
components = (
{
name = T;
}
);
paths = (
{
closed = 1;
nodes = (
"720 609 LINE",
"720 715 LINE",
"170 715 LINE",
"170 609 LINE"
);
}
);
};
layerId = "1D628CB9-BBF5-410A-9D74-9E6094BFE839";
paths = (
{
closed = 1;
nodes = (
"375 614 LINE",
"375 0 LINE",
"503 0 LINE",
"503 614 LINE",
"720 614 LINE",
"720 715 LINE",
"503 715 LINE",
"503 1178 LINE",
"847 1178 LINE",
"847 1284 LINE",
"31 1284 LINE",
"31 1178 LINE",
"375 1178 LINE",
"375 715 LINE",
"170 715 LINE",
"170 614 LINE"
);
}
);
width = 878;
},
{
anchors = (
{
name = bottom;
position = "{543, 0}";
},
{
name = cedilla;
position = "{548, 0}";
},
{
name = center;
position = "{543, 642}";
},
{
name = top;
position = "{543, 1284}";
}
);
background = {
components = (
{
name = T;
}
);
paths = (
{
closed = 1;
nodes = (
"941 519 LINE",
"941 684 LINE",
"150 684 LINE",
"150 519 LINE"
);
}
);
};
layerId = "D42B5605-DB46-4B3B-8EA0-4CE7066523CE";
paths = (
{
closed = 1;
nodes = (
"374 519 LINE",
"374 0 LINE",
"712 0 LINE",
"712 519 LINE",
"941 519 LINE",
"941 684 LINE",
"712 684 LINE",
"712 999 LINE",
"1056 999 LINE",
"1056 1284 LINE",
"30 1284 LINE",
"30 999 LINE",
"374 999 LINE",
"374 684 LINE",
"150 684 LINE",
"150 519 LINE"
);
}
);
width = 1086;
}
);
leftKerningGroup = T;
leftMetricsKey = T;
rightKerningGroup = T;
rightMetricsKey = T;
unicode = 0166;
},
{
color = 4;
glyphname = U;
layers = (
{
anchors = (
{
name = bottom;
position = "{556, 0}";
},
{
name = ogonek;
position = "{697, 0}";
},
{
name = top;
position = "{556, 1284}";
},
{
name = topright;
position = "{868, 1284}";
}
);
background = {
anchors = (
{
name = bottom;
position = "{556, 0}";
},
{
name = ogonek;
position = "{737, 30}";
},
{
name = top;
position = "{556, 1284}";
},
{
name = top_case;
position = "{556, 1284}";
},
{
name = topright;
position = "{972, 974}";
}
);
paths = (
{
closed = 1;
nodes = (
"942 -16 OFFCURVE",
"972 224 OFFCURVE",
"972 635 CURVE SMOOTH",
"972 1284 LINE",
"844 1284 LINE",
"844 540 LINE SMOOTH",
"844 263 OFFCURVE",
"829 90 OFFCURVE",
"556 90 CURVE SMOOTH",
"283 90 OFFCURVE",
"268 263 OFFCURVE",
"268 540 CURVE SMOOTH",
"268 1284 LINE",
"140 1284 LINE",
"140 635 LINE SMOOTH",
"140 224 OFFCURVE",
"170 -16 OFFCURVE",
"556 -16 CURVE SMOOTH"
);
}
);
};
layerId = "1D628CB9-BBF5-410A-9D74-9E6094BFE839";
paths = (
{
closed = 1;
nodes = (
"860 -16 OFFCURVE",
"972 145 OFFCURVE",
"972 542 CURVE SMOOTH",
"972 1284 LINE",
"844 1284 LINE",
"844 540 LINE SMOOTH",
"844 205 OFFCURVE",
"774 90 OFFCURVE",
"556 90 CURVE SMOOTH",
"338 90 OFFCURVE",
"268 205 OFFCURVE",
"268 540 CURVE SMOOTH",
"268 1284 LINE",
"140 1284 LINE",
"140 542 LINE SMOOTH",
"140 145 OFFCURVE",
"252 -16 OFFCURVE",
"556 -16 CURVE SMOOTH"
);
}
);
width = 1112;
},
{
anchors = (
{
name = bottom;
position = "{635, 0}";
},
{
name = ogonek;
position = "{791, 0}";
},
{
name = top;
position = "{644, 1284}";
},
{
name = topright;
position = "{977, 1284}";
}
);
background = {
anchors = (
{
name = bottom;
position = "{635, -50}";
},
{
name = ogonek;
position = "{826, 42}";
},
{
name = top;
position = "{623, 1336}";
},
{
name = top_case;
position = "{633, 1336}";
},
{
name = topright;
position = "{1243, 844}";
}
);
paths = (
{
closed = 1;
nodes = (
"1016 -40 OFFCURVE",
"1163 142 OFFCURVE",
"1163 558 CURVE SMOOTH",
"1163 1284 LINE",
"835 1284 LINE",
"835 555 LINE SMOOTH",
"835 334 OFFCURVE",
"805 245 OFFCURVE",
"635 245 CURVE SMOOTH",
"465 245 OFFCURVE",
"435 334 OFFCURVE",
"435 555 CURVE SMOOTH",
"435 1284 LINE",
"107 1284 LINE",
"107 558 LINE SMOOTH",
"107 142 OFFCURVE",
"254 -40 OFFCURVE",
"635 -40 CURVE SMOOTH"
);
}
);
};
guideLines = (
{
angle = 270;
position = "{633, 645}";
}
);
layerId = "D42B5605-DB46-4B3B-8EA0-4CE7066523CE";
paths = (
{
closed = 1;
nodes = (
"1002 -14 OFFCURVE",
"1175 185 OFFCURVE",
"1175 564 CURVE SMOOTH",
"1175 1284 LINE",
"837 1284 LINE",
"837 561 LINE SMOOTH",
"837 360 OFFCURVE",
"779 271 OFFCURVE",
"644 271 CURVE SMOOTH",
"509 271 OFFCURVE",
"451 360 OFFCURVE",
"451 561 CURVE SMOOTH",
"451 1284 LINE",
"113 1284 LINE",
"113 564 LINE SMOOTH",
"113 185 OFFCURVE",
"286 -14 OFFCURVE",
"644 -14 CURVE SMOOTH"
);
}
);
width = 1288;
}
);
leftKerningGroup = U;
rightKerningGroup = U;
rightMetricsKey = "=|";
unicode = 0055;
},
{
color = 6;
glyphname = Uhorn;
layers = (
{
background = {
anchors = (
{
name = bottom;
position = "{544, 0}";
},
{
name = ogonek;
position = "{725, 30}";
},
{
name = top;
position = "{544, 1284}";
},
{
name = top_case;
position = "{544, 1284}";
}
);
components = (
{
name = U;
},
{
name = horncomb;
transform = "{1, 0, 0, 1, 925, -11}";
}
);
};
components = (
{
name = U;
},
{
name = horncomb;
transform = "{1, 0, 0, 1, 518, 299}";
}
);
layerId = "1D628CB9-BBF5-410A-9D74-9E6094BFE839";
width = 1112;
},
{
anchors = (
{
name = _topright;
position = "{956, 974}";
},
{
name = bottom;
position = "{540, 0}";
},
{
name = ogonek;
position = "{721, 30}";
},
{
name = top;
position = "{540, 1284}";
},
{
name = topright;
position = "{956, 974}";
}
);
associatedMasterId = "1D628CB9-BBF5-410A-9D74-9E6094BFE839";
layerId = "F9DD0791-68B1-45D6-AA01-62C5055AAAB5";
name = "Regular Jul 25 16, 11:38";
paths = (
{
closed = 1;
nodes = (
"926 -16 OFFCURVE",
"956 224 OFFCURVE",
"956 635 CURVE SMOOTH",
"956 1284 LINE",
"828 1284 LINE",
"828 540 LINE SMOOTH",
"828 263 OFFCURVE",
"813 96 OFFCURVE",
"540 96 CURVE SMOOTH",
"267 96 OFFCURVE",
"252 263 OFFCURVE",
"252 540 CURVE SMOOTH",
"252 1284 LINE",
"124 1284 LINE",
"124 635 LINE SMOOTH",
"124 224 OFFCURVE",
"154 -16 OFFCURVE",
"540 -16 CURVE SMOOTH"
);
},
{
closed = 1;
nodes = (
"966 1066 LINE SMOOTH",
"1088 1107 OFFCURVE",
"1194 1166 OFFCURVE",
"1194 1291 CURVE SMOOTH",
"1194 1331 OFFCURVE",
"1187 1363 OFFCURVE",
"1177 1389 CURVE",
"1045 1389 LINE",
"1058 1361 OFFCURVE",
"1066 1330 OFFCURVE",
"1066 1299 CURVE SMOOTH",
"1066 1223 OFFCURVE",
"1027 1180 OFFCURVE",
"956 1149 CURVE SMOOTH",
"921 1134 LINE",
"921 1051 LINE"
);
}
);
width = 1080;
},
{
background = {
anchors = (
{
name = bottom;
position = "{612, 0}";
},
{
name = ogonek;
position = "{793, 30}";
},
{
name = top;
position = "{612, 1334}";
},
{
name = top_case;
position = "{612, 1334}";
}
);
components = (
{
name = U;
},
{
alignment = 1;
name = horncomb;
transform = "{1, 0, 0, 1, 1059, -141}";
}
);
};
components = (
{
name = U;
},
{
alignment = 1;
name = horncomb;
transform = "{1, 0, 0, 1, 627, 269}";
}
);
layerId = "D42B5605-DB46-4B3B-8EA0-4CE7066523CE";
width = 1288;
}
);
leftKerningGroup = U;
rightKerningGroup = hornUPPERU;
unicode = 01AF;
userData = {
com.schriftgestaltung.Glyphs.ColorIndex = 7;
};
},
{
color = 4;
glyphname = V;
layers = (
{
anchors = (
{
name = bottom;
position = "{507, 0}";
},
{
name = top;
position = "{507, 1284}";
}
);
background = {
anchors = (
{
name = bottom;
position = "{507, 0}";
},
{
name = top;
position = "{507, 1284}";
}
);
paths = (
{
closed = 1;
nodes = (
"586 0 LINE",
"953 1277 LINE",
"828 1300 LINE",
"500 109 LINE",
"514 109 LINE",
"184 1304 LINE",
"60 1283 LINE",
"428 0 LINE"
);
}
);
};
guideLines = (
{
angle = 169.6951;
position = "{911, 1285}";
},
{
angle = 9.6052;
position = "{118, 1293}";
},
{
angle = 270;
position = "{508, 1002}";
},
{
position = "{327, 1283}";
}
);
layerId = "1D628CB9-BBF5-410A-9D74-9E6094BFE839";
paths = (
{
closed = 1;
nodes = (
"586 0 LINE",
"953 1277 LINE",
"829 1300 LINE",
"500 109 LINE",
"514 109 LINE",
"184 1304 LINE",
"60 1283 LINE",
"428 0 LINE"
);
}
);
width = 1013;
},
{
anchors = (
{
name = bottom;
position = "{618, 0}";
},
{
name = top;
position = "{618, 1284}";
}
);
background = {
anchors = (
{
name = bottom;
position = "{618, 0}";
},
{
name = top;
position = "{618, 1284}";
}
);
paths = (
{
closed = 1;
nodes = (
"810 0 LINE",
"1203 1255 LINE",
"881 1306 LINE",
"538 115 LINE",
"695 115 LINE",
"347 1306 LINE",
"25 1256 LINE",
"422 0 LINE"
);
}
);
};
guideLines = (
{
angle = 171.0776;
position = "{1053, 1297}";
},
{
angle = 188.9224;
position = "{224, 1305}";
},
{
position = "{1298, 1273}";
}
);
layerId = "D42B5605-DB46-4B3B-8EA0-4CE7066523CE";
paths = (
{
closed = 1;
nodes = (
"820 0 LINE",
"1213 1255 LINE",
"881 1306 LINE",
"538 115 LINE",
"695 115 LINE",
"347 1306 LINE",
"15 1256 LINE",
"412 0 LINE"
);
}
);
width = 1228;
}
);
leftKerningGroup = V;
rightKerningGroup = V;
rightMetricsKey = "=|";
unicode = 0056;
},
{
color = 4;
glyphname = W;
layers = (
{
anchors = (
{
name = bottom;
position = "{672, 0}";
},
{
name = top;
position = "{672, 1284}";
}
);
background = {
anchors = (
{
name = bottom;
position = "{672, 0}";
},
{
name = top_case;
position = "{672, 1284}";
}
);
paths = (
{
closed = 1;
nodes = (
"418 0 LINE",
"687 744 LINE",
"656 744 LINE",
"934 0 LINE",
"1076 0 LINE",
"1196 1279 LINE",
"1079 1293 LINE",
"968 138 LINE",
"987 141 LINE",
"729 846 LINE",
"614 846 LINE",
"366 143 LINE",
"386 140 LINE",
"265 1293 LINE",
"148 1284 LINE",
"277 0 LINE"
);
}
);
};
layerId = "1D628CB9-BBF5-410A-9D74-9E6094BFE839";
paths = (
{
closed = 1;
nodes = (
"448 0 LINE",
"687 758 LINE",
"656 758 LINE",
"904 0 LINE",
"1031 0 LINE",
"1245 1279 LINE",
"1129 1293 LINE",
"939 128 LINE",
"964 131 LINE",
"734 850 LINE",
"609 850 LINE",
"389 133 LINE",
"416 130 LINE",
"225 1293 LINE",
"108 1284 LINE",
"322 0 LINE"
);
}
);
width = 1354;
},
{
anchors = (
{
name = bottom;
position = "{805, 0}";
},
{
name = top;
position = "{805, 1284}";
}
);
background = {
anchors = (
{
name = bottom;
position = "{781, 0}";
},
{
name = top_case;
position = "{811, 1336}";
}
);
paths = (
{
closed = 1;
nodes = (
"597 0 LINE",
"903 808 LINE",
"708 808 LINE",
"1013 0 LINE",
"1395 0 LINE",
"1522 1269 LINE",
"1207 1301 LINE",
"1117 138 LINE",
"1216 141 LINE",
"933 926 LINE",
"678 926 LINE",
"395 143 LINE",
"495 140 LINE",
"405 1301 LINE",
"89 1269 LINE",
"216 0 LINE"
);
}
);
};
layerId = "D42B5605-DB46-4B3B-8EA0-4CE7066523CE";
paths = (
{
closed = 1;
nodes = (
"687 0 LINE",
"889 782 LINE",
"723 782 LINE",
"923 0 LINE",
"1295 0 LINE",
"1522 1269 LINE",
"1207 1301 LINE",
"1027 138 LINE",
"1126 141 LINE",
"933 900 LINE",
"678 900 LINE",
"485 143 LINE",
"585 140 LINE",
"405 1301 LINE",
"89 1269 LINE",
"316 0 LINE"
);
}
);
width = 1610;
}
);
leftKerningGroup = V;
rightKerningGroup = V;
unicode = 0057;
},
{
color = 3;
glyphname = X;
layers = (
{
anchors = (
{
name = bottom;
position = "{476, 0}";
},
{
name = top;
position = "{476, 1284}";
}
);
background = {
anchors = (
{
name = bottom;
position = "{476, 0}";
},
{
name = top;
position = "{476, 1284}";
}
);
paths = (
{
closed = 1;
nodes = (
"183 -10 LINE",
"509 609 LINE",
"468 609 LINE",
"788 -10 LINE",
"916 11 LINE",
"550 697 LINE",
"551 617 LINE",
"897 1277 LINE",
"771 1298 LINE",
"468 705 LINE",
"508 705 LINE",
"200 1298 LINE",
"73 1277 LINE",
"418 618 LINE",
"419 698 LINE",
"56 11 LINE"
);
}
);
};
guideLines = (
{
angle = 270;
position = "{488, 837}";
},
{
position = "{-2228, 11}";
}
);
layerId = "1D628CB9-BBF5-410A-9D74-9E6094BFE839";
paths = (
{
closed = 1;
nodes = (
"183 -10 LINE",
"509 609 LINE",
"462 609 LINE",
"782 -10 LINE",
"906 11 LINE",
"540 687 LINE",
"541 627 LINE",
"887 1277 LINE",
"765 1298 LINE",
"462 705 LINE",
"508 705 LINE",
"200 1298 LINE",
"77 1277 LINE",
"422 628 LINE",
"423 688 LINE",
"60 11 LINE"
);
}
);
width = 966;
},
{
anchors = (
{
name = bottom;
position = "{589, 0}";
},
{
name = top;
position = "{588, 1284}";
}
);
background = {
anchors = (
{
name = bottom;
position = "{572, 0}";
},
{
name = top;
position = "{572, 1284}";
}
);
paths = (
{
closed = 1;
nodes = (
"344 -28 LINE",
"685 608 LINE",
"488 608 LINE",
"833 -28 LINE",
"1143 20 LINE",
"763 696 LINE",
"754 616 LINE",
"1124 1267 LINE",
"809 1316 LINE",
"478 704 LINE",
"694 704 LINE",
"366 1316 LINE",
"55 1267 LINE",
"411 617 LINE",
"402 697 LINE",
"33 20 LINE"
);
}
);
};
guideLines = (
{
angle = 188.9224;
position = "{1094, -10}";
},
{
angle = 171.0776;
position = "{265, -19}";
},
{
angle = 188.9224;
position = "{265, 1305}";
},
{
angle = 171.0776;
position = "{1040, 1285}";
}
);
layerId = "D42B5605-DB46-4B3B-8EA0-4CE7066523CE";
paths = (
{
closed = 1;
nodes = (
"354 -28 LINE",
"685 598 LINE",
"488 598 LINE",
"823 -28 LINE",
"1153 20 LINE",
"763 686 LINE",
"774 626 LINE",
"1154 1267 LINE",
"819 1316 LINE",
"498 714 LINE",
"674 714 LINE",
"356 1316 LINE",
"25 1267 LINE",
"391 627 LINE",
"402 687 LINE",
"23 20 LINE"
);
}
);
width = 1177;
}
);
leftKerningGroup = X;
rightKerningGroup = X;
unicode = 0058;
},
{
color = 4;
glyphname = Y;
layers = (
{
anchors = (
{
name = bottom;
position = "{453, 0}";
},
{
name = top;
position = "{451, 1284}";
}
);
background = {
anchors = (
{
name = bottom;
position = "{453, 0}";
},
{
name = top;
position = "{451, 1284}";
},
{
name = top_case;
position = "{451, 1284}";
},
{
name = topleft;
position = "{10, 1284}";
}
);
paths = (
{
closed = 1;
nodes = (
"517 0 LINE",
"517 588 LINE",
"885 1277 LINE",
"750 1299 LINE",
"433 664 LINE",
"473 664 LINE",
"151 1299 LINE",
"21 1277 LINE",
"389 586 LINE",
"389 0 LINE"
);
}
);
};
guideLines = (
{
angle = 270;
position = "{453, 901}";
}
);
layerId = "1D628CB9-BBF5-410A-9D74-9E6094BFE839";
paths = (
{
closed = 1;
nodes = (
"517 0 LINE",
"517 588 LINE",
"885 1277 LINE",
"754 1299 LINE",
"435 669 LINE",
"473 669 LINE",
"151 1299 LINE",
"21 1277 LINE",
"389 586 LINE",
"389 0 LINE"
);
}
);
width = 906;
},
{
anchors = (
{
name = bottom;
position = "{553, 0}";
},
{
name = top;
position = "{553, 1284}";
}
);
background = {
anchors = (
{
name = bottom;
position = "{544, -50}";
},
{
name = top;
position = "{542, 1356}";
},
{
name = top_case;
position = "{551, 1336}";
},
{
name = topleft;
position = "{0, 1284}";
}
);
paths = (
{
closed = 1;
nodes = (
"717 0 LINE",
"717 501 LINE",
"1096 1267 LINE",
"780 1317 LINE",
"508 700 LINE",
"595 700 LINE",
"326 1317 LINE",
"10 1267 LINE",
"389 501 LINE",
"389 0 LINE"
);
}
);
};
guideLines = (
{
angle = 270;
position = "{553, 1096}";
},
{
angle = 171.0776;
position = "{982, 1290}";
},
{
angle = 188.9224;
position = "{153, 1295}";
},
{
position = "{50, 1272}";
}
);
layerId = "D42B5605-DB46-4B3B-8EA0-4CE7066523CE";
paths = (
{
closed = 1;
nodes = (
"722 0 LINE",
"722 541 LINE",
"1116 1267 LINE",
"800 1317 LINE",
"508 740 LINE",
"595 740 LINE",
"306 1317 LINE",
"-10 1267 LINE",
"384 541 LINE",
"384 0 LINE"
);
}
);
width = 1106;
}
);
leftKerningGroup = Y;
rightKerningGroup = Y;
unicode = 0059;
},
{
color = 4;
glyphname = Z;
layers = (
{
anchors = (
{
name = bottom;
position = "{441, 0}";
},
{
name = top;
position = "{441, 1284}";
}
);
background = {
anchors = (
{
name = bottom;
position = "{441, 0}";
},
{
name = top_case;
position = "{441, 1284}";
}
);
paths = (
{
closed = 1;
nodes = (
"818 0 LINE",
"818 101 LINE",
"174 101 LINE",
"202 60 LINE",
"797 1176 LINE",
"781 1284 LINE",
"112 1284 LINE",
"112 1183 LINE",
"705 1183 LINE",
"677 1224 LINE",
"81 98 LINE",
"102 0 LINE"
);
}
);
};
guideLines = (
{
angle = 270;
position = "{818, 598}";
},
{
angle = 270;
position = "{81, 633}";
}
);
layerId = "1D628CB9-BBF5-410A-9D74-9E6094BFE839";
paths = (
{
closed = 1;
nodes = (
"818 0 LINE",
"818 106 LINE",
"164 106 LINE",
"192 60 LINE",
"797 1186 LINE",
"781 1284 LINE",
"112 1284 LINE",
"112 1178 LINE",
"714 1178 LINE",
"686 1224 LINE",
"81 98 LINE",
"102 0 LINE"
);
}
);
width = 899;
},
{
anchors = (
{
name = bottom;
position = "{515, 0}";
},
{
name = top;
position = "{540, 1284}";
}
);
background = {
anchors = (
{
name = bottom;
position = "{515, -50}";
},
{
name = top_case;
position = "{540, 1334}";
}
);
paths = (
{
closed = 1;
nodes = (
"992 0 LINE",
"992 285 LINE",
"258 285 LINE",
"371 179 LINE",
"975 1046 LINE",
"949 1284 LINE",
"86 1284 LINE",
"86 999 LINE",
"769 999 LINE",
"660 1110 LINE",
"52 228 LINE",
"76 0 LINE"
);
}
);
};
guideLines = (
{
angle = -83.9217;
position = "{929, 1475}";
},
{
angle = -83.9217;
position = "{-21, 912}";
},
{
angle = 270;
position = "{992, 598}";
},
{
angle = 270;
position = "{55, 487}";
},
{
angle = 180;
position = "{428, 999}";
}
);
layerId = "D42B5605-DB46-4B3B-8EA0-4CE7066523CE";
paths = (
{
closed = 1;
nodes = (
"945 0 LINE",
"945 285 LINE",
"268 285 LINE",
"395 179 LINE",
"928 1046 LINE",
"902 1284 LINE",
"86 1284 LINE",
"86 999 LINE",
"722 999 LINE",
"604 1110 LINE",
"62 228 LINE",
"86 0 LINE"
);
}
);
width = 987;
}
);
leftKerningGroup = Z;
rightKerningGroup = Z;
unicode = 005A;
},
{
color = 4;
glyphname = a;
layers = (
{
anchors = (
{
name = bottom;
position = "{467, 0}";
},
{
name = ogonek;
position = "{800, 0}";
},
{
name = top;
position = "{464, 985}";
}
);
background = {
anchors = (
{
name = bottom;
position = "{467, 0}";
},
{
name = ogonek;
position = "{750, 0}";
},
{
name = top;
position = "{464, 985}";
}
);
paths = (
{
closed = 1;
nodes = (
"533 -10 OFFCURVE",
"658 45 OFFCURVE",
"697 77 CURVE",
"673 113 LINE",
"704 0 LINE",
"800 0 LINE",
"800 627 LINE SMOOTH",
"800 909 OFFCURVE",
"685 1000 OFFCURVE",
"471 1000 CURVE SMOOTH",
"374 1000 OFFCURVE",
"260 976 OFFCURVE",
"156 942 CURVE",
"181 843 LINE",
"279 875 OFFCURVE",
"383 895 OFFCURVE",
"465 895 CURVE SMOOTH",
"591 895 OFFCURVE",
"672 838 OFFCURVE",
"672 609 CURVE SMOOTH",
"672 508 LINE",
"724 540 LINE",
"624 572 OFFCURVE",
"526 578 OFFCURVE",
"469 577 CURVE SMOOTH",
"198 577 OFFCURVE",
"99 403 OFFCURVE",
"99 269 CURVE SMOOTH",
"99 83 OFFCURVE",
"231 -10 OFFCURVE",
"415 -10 CURVE SMOOTH"
);
},
{
closed = 1;
nodes = (
"303 92 OFFCURVE",
"227 145 OFFCURVE",
"227 278 CURVE SMOOTH",
"227 412 OFFCURVE",
"334 483 OFFCURVE",
"511 483 CURVE SMOOTH",
"564 483 OFFCURVE",
"629 476 OFFCURVE",
"708 444 CURVE",
"672 502 LINE",
"672 112 LINE",
"690 170 LINE",
"640 128 OFFCURVE",
"534 92 OFFCURVE",
"435 92 CURVE SMOOTH"
);
}
);
};
guideLines = (
{
position = "{246, 137}";
},
{
position = "{226, 50}";
}
);
layerId = "1D628CB9-BBF5-410A-9D74-9E6094BFE839";
paths = (
{
closed = 1;
nodes = (
"533 -10 OFFCURVE",
"658 45 OFFCURVE",
"697 77 CURVE",
"673 113 LINE",
"704 0 LINE",
"800 0 LINE",
"800 627 LINE SMOOTH",
"800 909 OFFCURVE",
"685 1000 OFFCURVE",
"471 1000 CURVE SMOOTH",
"374 1000 OFFCURVE",
"260 976 OFFCURVE",
"156 942 CURVE",
"181 843 LINE",
"279 875 OFFCURVE",
"383 895 OFFCURVE",
"465 895 CURVE SMOOTH",
"591 895 OFFCURVE",
"672 838 OFFCURVE",
"672 609 CURVE SMOOTH",
"672 508 LINE",
"724 540 LINE",
"624 572 OFFCURVE",
"526 578 OFFCURVE",
"469 577 CURVE SMOOTH",
"198 577 OFFCURVE",
"99 403 OFFCURVE",
"99 269 CURVE SMOOTH",
"99 83 OFFCURVE",
"231 -10 OFFCURVE",
"415 -10 CURVE SMOOTH"
);
},
{
closed = 1;
nodes = (
"303 92 OFFCURVE",
"227 145 OFFCURVE",
"227 278 CURVE SMOOTH",
"227 412 OFFCURVE",
"334 483 OFFCURVE",
"511 483 CURVE SMOOTH",
"564 483 OFFCURVE",
"629 476 OFFCURVE",
"708 444 CURVE",
"672 502 LINE",
"672 112 LINE",
"690 170 LINE",
"640 128 OFFCURVE",
"534 92 OFFCURVE",
"435 92 CURVE SMOOTH"
);
}
);
width = 935;
},
{
anchors = (
{
name = bottom;
position = "{510, 0}";
},
{
name = ogonek;
position = "{953, 0}";
},
{
name = top;
position = "{527, 1015}";
}
);
background = {
anchors = (
{
name = bottom;
position = "{510, -50}";
},
{
name = ogonek;
position = "{830, 5}";
},
{
name = top;
position = "{527, 1055}";
}
);
paths = (
{
closed = 1;
nodes = (
"519 -18 OFFCURVE",
"622 38 OFFCURVE",
"703 109 CURVE",
"631 130 LINE",
"677 0 LINE",
"953 0 LINE",
"953 607 LINE SMOOTH",
"953 919 OFFCURVE",
"743 1030 OFFCURVE",
"544 1030 CURVE SMOOTH",
"447 1030 OFFCURVE",
"316 1026 OFFCURVE",
"112 968 CURVE",
"178 722 LINE",
"320 757 OFFCURVE",
"415 763 OFFCURVE",
"478 763 CURVE SMOOTH",
"600 763 OFFCURVE",
"635 717 OFFCURVE",
"635 611 CURVE SMOOTH",
"635 483 LINE",
"687 583 LINE",
"618 609 OFFCURVE",
"559 624 OFFCURVE",
"452 624 CURVE SMOOTH",
"166 624 OFFCURVE",
"47 449 OFFCURVE",
"47 298 CURVE SMOOTH",
"47 89 OFFCURVE",
"196 -18 OFFCURVE",
"407 -18 CURVE SMOOTH"
);
},
{
closed = 1;
nodes = (
"407 212 OFFCURVE",
"367 244 OFFCURVE",
"367 302 CURVE SMOOTH",
"367 346 OFFCURVE",
"401 399 OFFCURVE",
"493 399 CURVE SMOOTH",
"568 399 OFFCURVE",
"610 387 OFFCURVE",
"691 350 CURVE",
"635 477 LINE",
"635 162 LINE",
"683 299 LINE",
"634 255 OFFCURVE",
"556 212 OFFCURVE",
"471 212 CURVE SMOOTH"
);
}
);
};
layerId = "D42B5605-DB46-4B3B-8EA0-4CE7066523CE";
paths = (
{
closed = 1;
nodes = (
"524 -18 OFFCURVE",
"624 38 OFFCURVE",
"693 109 CURVE",
"631 130 LINE",
"677 0 LINE",
"953 0 LINE",
"953 627 LINE SMOOTH",
"953 919 OFFCURVE",
"767 1030 OFFCURVE",
"534 1030 CURVE SMOOTH",
"405 1030 OFFCURVE",
"249 1002 OFFCURVE",
"132 948 CURVE",
"178 702 LINE",
"320 757 OFFCURVE",
"409 763 OFFCURVE",
"469 763 CURVE SMOOTH",
"583 763 OFFCURVE",
"635 697 OFFCURVE",
"635 591 CURVE SMOOTH",
"635 483 LINE",
"687 572 LINE",
"620 608 OFFCURVE",
"563 624 OFFCURVE",
"459 624 CURVE SMOOTH",
"182 624 OFFCURVE",
"67 449 OFFCURVE",
"67 298 CURVE SMOOTH",
"67 89 OFFCURVE",
"211 -18 OFFCURVE",
"416 -18 CURVE SMOOTH"
);
},
{
closed = 1;
nodes = (
"414 201 OFFCURVE",
"377 240 OFFCURVE",
"377 299 CURVE SMOOTH",
"377 365 OFFCURVE",
"426 410 OFFCURVE",
"499 410 CURVE SMOOTH",
"562 410 OFFCURVE",
"613 396 OFFCURVE",
"691 355 CURVE",
"635 477 LINE",
"635 162 LINE",
"683 298 LINE",
"636 249 OFFCURVE",
"560 201 OFFCURVE",
"478 201 CURVE SMOOTH"
);
}
);
width = 1053;
}
);
leftKerningGroup = a;
rightKerningGroup = StraightLOWER;
rightMetricsKey = "=n";
unicode = 0061;
},
{
color = 4;
glyphname = ae;
layers = (
{
anchors = (
{
name = bottom;
position = "{769, 0}";
},
{
name = top;
position = "{769, 985}";
}
);
background = {
paths = (
{
closed = 1;
nodes = (
"1201 -10 OFFCURVE",
"1323 20 OFFCURVE",
"1411 70 CURVE",
"1368 161 LINE",
"1284 122 OFFCURVE",
"1199 95 OFFCURVE",
"1089 95 CURVE SMOOTH",
"932 95 OFFCURVE",
"789 167 OFFCURVE",
"801 523 CURVE",
"755 469 LINE",
"1418 469 LINE",
"1423 528 OFFCURVE",
"1426 574 OFFCURVE",
"1426 604 CURVE SMOOTH",
"1426 841 OFFCURVE",
"1293 1000 OFFCURVE",
"1071 1000 CURVE SMOOTH",
"838 1000 OFFCURVE",
"672 843 OFFCURVE",
"672 496 CURVE SMOOTH",
"672 140 OFFCURVE",
"821 -10 OFFCURVE",
"1078 -10 CURVE SMOOTH"
);
},
{
closed = 1;
nodes = (
"788 750 OFFCURVE",
"888 895 OFFCURVE",
"1072 895 CURVE SMOOTH",
"1232 895 OFFCURVE",
"1317 767 OFFCURVE",
"1306 570 CURVE",
"1306 514 LINE",
"1352 559 LINE",
"755 559 LINE",
"801 520 LINE"
);
}
);
};
guideLines = (
{
position = "{526, 469}";
}
);
layerId = "1D628CB9-BBF5-410A-9D74-9E6094BFE839";
paths = (
{
closed = 1;
nodes = (
"573 -10 OFFCURVE",
"685 47 OFFCURVE",
"773 117 CURVE",
"851 28 OFFCURVE",
"942 -10 OFFCURVE",
"1078 -10 CURVE SMOOTH",
"1201 -10 OFFCURVE",
"1323 20 OFFCURVE",
"1411 70 CURVE",
"1368 161 LINE",
"1284 122 OFFCURVE",
"1199 95 OFFCURVE",
"1089 95 CURVE SMOOTH",
"932 95 OFFCURVE",
"789 167 OFFCURVE",
"802 519 CURVE",
"788 750 OFFCURVE",
"888 895 OFFCURVE",
"1072 895 CURVE SMOOTH",
"1232 895 OFFCURVE",
"1317 767 OFFCURVE",
"1306 560 CURVE",
"781 560 LINE",
"781 469 LINE",
"1418 469 LINE",
"1423 528 OFFCURVE",
"1426 574 OFFCURVE",
"1426 604 CURVE SMOOTH",
"1426 841 OFFCURVE",
"1293 1000 OFFCURVE",
"1074 1000 CURVE SMOOTH",
"929 1000 OFFCURVE",
"807 939 OFFCURVE",
"741 810 CURVE",
"770 806 LINE",
"718 948 OFFCURVE",
"603 1000 OFFCURVE",
"464 1000 CURVE SMOOTH",
"367 1000 OFFCURVE",
"260 976 OFFCURVE",
"156 942 CURVE",
"181 843 LINE",
"279 875 OFFCURVE",
"383 895 OFFCURVE",
"465 895 CURVE SMOOTH",
"591 895 OFFCURVE",
"672 841 OFFCURVE",
"672 609 CURVE SMOOTH",
"672 515 LINE",
"724 540 LINE",
"624 572 OFFCURVE",
"526 577 OFFCURVE",
"469 577 CURVE SMOOTH",
"198 577 OFFCURVE",
"99 403 OFFCURVE",
"99 269 CURVE SMOOTH",
"99 83 OFFCURVE",
"241 -10 OFFCURVE",
"425 -10 CURVE SMOOTH"
);
},
{
closed = 1;
nodes = (
"313 92 OFFCURVE",
"227 145 OFFCURVE",
"227 278 CURVE SMOOTH",
"227 412 OFFCURVE",
"334 483 OFFCURVE",
"511 483 CURVE SMOOTH",
"564 483 OFFCURVE",
"629 476 OFFCURVE",
"708 444 CURVE",
"672 509 LINE",
"671 370 OFFCURVE",
"690 262 OFFCURVE",
"733 181 CURVE",
"747 221 LINE",
"680 152 OFFCURVE",
"593 92 OFFCURVE",
"445 92 CURVE SMOOTH"
);
}
);
width = 1520;
},
{
anchors = (
{
name = bottom;
position = "{771, 0}";
},
{
name = top;
position = "{771, 985}";
}
);
associatedMasterId = "1D628CB9-BBF5-410A-9D74-9E6094BFE839";
layerId = "5E165179-021E-4BCF-A508-2B1321AC368B";
name = "Regular Jul 6 16, 13:18";
paths = (
{
closed = 1;
nodes = (
"166 942 LINE",
"270 976 OFFCURVE",
"377 1000 OFFCURVE",
"474 1000 CURVE SMOOTH",
"599 1000 OFFCURVE",
"726 944 OFFCURVE",
"762 789 CURVE",
"829 941 OFFCURVE",
"950 1000 OFFCURVE",
"1087 1000 CURVE SMOOTH",
"1290 1000 OFFCURVE",
"1429 844 OFFCURVE",
"1429 707 CURVE SMOOTH",
"1429 581 OFFCURVE",
"1341 469 OFFCURVE",
"1128 469 CURVE SMOOTH",
"813 469 LINE",
"817 162 OFFCURVE",
"956 96 OFFCURVE",
"1102 96 CURVE SMOOTH",
"1202 96 OFFCURVE",
"1289 117 OFFCURVE",
"1382 176 CURVE",
"1421 75 LINE",
"1325 16 OFFCURVE",
"1204 -10 OFFCURVE",
"1109 -10 CURVE SMOOTH",
"960 -10 OFFCURVE",
"842 38 OFFCURVE",
"768 149 CURVE",
"710 64 OFFCURVE",
"625 -10 OFFCURVE",
"425 -10 CURVE SMOOTH",
"241 -10 OFFCURVE",
"109 85 OFFCURVE",
"109 284 CURVE SMOOTH",
"109 429 OFFCURVE",
"223 567 OFFCURVE",
"597 567 CURVE SMOOTH",
"685 567 LINE",
"685 599 LINE SMOOTH",
"684 831 OFFCURVE",
"594 895 OFFCURVE",
"468 895 CURVE SMOOTH",
"386 895 OFFCURVE",
"289 868 OFFCURVE",
"191 843 CURVE"
);
},
{
closed = 1;
nodes = (
"229 278 CURVE SMOOTH",
"229 153 OFFCURVE",
"305 92 OFFCURVE",
"445 92 CURVE SMOOTH",
"551 92 OFFCURVE",
"627 113 OFFCURVE",
"732 216 CURVE",
"703 284 OFFCURVE",
"687 369 OFFCURVE",
"685 472 CURVE",
"685 473 LINE",
"629 473 LINE SMOOTH",
"462 473 OFFCURVE",
"229 455 OFFCURVE"
);
},
{
closed = 1;
nodes = (
"813 559 CURVE",
"1126 559 LINE SMOOTH",
"1261 559 OFFCURVE",
"1321 630 OFFCURVE",
"1321 707 CURVE SMOOTH",
"1321 798 OFFCURVE",
"1238 896 OFFCURVE",
"1099 896 CURVE SMOOTH",
"917 896 OFFCURVE",
"829 767 OFFCURVE"
);
}
);
width = 1541;
},
{
anchors = (
{
name = bottom;
position = "{813, 0}";
},
{
name = top;
position = "{813, 1015}";
}
);
background = {
anchors = (
{
name = bottom;
position = "{771, -100}";
},
{
name = ogonek;
position = "{760, -100}";
},
{
name = top;
position = "{821, 1085}";
}
);
paths = (
{
closed = 1;
nodes = (
"1256 -15 OFFCURVE",
"1407 20 OFFCURVE",
"1527 89 CURVE",
"1421 328 LINE",
"1304 274 OFFCURVE",
"1234 251 OFFCURVE",
"1140 251 CURVE SMOOTH",
"1011 251 OFFCURVE",
"963 321 OFFCURVE",
"963 468 CURVE",
"848 395 LINE",
"1541 395 LINE",
"1550 454 OFFCURVE",
"1551 542 OFFCURVE",
"1551 577 CURVE SMOOTH",
"1551 881 OFFCURVE",
"1367 1030 OFFCURVE",
"1119 1030 CURVE SMOOTH",
"867 1030 OFFCURVE",
"635 909 OFFCURVE",
"635 504 CURVE SMOOTH",
"635 169 OFFCURVE",
"808 -15 OFFCURVE",
"1133 -15 CURVE SMOOTH"
);
},
{
closed = 1;
nodes = (
"948 706 OFFCURVE",
"993 793 OFFCURVE",
"1107 793 CURVE SMOOTH",
"1205 793 OFFCURVE",
"1249 714 OFFCURVE",
"1236 562 CURVE",
"1237 439 LINE",
"1325 597 LINE",
"848 597 LINE",
"963 514 LINE"
);
}
);
};
guideLines = (
{
position = "{526, 382}";
}
);
layerId = "D42B5605-DB46-4B3B-8EA0-4CE7066523CE";
paths = (
{
closed = 1;
nodes = (
"550 -18 OFFCURVE",
"671 11 OFFCURVE",
"783 101 CURVE",
"869 8 OFFCURVE",
"1027 -15 OFFCURVE",
"1133 -15 CURVE SMOOTH",
"1256 -15 OFFCURVE",
"1407 20 OFFCURVE",
"1527 89 CURVE",
"1421 328 LINE",
"1304 274 OFFCURVE",
"1234 251 OFFCURVE",
"1140 251 CURVE SMOOTH",
"1011 251 OFFCURVE",
"957 321 OFFCURVE",
"960 507 CURVE",
"948 706 OFFCURVE",
"993 793 OFFCURVE",
"1107 793 CURVE SMOOTH",
"1205 793 OFFCURVE",
"1242 714 OFFCURVE",
"1238 597 CURVE",
"877 597 LINE",
"877 395 LINE",
"1542 395 LINE",
"1551 455 OFFCURVE",
"1552 535 OFFCURVE",
"1552 570 CURVE SMOOTH",
"1552 879 OFFCURVE",
"1368 1030 OFFCURVE",
"1116 1030 CURVE SMOOTH",
"967 1030 OFFCURVE",
"864 984 OFFCURVE",
"789 909 CURVE",
"827 907 LINE",
"762 984 OFFCURVE",
"659 1030 OFFCURVE",
"534 1030 CURVE SMOOTH",
"405 1030 OFFCURVE",
"249 1002 OFFCURVE",
"132 948 CURVE",
"178 702 LINE",
"320 757 OFFCURVE",
"409 763 OFFCURVE",
"469 763 CURVE SMOOTH",
"587 763 OFFCURVE",
"635 693 OFFCURVE",
"635 579 CURVE SMOOTH",
"635 543 LINE",
"687 572 LINE",
"620 608 OFFCURVE",
"563 624 OFFCURVE",
"459 624 CURVE SMOOTH",
"182 624 OFFCURVE",
"67 449 OFFCURVE",
"67 298 CURVE SMOOTH",
"67 89 OFFCURVE",
"211 -18 OFFCURVE",
"416 -18 CURVE SMOOTH"
);
},
{
closed = 1;
nodes = (
"425 201 OFFCURVE",
"377 240 OFFCURVE",
"377 299 CURVE SMOOTH",
"377 365 OFFCURVE",
"426 410 OFFCURVE",
"499 410 CURVE SMOOTH",
"562 410 OFFCURVE",
"613 396 OFFCURVE",
"691 355 CURVE",
"639 419 LINE",
"644 350 OFFCURVE",
"660 292 OFFCURVE",
"683 239 CURVE",
"683 298 LINE",
"636 249 OFFCURVE",
"571 201 OFFCURVE",
"489 201 CURVE SMOOTH"
);
}
);
width = 1624;
}
);
leftKerningGroup = a;
leftMetricsKey = "=a";
rightKerningGroup = RoundLOWER;
rightMetricsKey = "=e";
unicode = 00E6;
userData = {
com.typemytype.robofont.layerData = {
"Regular Jul 6 16, 13:18" = {
anchors = (
{
name = top;
x = 771;
y = 985;
},
{
name = bottom;
x = 771;
y = 0;
}
);
components = (
);
contours = (
{
points = (
{
segmentType = line;
smooth = 0;
x = 166;
y = 942;
},
{
smooth = 0;
x = 270;
y = 976;
},
{
smooth = 0;
x = 377;
y = 1000;
},
{
segmentType = curve;
smooth = 1;
x = 474;
y = 1000;
},
{
smooth = 0;
x = 599;
y = 1000;
},
{
smooth = 0;
x = 726;
y = 944;
},
{
segmentType = curve;
smooth = 0;
x = 762;
y = 789;
},
{
smooth = 0;
x = 829;
y = 941;
},
{
smooth = 0;
x = 950;
y = 1000;
},
{
segmentType = curve;
smooth = 1;
x = 1087;
y = 1000;
},
{
smooth = 0;
x = 1290;
y = 1000;
},
{
smooth = 0;
x = 1429;
y = 844;
},
{
segmentType = curve;
smooth = 1;
x = 1429;
y = 707;
},
{
smooth = 0;
x = 1429;
y = 581;
},
{
smooth = 0;
x = 1341;
y = 469;
},
{
segmentType = curve;
smooth = 1;
x = 1128;
y = 469;
},
{
segmentType = line;
smooth = 0;
x = 813;
y = 469;
},
{
smooth = 0;
x = 817;
y = 162;
},
{
smooth = 0;
x = 956;
y = 96;
},
{
segmentType = curve;
smooth = 1;
x = 1102;
y = 96;
},
{
smooth = 0;
x = 1202;
y = 96;
},
{
smooth = 0;
x = 1289;
y = 117;
},
{
segmentType = curve;
smooth = 0;
x = 1382;
y = 176;
},
{
segmentType = line;
smooth = 0;
x = 1421;
y = 75;
},
{
smooth = 0;
x = 1325;
y = 16;
},
{
smooth = 0;
x = 1204;
y = -10;
},
{
segmentType = curve;
smooth = 1;
x = 1109;
y = -10;
},
{
smooth = 0;
x = 960;
y = -10;
},
{
smooth = 0;
x = 842;
y = 38;
},
{
segmentType = curve;
smooth = 0;
x = 768;
y = 149;
},
{
smooth = 0;
x = 710;
y = 64;
},
{
smooth = 0;
x = 625;
y = -10;
},
{
segmentType = curve;
smooth = 1;
x = 425;
y = -10;
},
{
smooth = 0;
x = 241;
y = -10;
},
{
smooth = 0;
x = 109;
y = 85;
},
{
segmentType = curve;
smooth = 1;
x = 109;
y = 284;
},
{
smooth = 0;
x = 109;
y = 429;
},
{
smooth = 0;
x = 223;
y = 567;
},
{
segmentType = curve;
smooth = 1;
x = 597;
y = 567;
},
{
segmentType = line;
smooth = 0;
x = 685;
y = 567;
},
{
segmentType = line;
smooth = 1;
x = 685;
y = 599;
},
{
smooth = 0;
x = 684;
y = 831;
},
{
smooth = 0;
x = 594;
y = 895;
},
{
segmentType = curve;
smooth = 1;
x = 468;
y = 895;
},
{
smooth = 0;
x = 386;
y = 895;
},
{
smooth = 0;
x = 289;
y = 868;
},
{
segmentType = curve;
smooth = 0;
x = 191;
y = 843;
}
);
},
{
points = (
{
segmentType = curve;
smooth = 1;
x = 229;
y = 278;
},
{
smooth = 0;
x = 229;
y = 153;
},
{
smooth = 0;
x = 305;
y = 92;
},
{
segmentType = curve;
smooth = 1;
x = 445;
y = 92;
},
{
smooth = 0;
x = 551;
y = 92;
},
{
smooth = 0;
x = 627;
y = 113;
},
{
segmentType = curve;
smooth = 0;
x = 732;
y = 216;
},
{
smooth = 0;
x = 703;
y = 284;
},
{
smooth = 0;
x = 687;
y = 369;
},
{
segmentType = curve;
smooth = 0;
x = 685;
y = 472;
},
{
segmentType = line;
smooth = 0;
x = 685;
y = 473;
},
{
segmentType = line;
smooth = 1;
x = 629;
y = 473;
},
{
smooth = 0;
x = 462;
y = 473;
},
{
smooth = 0;
x = 229;
y = 455;
}
);
},
{
points = (
{
segmentType = curve;
smooth = 0;
x = 813;
y = 559;
},
{
segmentType = line;
smooth = 1;
x = 1126;
y = 559;
},
{
smooth = 0;
x = 1261;
y = 559;
},
{
smooth = 0;
x = 1321;
y = 630;
},
{
segmentType = curve;
smooth = 1;
x = 1321;
y = 707;
},
{
smooth = 0;
x = 1321;
y = 798;
},
{
smooth = 0;
x = 1238;
y = 896;
},
{
segmentType = curve;
smooth = 1;
x = 1099;
y = 896;
},
{
smooth = 0;
x = 917;
y = 896;
},
{
smooth = 0;
x = 829;
y = 767;
}
);
}
);
lib = {
};
name = ae;
unicodes = (
);
width = 1541;
};
};
};
},
{
color = 4;
glyphname = b;
layers = (
{
anchors = (
{
name = bottom;
position = "{502, 0}";
},
{
name = top;
position = "{518, 1358}";
}
);
background = {
anchors = (
{
name = bottom;
position = "{502, 0}";
},
{
name = top_case;
position = "{214, 1358}";
}
);
paths = (
{
closed = 1;
nodes = (
"757 -10 OFFCURVE",
"886 126 OFFCURVE",
"886 493 CURVE SMOOTH",
"886 852 OFFCURVE",
"750 1000 OFFCURVE",
"550 1000 CURVE SMOOTH",
"457 1000 OFFCURVE",
"362 978 OFFCURVE",
"245 897 CURVE",
"278 878 LINE",
"278 1358 LINE",
"150 1358 LINE",
"150 0 LINE",
"246 0 LINE",
"279 92 LINE",
"237 66 LINE",
"323 10 OFFCURVE",
"437 -10 OFFCURVE",
"520 -10 CURVE SMOOTH"
);
},
{
closed = 1;
nodes = (
"278 854 LINE",
"241 787 LINE",
"370 867 OFFCURVE",
"459 895 OFFCURVE",
"534 895 CURVE SMOOTH",
"691 895 OFFCURVE",
"758 767 OFFCURVE",
"758 491 CURVE SMOOTH",
"758 201 OFFCURVE",
"682 95 OFFCURVE",
"502 95 CURVE SMOOTH",
"395 95 OFFCURVE",
"340 112 OFFCURVE",
"247 160 CURVE",
"278 112 LINE"
);
}
);
};
guideLines = (
{
position = "{124, 144}";
},
{
position = "{246, 50}";
}
);
layerId = "1D628CB9-BBF5-410A-9D74-9E6094BFE839";
paths = (
{
closed = 1;
nodes = (
"747 -10 OFFCURVE",
"886 126 OFFCURVE",
"886 493 CURVE SMOOTH",
"886 852 OFFCURVE",
"780 1000 OFFCURVE",
"550 1000 CURVE SMOOTH",
"457 1000 OFFCURVE",
"362 978 OFFCURVE",
"245 897 CURVE",
"278 878 LINE",
"278 1358 LINE",
"150 1358 LINE",
"150 0 LINE",
"246 0 LINE",
"279 92 LINE",
"237 71 LINE",
"323 15 OFFCURVE",
"437 -10 OFFCURVE",
"520 -10 CURVE SMOOTH"
);
},
{
closed = 1;
nodes = (
"278 854 LINE",
"241 787 LINE",
"370 877 OFFCURVE",
"459 895 OFFCURVE",
"534 895 CURVE SMOOTH",
"691 895 OFFCURVE",
"758 767 OFFCURVE",
"758 491 CURVE SMOOTH",
"758 201 OFFCURVE",
"682 95 OFFCURVE",
"502 95 CURVE SMOOTH",
"395 95 OFFCURVE",
"340 112 OFFCURVE",
"247 160 CURVE",
"278 112 LINE"
);
}
);
width = 988;
},
{
anchors = (
{
name = bottom;
position = "{686, 0}";
},
{
name = top;
position = "{606, 1358}";
}
);
background = {
anchors = (
{
name = bottom;
position = "{686, -10}";
},
{
name = top_case;
position = "{276, 1408}";
}
);
paths = (
{
closed = 1;
nodes = (
"2267 -10 OFFCURVE",
"2497 74 OFFCURVE",
"2497 503 CURVE SMOOTH",
"2497 947 OFFCURVE",
"2290 1030 OFFCURVE",
"2096 1030 CURVE SMOOTH",
"1964 1030 OFFCURVE",
"1891 996 OFFCURVE",
"1821 967 CURVE",
"1843 931 LINE",
"1843 1358 LINE",
"1515 1358 LINE",
"1515 0 LINE",
"1809 0 LINE",
"1843 103 LINE",
"1810 70 LINE",
"1871 38 OFFCURVE",
"1965 -10 OFFCURVE",
"2092 -10 CURVE SMOOTH"
);
},
{
closed = 1;
nodes = (
"1843 884 LINE",
"1703 590 LINE",
"1856 721 OFFCURVE",
"1941 745 OFFCURVE",
"2009 745 CURVE SMOOTH",
"2109 745 OFFCURVE",
"2169 700 OFFCURVE",
"2169 506 CURVE SMOOTH",
"2169 337 OFFCURVE",
"2115 272 OFFCURVE",
"2009 272 CURVE SMOOTH",
"1935 272 OFFCURVE",
"1853 290 OFFCURVE",
"1704 394 CURVE",
"1843 242 LINE"
);
},
{
closed = 1;
nodes = (
"565 1025 OFFCURVE",
"471 977 OFFCURVE",
"410 945 CURVE",
"443 912 LINE",
"409 1015 LINE",
"115 1015 LINE",
"115 -343 LINE",
"443 -343 LINE",
"443 84 LINE",
"421 58 LINE",
"512 13 OFFCURVE",
"618 -15 OFFCURVE",
"696 -15 CURVE SMOOTH",
"962 -15 OFFCURVE",
"1097 163 OFFCURVE",
"1097 512 CURVE SMOOTH",
"1097 941 OFFCURVE",
"867 1025 OFFCURVE",
"692 1025 CURVE SMOOTH"
);
},
{
closed = 1;
nodes = (
"304 621 LINE",
"453 725 OFFCURVE",
"535 743 OFFCURVE",
"609 743 CURVE SMOOTH",
"715 743 OFFCURVE",
"769 678 OFFCURVE",
"769 509 CURVE SMOOTH",
"769 337 OFFCURVE",
"724 270 OFFCURVE",
"609 270 CURVE SMOOTH",
"522 270 OFFCURVE",
"429 317 OFFCURVE",
"303 425 CURVE",
"443 131 LINE",
"443 773 LINE"
);
}
);
};
layerId = "D42B5605-DB46-4B3B-8EA0-4CE7066523CE";
paths = (
{
closed = 1;
nodes = (
"952 -15 OFFCURVE",
"1097 164 OFFCURVE",
"1097 508 CURVE SMOOTH",
"1097 852 OFFCURVE",
"962 1030 OFFCURVE",
"696 1030 CURVE SMOOTH",
"618 1030 OFFCURVE",
"512 1002 OFFCURVE",
"421 957 CURVE",
"443 931 LINE",
"443 1358 LINE",
"115 1358 LINE",
"115 0 LINE",
"409 0 LINE",
"443 103 LINE",
"421 78 LINE",
"512 3 OFFCURVE",
"618 -15 OFFCURVE",
"696 -15 CURVE SMOOTH"
);
},
{
closed = 1;
nodes = (
"443 884 LINE",
"303 590 LINE",
"429 698 OFFCURVE",
"522 745 OFFCURVE",
"609 745 CURVE SMOOTH",
"724 745 OFFCURVE",
"769 680 OFFCURVE",
"769 508 CURVE SMOOTH",
"769 336 OFFCURVE",
"724 270 OFFCURVE",
"609 270 CURVE SMOOTH",
"522 270 OFFCURVE",
"429 327 OFFCURVE",
"303 455 CURVE",
"443 242 LINE"
);
}
);
width = 1172;
}
);
leftKerningGroup = h;
leftMetricsKey = "=h";
rightKerningGroup = RoundLOWER;
rightMetricsKey = "=o";
unicode = 0062;
userData = {
com.fontlab.hintData = {
hhints = (
{
position = -10;
width = 106;
},
{
position = 895;
width = 105;
},
{
position = 1338;
width = 20;
}
);
vhints = (
{
position = 140;
width = 128;
},
{
position = 140;
width = 104;
},
{
position = 748;
width = 128;
}
);
};
};
},
{
color = 3;
glyphname = c;
layers = (
{
anchors = (
{
name = bottom;
position = "{426, 0}";
},
{
name = cedilla;
position = "{467, 0}";
},
{
name = top;
position = "{490, 985}";
}
);
background = {
anchors = (
{
name = bottom;
position = "{1526, 0}";
},
{
name = cedilla;
position = "{1567, 0}";
},
{
name = top;
position = "{1590, 985}";
}
);
paths = (
{
closed = 1;
nodes = (
"1707 -10 OFFCURVE",
"1799 20 OFFCURVE",
"1892 70 CURVE",
"1844 161 LINE",
"1760 122 OFFCURVE",
"1691 95 OFFCURVE",
"1618 95 CURVE SMOOTH",
"1417 95 OFFCURVE",
"1330 215 OFFCURVE",
"1330 493 CURVE SMOOTH",
"1330 732 OFFCURVE",
"1384 895 OFFCURVE",
"1588 895 CURVE SMOOTH",
"1655 895 OFFCURVE",
"1720 887 OFFCURVE",
"1778 857 CURVE",
"1751 914 LINE",
"1751 672 LINE",
"1853 682 LINE",
"1853 940 LINE",
"1768 980 OFFCURVE",
"1681 1000 OFFCURVE",
"1590 1000 CURVE SMOOTH",
"1329 1000 OFFCURVE",
"1202 831 OFFCURVE",
"1202 495 CURVE SMOOTH",
"1202 140 OFFCURVE",
"1351 -10 OFFCURVE",
"1604 -10 CURVE SMOOTH"
);
},
{
closed = 1;
nodes = (
"755 -10 OFFCURVE",
"870 164 OFFCURVE",
"870 495 CURVE SMOOTH",
"870 826 OFFCURVE",
"755 1000 OFFCURVE",
"486 1000 CURVE SMOOTH",
"217 1000 OFFCURVE",
"102 826 OFFCURVE",
"102 495 CURVE SMOOTH",
"102 164 OFFCURVE",
"217 -10 OFFCURVE",
"486 -10 CURVE SMOOTH"
);
},
{
closed = 1;
nodes = (
"289 95 OFFCURVE",
"230 247 OFFCURVE",
"230 495 CURVE SMOOTH",
"230 743 OFFCURVE",
"289 895 OFFCURVE",
"486 895 CURVE SMOOTH",
"683 895 OFFCURVE",
"742 743 OFFCURVE",
"742 495 CURVE SMOOTH",
"742 247 OFFCURVE",
"683 95 OFFCURVE",
"486 95 CURVE SMOOTH"
);
}
);
};
guideLines = (
{
angle = 270;
position = "{489, 516}";
},
{
angle = 270;
position = "{753, 512}";
}
);
layerId = "1D628CB9-BBF5-410A-9D74-9E6094BFE839";
paths = (
{
closed = 1;
nodes = (
"607 -10 OFFCURVE",
"699 20 OFFCURVE",
"787 70 CURVE",
"744 161 LINE",
"660 122 OFFCURVE",
"591 95 OFFCURVE",
"518 95 CURVE SMOOTH",
"317 95 OFFCURVE",
"230 215 OFFCURVE",
"230 493 CURVE SMOOTH",
"230 732 OFFCURVE",
"284 895 OFFCURVE",
"488 895 CURVE SMOOTH",
"555 895 OFFCURVE",
"620 887 OFFCURVE",
"678 857 CURVE",
"651 914 LINE",
"651 672 LINE",
"753 682 LINE",
"753 940 LINE",
"668 980 OFFCURVE",
"581 1000 OFFCURVE",
"490 1000 CURVE SMOOTH",
"229 1000 OFFCURVE",
"102 831 OFFCURVE",
"102 495 CURVE SMOOTH",
"102 140 OFFCURVE",
"251 -10 OFFCURVE",
"504 -10 CURVE SMOOTH"
);
}
);
width = 842;
},
{
anchors = (
{
name = bottom;
position = "{565, 0}";
},
{
name = cedilla;
position = "{535, 0}";
},
{
name = top;
position = "{532, 1015}";
}
);
background = {
anchors = (
{
name = bottom;
position = "{469, 0}";
},
{
name = cedilla;
position = "{535, -20}";
},
{
name = top;
position = "{533, 1035}";
}
);
paths = (
{
closed = 1;
nodes = (
"1593 -40 OFFCURVE",
"1762 6 OFFCURVE",
"1887 75 CURVE",
"1771 318 LINE",
"1646 263 OFFCURVE",
"1571 245 OFFCURVE",
"1481 245 CURVE SMOOTH",
"1363 245 OFFCURVE",
"1303 302 OFFCURVE",
"1303 493 CURVE SMOOTH",
"1303 695 OFFCURVE",
"1357 745 OFFCURVE",
"1464 745 CURVE SMOOTH",
"1531 745 OFFCURVE",
"1623 705 OFFCURVE",
"1681 677 CURVE",
"1564 934 LINE",
"1564 572 LINE",
"1846 602 LINE",
"1846 940 LINE",
"1751 980 OFFCURVE",
"1589 1030 OFFCURVE",
"1464 1030 CURVE SMOOTH",
"1125 1030 OFFCURVE",
"975 886 OFFCURVE",
"975 495 CURVE SMOOTH",
"975 112 OFFCURVE",
"1127 -40 OFFCURVE",
"1464 -40 CURVE SMOOTH"
);
},
{
closed = 1;
nodes = (
"863 -30 OFFCURVE",
"1033 137 OFFCURVE",
"1033 500 CURVE SMOOTH",
"1033 863 OFFCURVE",
"863 1030 OFFCURVE",
"554 1030 CURVE SMOOTH",
"245 1030 OFFCURVE",
"75 863 OFFCURVE",
"75 500 CURVE SMOOTH",
"75 137 OFFCURVE",
"245 -30 OFFCURVE",
"554 -30 CURVE SMOOTH"
);
},
{
closed = 1;
nodes = (
"454 240 OFFCURVE",
"403 291 OFFCURVE",
"403 500 CURVE SMOOTH",
"403 709 OFFCURVE",
"457 760 OFFCURVE",
"554 760 CURVE SMOOTH",
"651 760 OFFCURVE",
"705 709 OFFCURVE",
"705 500 CURVE SMOOTH",
"705 291 OFFCURVE",
"654 240 OFFCURVE",
"554 240 CURVE SMOOTH"
);
}
);
};
guideLines = (
{
angle = 270;
position = "{553, 512}";
},
{
angle = 270;
position = "{946, 512}";
}
);
layerId = "D42B5605-DB46-4B3B-8EA0-4CE7066523CE";
paths = (
{
closed = 1;
nodes = (
"676 -15 OFFCURVE",
"827 21 OFFCURVE",
"947 90 CURVE",
"841 333 LINE",
"724 278 OFFCURVE",
"654 255 OFFCURVE",
"570 255 CURVE SMOOTH",
"451 255 OFFCURVE",
"403 326 OFFCURVE",
"403 500 CURVE SMOOTH",
"403 709 OFFCURVE",
"457 760 OFFCURVE",
"564 760 CURVE SMOOTH",
"631 760 OFFCURVE",
"723 720 OFFCURVE",
"781 677 CURVE",
"614 934 LINE",
"614 552 LINE",
"896 582 LINE",
"896 940 LINE",
"801 1000 OFFCURVE",
"689 1030 OFFCURVE",
"564 1030 CURVE SMOOTH",
"245 1030 OFFCURVE",
"75 863 OFFCURVE",
"75 500 CURVE SMOOTH",
"75 172 OFFCURVE",
"248 -15 OFFCURVE",
"563 -15 CURVE SMOOTH"
);
}
);
width = 983;
}
);
leftKerningGroup = RoundLOWER;
leftMetricsKey = "=o";
rightKerningGroup = c;
unicode = 0063;
},
{
color = 4;
glyphname = d;
layers = (
{
anchors = (
{
name = bottom;
position = "{473, 0}";
},
{
name = center;
position = "{473, 493}";
},
{
name = top;
position = "{774, 1358}";
},
{
name = topright;
position = "{908, 1358}";
}
);
background = {
paths = (
{
closed = 1;
nodes = (
"838 -389 LINE",
"838 985 LINE",
"742 985 LINE",
"721 911 LINE",
"615 978 OFFCURVE",
"521 1000 OFFCURVE",
"438 1000 CURVE SMOOTH",
"208 1000 OFFCURVE",
"102 852 OFFCURVE",
"102 493 CURVE SMOOTH",
"102 126 OFFCURVE",
"241 -10 OFFCURVE",
"468 -10 CURVE SMOOTH",
"551 -10 OFFCURVE",
"631 7 OFFCURVE",
"710 48 CURVE",
"710 -389 LINE"
);
},
{
closed = 1;
nodes = (
"741 160 LINE",
"648 112 OFFCURVE",
"593 95 OFFCURVE",
"486 95 CURVE SMOOTH",
"304 95 OFFCURVE",
"230 201 OFFCURVE",
"230 491 CURVE SMOOTH",
"230 767 OFFCURVE",
"297 895 OFFCURVE",
"454 895 CURVE SMOOTH",
"529 895 OFFCURVE",
"618 877 OFFCURVE",
"747 787 CURVE",
"710 854 LINE",
"710 92 LINE"
);
}
);
};
layerId = "1D628CB9-BBF5-410A-9D74-9E6094BFE839";
paths = (
{
closed = 1;
nodes = (
"551 -10 OFFCURVE",
"665 15 OFFCURVE",
"751 71 CURVE",
"709 92 LINE",
"742 0 LINE",
"838 0 LINE",
"838 1358 LINE",
"710 1358 LINE",
"710 878 LINE",
"743 897 LINE",
"626 978 OFFCURVE",
"531 1000 OFFCURVE",
"438 1000 CURVE SMOOTH",
"208 1000 OFFCURVE",
"102 852 OFFCURVE",
"102 493 CURVE SMOOTH",
"102 126 OFFCURVE",
"241 -10 OFFCURVE",
"468 -10 CURVE SMOOTH"
);
},
{
closed = 1;
nodes = (
"306 95 OFFCURVE",
"230 201 OFFCURVE",
"230 491 CURVE SMOOTH",
"230 767 OFFCURVE",
"297 895 OFFCURVE",
"454 895 CURVE SMOOTH",
"529 895 OFFCURVE",
"618 877 OFFCURVE",
"747 787 CURVE",
"710 854 LINE",
"710 112 LINE",
"741 160 LINE",
"648 112 OFFCURVE",
"593 95 OFFCURVE",
"486 95 CURVE SMOOTH"
);
}
);
width = 988;
},
{
anchors = (
{
name = bottom;
position = "{566, 0}";
},
{
name = center;
position = "{582, 493}";
},
{
name = top;
position = "{566, 1358}";
},
{
name = topright;
position = "{1097, 1358}";
}
);
background = {
anchors = (
{
name = bottom;
position = "{612, -50}";
},
{
name = center;
position = "{582, 493}";
},
{
name = top_case;
position = "{893, 1408}";
},
{
name = topright;
position = "{1154, 1358}";
}
);
paths = (
{
closed = 1;
nodes = (
"1057 0 LINE",
"1057 1358 LINE",
"729 1358 LINE",
"729 931 LINE",
"751 967 LINE",
"681 996 OFFCURVE",
"608 1030 OFFCURVE",
"476 1030 CURVE SMOOTH",
"282 1030 OFFCURVE",
"75 947 OFFCURVE",
"75 503 CURVE SMOOTH",
"75 74 OFFCURVE",
"305 -10 OFFCURVE",
"480 -10 CURVE SMOOTH",
"607 -10 OFFCURVE",
"700 32 OFFCURVE",
"761 65 CURVE",
"726 97 LINE",
"763 0 LINE"
);
},
{
closed = 1;
nodes = (
"463 272 OFFCURVE",
"403 337 OFFCURVE",
"403 506 CURVE SMOOTH",
"403 699 OFFCURVE",
"461 745 OFFCURVE",
"561 745 CURVE SMOOTH",
"629 745 OFFCURVE",
"716 721 OFFCURVE",
"869 590 CURVE",
"729 884 LINE",
"729 142 LINE",
"868 394 LINE",
"719 290 OFFCURVE",
"635 272 OFFCURVE",
"561 272 CURVE SMOOTH"
);
}
);
};
guideLines = (
{
angle = -72.5632;
position = "{484, 0}";
},
{
position = "{-3, 262}";
},
{
position = "{514, 669}";
},
{
position = "{-11, 51}";
}
);
layerId = "D42B5605-DB46-4B3B-8EA0-4CE7066523CE";
paths = (
{
closed = 1;
nodes = (
"554 -15 OFFCURVE",
"660 3 OFFCURVE",
"751 78 CURVE",
"729 103 LINE",
"763 0 LINE",
"1057 0 LINE",
"1057 1358 LINE",
"729 1358 LINE",
"729 931 LINE",
"751 957 LINE",
"660 1002 OFFCURVE",
"554 1030 OFFCURVE",
"476 1030 CURVE SMOOTH",
"210 1030 OFFCURVE",
"75 852 OFFCURVE",
"75 508 CURVE SMOOTH",
"75 164 OFFCURVE",
"220 -15 OFFCURVE",
"476 -15 CURVE SMOOTH"
);
},
{
closed = 1;
nodes = (
"448 270 OFFCURVE",
"403 336 OFFCURVE",
"403 508 CURVE SMOOTH",
"403 680 OFFCURVE",
"448 745 OFFCURVE",
"563 745 CURVE SMOOTH",
"650 745 OFFCURVE",
"743 698 OFFCURVE",
"869 590 CURVE",
"729 884 LINE",
"729 242 LINE",
"869 455 LINE",
"743 327 OFFCURVE",
"650 270 OFFCURVE",
"563 270 CURVE SMOOTH"
);
}
);
width = 1172;
}
);
leftKerningGroup = RoundLOWER;
leftMetricsKey = "=o";
rightKerningGroup = d;
rightMetricsKey = "=|h";
unicode = 0064;
},
{
color = 4;
glyphname = dcroat;
layers = (
{
background = {
paths = (
{
closed = 1;
nodes = (
"551 -10 OFFCURVE",
"665 15 OFFCURVE",
"751 71 CURVE",
"709 92 LINE",
"742 0 LINE",
"838 0 LINE",
"838 1358 LINE",
"710 1358 LINE",
"710 878 LINE",
"743 897 LINE",
"626 978 OFFCURVE",
"531 1000 OFFCURVE",
"438 1000 CURVE SMOOTH",
"208 1000 OFFCURVE",
"102 852 OFFCURVE",
"102 493 CURVE SMOOTH",
"102 126 OFFCURVE",
"241 -10 OFFCURVE",
"468 -10 CURVE SMOOTH"
);
},
{
closed = 1;
nodes = (
"306 95 OFFCURVE",
"230 201 OFFCURVE",
"230 491 CURVE SMOOTH",
"230 767 OFFCURVE",
"297 895 OFFCURVE",
"454 895 CURVE SMOOTH",
"529 895 OFFCURVE",
"618 877 OFFCURVE",
"747 787 CURVE",
"710 854 LINE",
"710 112 LINE",
"741 160 LINE",
"648 112 OFFCURVE",
"593 95 OFFCURVE",
"486 95 CURVE SMOOTH"
);
}
);
};
layerId = "1D628CB9-BBF5-410A-9D74-9E6094BFE839";
paths = (
{
closed = 1;
nodes = (
"551 -10 OFFCURVE",
"661 19 OFFCURVE",
"723 54 CURVE",
"742 0 LINE",
"838 0 LINE",
"838 1108 LINE",
"978 1108 LINE",
"978 1208 LINE",
"838 1208 LINE",
"838 1358 LINE",
"710 1358 LINE",
"710 1208 LINE",
"498 1208 LINE",
"498 1108 LINE",
"710 1108 LINE",
"710 919 LINE",
"608 982 OFFCURVE",
"522 1000 OFFCURVE",
"438 1000 CURVE SMOOTH",
"208 1000 OFFCURVE",
"102 852 OFFCURVE",
"102 493 CURVE SMOOTH",
"102 126 OFFCURVE",
"241 -10 OFFCURVE",
"468 -10 CURVE SMOOTH"
);
},
{
closed = 1;
nodes = (
"306 95 OFFCURVE",
"230 201 OFFCURVE",
"230 491 CURVE SMOOTH",
"230 767 OFFCURVE",
"297 895 OFFCURVE",
"454 895 CURVE SMOOTH",
"529 895 OFFCURVE",
"618 873 OFFCURVE",
"710 811 CURVE",
"710 144 LINE",
"648 112 OFFCURVE",
"593 95 OFFCURVE",
"486 95 CURVE SMOOTH"
);
}
);
width = 988;
},
{
background = {
paths = (
{
closed = 1;
nodes = (
"554 -15 OFFCURVE",
"660 3 OFFCURVE",
"751 78 CURVE",
"729 103 LINE",
"763 0 LINE",
"1057 0 LINE",
"1057 1358 LINE",
"729 1358 LINE",
"729 931 LINE",
"751 957 LINE",
"660 1002 OFFCURVE",
"554 1030 OFFCURVE",
"476 1030 CURVE SMOOTH",
"210 1030 OFFCURVE",
"75 852 OFFCURVE",
"75 508 CURVE SMOOTH",
"75 164 OFFCURVE",
"220 -15 OFFCURVE",
"476 -15 CURVE SMOOTH"
);
},
{
closed = 1;
nodes = (
"448 270 OFFCURVE",
"403 336 OFFCURVE",
"403 508 CURVE SMOOTH",
"403 680 OFFCURVE",
"448 745 OFFCURVE",
"563 745 CURVE SMOOTH",
"650 745 OFFCURVE",
"743 698 OFFCURVE",
"869 590 CURVE",
"729 884 LINE",
"729 242 LINE",
"869 455 LINE",
"743 327 OFFCURVE",
"650 270 OFFCURVE",
"563 270 CURVE SMOOTH"
);
}
);
};
layerId = "D42B5605-DB46-4B3B-8EA0-4CE7066523CE";
paths = (
{
closed = 1;
nodes = (
"590 -15 OFFCURVE",
"681 24 OFFCURVE",
"739 70 CURVE",
"763 0 LINE",
"1057 0 LINE",
"1057 1098 LINE",
"1177 1098 LINE",
"1177 1258 LINE",
"1057 1258 LINE",
"1057 1358 LINE",
"729 1358 LINE",
"729 1258 LINE",
"529 1258 LINE",
"529 1098 LINE",
"729 1098 LINE",
"729 967 LINE",
"668 994 OFFCURVE",
"574 1030 OFFCURVE",
"476 1030 CURVE SMOOTH",
"210 1030 OFFCURVE",
"75 852 OFFCURVE",
"75 503 CURVE SMOOTH",
"75 74 OFFCURVE",
"301 -15 OFFCURVE",
"476 -15 CURVE SMOOTH"
);
},
{
closed = 1;
nodes = (
"448 270 OFFCURVE",
"403 336 OFFCURVE",
"403 508 CURVE SMOOTH",
"403 680 OFFCURVE",
"448 745 OFFCURVE",
"563 745 CURVE SMOOTH",
"607 745 OFFCURVE",
"657 735 OFFCURVE",
"729 693 CURVE",
"729 332 LINE",
"666 289 OFFCURVE",
"610 270 OFFCURVE",
"563 270 CURVE SMOOTH"
);
}
);
width = 1172;
}
);
leftKerningGroup = RoundLOWER;
leftMetricsKey = o;
rightKerningGroup = dcroat;
unicode = 0111;
},
{
color = 4;
glyphname = eth;
layers = (
{
background = {
paths = (
{
closed = 1;
nodes = (
"764 -10 OFFCURVE",
"886 183 OFFCURVE",
"886 544 CURVE SMOOTH",
"886 1043 OFFCURVE",
"759 1282 OFFCURVE",
"252 1351 CURVE",
"233 1252 LINE",
"613 1191 OFFCURVE",
"768 1054 OFFCURVE",
"768 647 CURVE",
"784 677 LINE",
"726 782 OFFCURVE",
"603 844 OFFCURVE",
"472 844 CURVE SMOOTH",
"269 844 OFFCURVE",
"95 711 OFFCURVE",
"95 414 CURVE SMOOTH",
"95 121 OFFCURVE",
"260 -10 OFFCURVE",
"492 -10 CURVE SMOOTH"
);
},
{
closed = 1;
nodes = (
"329 95 OFFCURVE",
"223 180 OFFCURVE",
"223 415 CURVE SMOOTH",
"223 641 OFFCURVE",
"333 739 OFFCURVE",
"476 739 CURVE SMOOTH",
"590 739 OFFCURVE",
"758 680 OFFCURVE",
"758 450 CURVE SMOOTH",
"758 203 OFFCURVE",
"662 95 OFFCURVE",
"497 95 CURVE SMOOTH"
);
},
{
closed = 1;
nodes = (
"771 1345 LINE",
"707 1399 LINE",
"387 1021 LINE",
"450 966 LINE"
);
}
);
};
guideLines = (
{
angle = 229.7501;
position = "{547, 1210}";
},
{
angle = 138.8785;
position = "{419, 994}";
}
);
layerId = "1D628CB9-BBF5-410A-9D74-9E6094BFE839";
paths = (
{
closed = 1;
nodes = (
"764 -10 OFFCURVE",
"886 183 OFFCURVE",
"886 544 CURVE SMOOTH",
"886 867 OFFCURVE",
"833 1081 OFFCURVE",
"657 1211 CURVE",
"771 1345 LINE",
"707 1399 LINE",
"586 1256 LINE",
"499 1301 OFFCURVE",
"389 1332 OFFCURVE",
"252 1351 CURVE",
"233 1252 LINE",
"346 1234 OFFCURVE",
"440 1209 OFFCURVE",
"515 1172 CURVE",
"387 1021 LINE",
"450 966 LINE",
"588 1128 LINE",
"703 1044 OFFCURVE",
"759 913 OFFCURVE",
"767 704 CURVE",
"704 793 OFFCURVE",
"591 844 OFFCURVE",
"472 844 CURVE SMOOTH",
"269 844 OFFCURVE",
"95 711 OFFCURVE",
"95 414 CURVE SMOOTH",
"95 121 OFFCURVE",
"260 -10 OFFCURVE",
"492 -10 CURVE SMOOTH"
);
},
{
closed = 1;
nodes = (
"329 95 OFFCURVE",
"223 180 OFFCURVE",
"223 415 CURVE SMOOTH",
"223 641 OFFCURVE",
"333 739 OFFCURVE",
"476 739 CURVE SMOOTH",
"590 739 OFFCURVE",
"758 680 OFFCURVE",
"758 450 CURVE SMOOTH",
"758 203 OFFCURVE",
"662 95 OFFCURVE",
"497 95 CURVE SMOOTH"
);
}
);
width = 986;
},
{
background = {
paths = (
{
closed = 1;
nodes = (
"832 -15 OFFCURVE",
"1011 172 OFFCURVE",
"1011 591 CURVE SMOOTH",
"1011 1100 OFFCURVE",
"736 1347 OFFCURVE",
"337 1381 CURVE",
"275 1118 LINE",
"562 1084 OFFCURVE",
"717 961 OFFCURVE",
"728 703 CURVE",
"741 727 LINE",
"684 790 OFFCURVE",
"567 834 OFFCURVE",
"457 834 CURVE SMOOTH",
"264 834 OFFCURVE",
"70 715 OFFCURVE",
"70 407 CURVE SMOOTH",
"70 103 OFFCURVE",
"295 -15 OFFCURVE",
"527 -15 CURVE SMOOTH"
);
},
{
closed = 1;
nodes = (
"450 250 OFFCURVE",
"388 297 OFFCURVE",
"388 412 CURVE SMOOTH",
"388 518 OFFCURVE",
"453 569 OFFCURVE",
"526 569 CURVE SMOOTH",
"614 569 OFFCURVE",
"680 518 OFFCURVE",
"680 411 CURVE SMOOTH",
"680 283 OFFCURVE",
"616 250 OFFCURVE",
"531 250 CURVE SMOOTH"
);
},
{
closed = 1;
nodes = (
"854 1345 LINE",
"753 1427 LINE",
"358 961 LINE",
"457 874 LINE"
);
}
);
};
guideLines = (
{
angle = 229.7501;
position = "{548, 1210}";
}
);
layerId = "D42B5605-DB46-4B3B-8EA0-4CE7066523CE";
paths = (
{
closed = 1;
nodes = (
"832 -15 OFFCURVE",
"1011 172 OFFCURVE",
"1011 591 CURVE SMOOTH",
"1011 891 OFFCURVE",
"915 1100 OFFCURVE",
"755 1228 CURVE",
"854 1345 LINE",
"753 1427 LINE",
"644 1299 LINE",
"554 1344 OFFCURVE",
"451 1371 OFFCURVE",
"337 1381 CURVE",
"275 1118 LINE",
"343 1110 OFFCURVE",
"404 1097 OFFCURVE",
"457 1078 CURVE",
"358 961 LINE",
"457 874 LINE",
"577 1017 LINE",
"662 955 OFFCURVE",
"712 866 OFFCURVE",
"725 743 CURVE",
"664 797 OFFCURVE",
"558 834 OFFCURVE",
"457 834 CURVE SMOOTH",
"264 834 OFFCURVE",
"70 715 OFFCURVE",
"70 407 CURVE SMOOTH",
"70 103 OFFCURVE",
"295 -15 OFFCURVE",
"527 -15 CURVE SMOOTH"
);
},
{
closed = 1;
nodes = (
"450 250 OFFCURVE",
"388 297 OFFCURVE",
"388 412 CURVE SMOOTH",
"388 518 OFFCURVE",
"453 569 OFFCURVE",
"526 569 CURVE SMOOTH",
"614 569 OFFCURVE",
"680 518 OFFCURVE",
"680 411 CURVE SMOOTH",
"680 283 OFFCURVE",
"616 250 OFFCURVE",
"531 250 CURVE SMOOTH"
);
}
);
width = 1086;
}
);
leftKerningGroup = RoundLOWER;
rightKerningGroup = eth;
unicode = 00F0;
},
{
color = 4;
glyphname = e;
layers = (
{
anchors = (
{
name = bottom;
position = "{497, 0}";
},
{
name = cedilla;
position = "{485, 0}";
},
{
name = ogonek;
position = "{629, 0}";
},
{
name = top;
position = "{501, 985}";
}
);
background = {
anchors = (
{
name = bottom;
position = "{497, 0}";
},
{
name = cedilla;
position = "{485, 0}";
},
{
name = ogonek;
position = "{761, 60}";
},
{
name = top;
position = "{501, 985}";
}
);
paths = (
{
closed = 1;
nodes = (
"661 -10 OFFCURVE",
"753 20 OFFCURVE",
"841 70 CURVE",
"798 161 LINE",
"714 122 OFFCURVE",
"645 95 OFFCURVE",
"572 95 CURVE SMOOTH",
"371 95 OFFCURVE",
"284 215 OFFCURVE",
"284 493 CURVE SMOOTH",
"284 732 OFFCURVE",
"338 895 OFFCURVE",
"542 895 CURVE SMOOTH",
"609 895 OFFCURVE",
"674 887 OFFCURVE",
"732 857 CURVE",
"705 914 LINE",
"705 672 LINE",
"807 682 LINE",
"807 940 LINE",
"722 980 OFFCURVE",
"635 1000 OFFCURVE",
"544 1000 CURVE SMOOTH",
"283 1000 OFFCURVE",
"156 831 OFFCURVE",
"156 495 CURVE SMOOTH",
"156 140 OFFCURVE",
"305 -10 OFFCURVE",
"558 -10 CURVE SMOOTH"
);
}
);
};
guideLines = (
{
position = "{702, -113}";
}
);
layerId = "1D628CB9-BBF5-410A-9D74-9E6094BFE839";
paths = (
{
closed = 1;
nodes = (
"631 -10 OFFCURVE",
"753 20 OFFCURVE",
"841 70 CURVE",
"798 161 LINE",
"714 122 OFFCURVE",
"629 95 OFFCURVE",
"519 95 CURVE SMOOTH",
"362 95 OFFCURVE",
"219 167 OFFCURVE",
"231 523 CURVE",
"185 469 LINE",
"848 469 LINE",
"853 528 OFFCURVE",
"856 574 OFFCURVE",
"856 604 CURVE SMOOTH",
"856 841 OFFCURVE",
"723 1000 OFFCURVE",
"501 1000 CURVE SMOOTH",
"268 1000 OFFCURVE",
"102 843 OFFCURVE",
"102 496 CURVE SMOOTH",
"102 140 OFFCURVE",
"251 -10 OFFCURVE",
"508 -10 CURVE SMOOTH"
);
},
{
closed = 1;
nodes = (
"218 750 OFFCURVE",
"318 895 OFFCURVE",
"502 895 CURVE SMOOTH",
"662 895 OFFCURVE",
"747 767 OFFCURVE",
"736 570 CURVE",
"736 514 LINE",
"782 559 LINE",
"185 559 LINE",
"231 520 LINE"
);
}
);
width = 950;
},
{
anchors = (
{
name = bottom;
position = "{564, 0}";
},
{
name = cedilla;
position = "{549, 0}";
},
{
name = ogonek;
position = "{711, 0}";
},
{
name = top;
position = "{533, 1015}";
}
);
background = {
anchors = (
{
name = bottom;
position = "{550, -50}";
},
{
name = cedilla;
position = "{549, -21}";
},
{
name = ogonek;
position = "{888, 71}";
},
{
name = top;
position = "{549, 1055}";
}
);
paths = (
{
closed = 1;
nodes = (
"2049 -40 OFFCURVE",
"2193 3 OFFCURVE",
"2309 66 CURVE",
"2201 275 LINE",
"2068 217 OFFCURVE",
"1964 208 OFFCURVE",
"1914 208 CURVE SMOOTH",
"1810 208 OFFCURVE",
"1682 250 OFFCURVE",
"1703 460 CURVE",
"1588 386 LINE",
"2285 386 LINE",
"2294 446 OFFCURVE",
"2295 535 OFFCURVE",
"2295 570 CURVE SMOOTH",
"2295 879 OFFCURVE",
"2111 1030 OFFCURVE",
"1859 1030 CURVE SMOOTH",
"1607 1030 OFFCURVE",
"1375 907 OFFCURVE",
"1375 496 CURVE SMOOTH",
"1375 96 OFFCURVE",
"1619 -40 OFFCURVE",
"1879 -40 CURVE SMOOTH"
);
},
{
closed = 1;
nodes = (
"1685 744 OFFCURVE",
"1760 785 OFFCURVE",
"1847 785 CURVE SMOOTH",
"1929 785 OFFCURVE",
"1991 730 OFFCURVE",
"1976 555 CURVE",
"1977 431 LINE",
"2065 586 LINE",
"1588 586 LINE",
"1703 507 LINE"
);
},
{
closed = 1;
nodes = (
"666 -30 OFFCURVE",
"827 6 OFFCURVE",
"947 75 CURVE",
"841 318 LINE",
"724 263 OFFCURVE",
"654 240 OFFCURVE",
"570 240 CURVE SMOOTH",
"451 240 OFFCURVE",
"403 311 OFFCURVE",
"403 500 CURVE SMOOTH",
"403 709 OFFCURVE",
"457 760 OFFCURVE",
"564 760 CURVE SMOOTH",
"631 760 OFFCURVE",
"723 720 OFFCURVE",
"781 677 CURVE",
"614 934 LINE",
"614 552 LINE",
"896 582 LINE",
"896 940 LINE",
"801 1000 OFFCURVE",
"689 1030 OFFCURVE",
"564 1030 CURVE SMOOTH",
"245 1030 OFFCURVE",
"75 863 OFFCURVE",
"75 500 CURVE SMOOTH",
"75 157 OFFCURVE",
"238 -30 OFFCURVE",
"543 -30 CURVE SMOOTH"
);
}
);
};
guideLines = (
{
angle = -58.7439;
position = "{609, 28}";
},
{
position = "{905, -148}";
}
);
layerId = "D42B5605-DB46-4B3B-8EA0-4CE7066523CE";
paths = (
{
closed = 1;
nodes = (
"696 -15 OFFCURVE",
"847 20 OFFCURVE",
"967 89 CURVE",
"861 328 LINE",
"744 274 OFFCURVE",
"674 251 OFFCURVE",
"580 251 CURVE SMOOTH",
"451 251 OFFCURVE",
"403 321 OFFCURVE",
"403 468 CURVE",
"288 395 LINE",
"981 395 LINE",
"990 454 OFFCURVE",
"991 542 OFFCURVE",
"991 577 CURVE SMOOTH",
"991 881 OFFCURVE",
"807 1030 OFFCURVE",
"559 1030 CURVE SMOOTH",
"307 1030 OFFCURVE",
"75 909 OFFCURVE",
"75 504 CURVE SMOOTH",
"75 169 OFFCURVE",
"248 -15 OFFCURVE",
"573 -15 CURVE SMOOTH"
);
},
{
closed = 1;
nodes = (
"388 706 OFFCURVE",
"433 793 OFFCURVE",
"547 793 CURVE SMOOTH",
"645 793 OFFCURVE",
"689 714 OFFCURVE",
"676 562 CURVE",
"677 439 LINE",
"765 597 LINE",
"288 597 LINE",
"403 514 LINE"
);
}
);
width = 1063;
}
);
leftKerningGroup = RoundLOWER;
leftMetricsKey = "=o";
rightKerningGroup = RoundLOWER;
unicode = 0065;
userData = {
com.fontlab.hintData = {
hhints = (
{
position = -10;
width = 106;
},
{
position = 469;
width = 90;
},
{
position = 895;
width = 105;
}
);
vhints = (
{
position = 108;
width = 128;
},
{
position = 743;
width = 119;
}
);
};
};
},
{
color = 4;
glyphname = f;
layers = (
{
anchors = (
{
name = bottom;
position = "{256, 0}";
},
{
name = top;
position = "{396, 1358}";
}
);
background = {
anchors = (
{
name = bottom;
position = "{256, 0}";
},
{
name = top_case;
position = "{396, 1358}";
}
);
paths = (
{
closed = 1;
nodes = (
"295 0 LINE",
"295 932 LINE",
"250 885 LINE",
"529 885 LINE",
"529 985 LINE",
"250 985 LINE",
"296 921 LINE",
"289 1224 OFFCURVE",
"329 1269 OFFCURVE",
"454 1269 CURVE SMOOTH",
"492 1269 OFFCURVE",
"573 1254 OFFCURVE",
"595 1248 CURVE",
"611 1348 LINE",
"544 1368 OFFCURVE",
"482 1374 OFFCURVE",
"426 1374 CURVE SMOOTH",
"216 1374 OFFCURVE",
"163 1238 OFFCURVE",
"167 937 CURVE",
"212 985 LINE",
"0 985 LINE",
"0 885 LINE",
"212 885 LINE",
"167 932 LINE",
"167 0 LINE"
);
}
);
};
layerId = "1D628CB9-BBF5-410A-9D74-9E6094BFE839";
paths = (
{
closed = 1;
nodes = (
"295 0 LINE",
"295 921 LINE",
"250 885 LINE",
"529 885 LINE",
"529 985 LINE",
"251 985 LINE",
"296 956 LINE",
"296 1051 LINE SMOOTH",
"296 1214 OFFCURVE",
"329 1269 OFFCURVE",
"464 1269 CURVE SMOOTH",
"502 1269 OFFCURVE",
"573 1254 OFFCURVE",
"595 1248 CURVE",
"611 1348 LINE",
"544 1368 OFFCURVE",
"492 1374 OFFCURVE",
"436 1374 CURVE SMOOTH",
"257 1374 OFFCURVE",
"167 1265 OFFCURVE",
"167 1047 CURVE SMOOTH",
"167 956 LINE",
"212 985 LINE",
"0 985 LINE",
"0 885 LINE",
"212 885 LINE",
"167 932 LINE",
"167 0 LINE"
);
}
);
width = 561;
},
{
anchors = (
{
name = bottom;
position = "{349, 0}";
},
{
name = top;
position = "{522, 1408}";
}
);
background = {
paths = (
{
closed = 1;
nodes = (
"518 0 LINE",
"518 817 LINE",
"373 705 LINE",
"752 705 LINE",
"752 975 LINE",
"373 975 LINE",
"519 888 LINE",
"519 985 LINE SMOOTH",
"519 1064 OFFCURVE",
"557 1103 OFFCURVE",
"633 1103 CURVE SMOOTH",
"672 1103 OFFCURVE",
"730 1096 OFFCURVE",
"795 1077 CURVE",
"833 1334 LINE",
"769 1355 OFFCURVE",
"675 1371 OFFCURVE",
"584 1371 CURVE SMOOTH",
"331 1371 OFFCURVE",
"190 1223 OFFCURVE",
"190 998 CURVE SMOOTH",
"190 909 LINE",
"335 975 LINE",
"15 975 LINE",
"15 705 LINE",
"335 705 LINE",
"190 832 LINE",
"190 0 LINE"
);
}
);
};
guideLines = (
{
position = "{824, 715}";
}
);
layerId = "D42B5605-DB46-4B3B-8EA0-4CE7066523CE";
paths = (
{
closed = 1;
nodes = (
"518 0 LINE",
"518 817 LINE",
"373 735 LINE",
"752 735 LINE",
"752 1005 LINE",
"373 1005 LINE",
"509 888 LINE",
"509 998 LINE SMOOTH",
"509 1077 OFFCURVE",
"557 1116 OFFCURVE",
"633 1116 CURVE SMOOTH",
"672 1116 OFFCURVE",
"730 1109 OFFCURVE",
"795 1090 CURVE",
"833 1334 LINE",
"769 1355 OFFCURVE",
"675 1371 OFFCURVE",
"584 1371 CURVE SMOOTH",
"331 1371 OFFCURVE",
"190 1223 OFFCURVE",
"190 998 CURVE SMOOTH",
"190 909 LINE",
"335 1015 LINE",
"15 1015 LINE",
"15 735 LINE",
"335 735 LINE",
"190 832 LINE",
"190 0 LINE"
);
}
);
width = 798;
}
);
leftKerningGroup = f;
rightKerningGroup = f;
unicode = 0066;
},
{
color = 4;
glyphname = g;
layers = (
{
anchors = (
{
name = top;
position = "{501, 985}";
}
);
background = {
anchors = (
{
name = bottom;
position = "{508, 0}";
},
{
name = top;
position = "{501, 985}";
}
);
paths = (
{
closed = 1;
nodes = (
"831 -320 OFFCURVE",
"917 -148 OFFCURVE",
"917 -21 CURVE SMOOTH",
"917 117 OFFCURVE",
"852 185 OFFCURVE",
"634 185 CURVE SMOOTH",
"310 185 LINE SMOOTH",
"262 185 OFFCURVE",
"234 235 OFFCURVE",
"234 289 CURVE SMOOTH",
"234 345 OFFCURVE",
"283 408 OFFCURVE",
"319 436 CURVE",
"270 425 LINE",
"317 402 OFFCURVE",
"385 381 OFFCURVE",
"490 381 CURVE SMOOTH",
"705 381 OFFCURVE",
"861 472 OFFCURVE",
"861 693 CURVE SMOOTH",
"861 777 OFFCURVE",
"839 846 OFFCURVE",
"793 898 CURVE",
"738 881 LINE",
"991 881 LINE",
"991 982 LINE",
"704 982 LINE SMOOTH",
"625 982 OFFCURVE",
"608 1005 OFFCURVE",
"490 1005 CURVE SMOOTH",
"276 1005 OFFCURVE",
"118 914 OFFCURVE",
"118 693 CURVE SMOOTH",
"118 565 OFFCURVE",
"166 493 OFFCURVE",
"240 442 CURVE",
"251 502 LINE",
"165 416 OFFCURVE",
"120 355 OFFCURVE",
"120 289 CURVE SMOOTH",
"120 240 OFFCURVE",
"128 177 OFFCURVE",
"191 121 CURVE",
"151 98 OFFCURVE",
"80 10 OFFCURVE",
"80 -73 CURVE SMOOTH",
"80 -174 OFFCURVE",
"144 -320 OFFCURVE",
"477 -320 CURVE SMOOTH"
);
},
{
closed = 1;
nodes = (
"220 -219 OFFCURVE",
"208 -125 OFFCURVE",
"208 -59 CURVE SMOOTH",
"208 13 OFFCURVE",
"255 63 OFFCURVE",
"303 103 CURVE",
"236 84 LINE",
"640 84 LINE SMOOTH",
"767 84 OFFCURVE",
"789 38 OFFCURVE",
"789 -29 CURVE SMOOTH",
"789 -119 OFFCURVE",
"715 -219 OFFCURVE",
"483 -219 CURVE SMOOTH"
);
},
{
closed = 1;
nodes = (
"351 482 OFFCURVE",
"246 544 OFFCURVE",
"246 693 CURVE SMOOTH",
"246 842 OFFCURVE",
"351 904 OFFCURVE",
"490 904 CURVE SMOOTH",
"629 904 OFFCURVE",
"733 842 OFFCURVE",
"733 693 CURVE SMOOTH",
"733 544 OFFCURVE",
"629 482 OFFCURVE",
"490 482 CURVE SMOOTH"
);
}
);
};
guideLines = (
{
position = "{436, 1476}";
}
);
layerId = "1D628CB9-BBF5-410A-9D74-9E6094BFE839";
paths = (
{
closed = 1;
nodes = (
"811 -403 OFFCURVE",
"917 -220 OFFCURVE",
"917 -85 CURVE SMOOTH",
"917 61 OFFCURVE",
"832 136 OFFCURVE",
"634 136 CURVE SMOOTH",
"310 136 LINE SMOOTH",
"262 136 OFFCURVE",
"234 187 OFFCURVE",
"234 244 CURVE SMOOTH",
"234 304 OFFCURVE",
"283 371 OFFCURVE",
"319 400 CURVE",
"270 389 LINE",
"317 364 OFFCURVE",
"385 342 OFFCURVE",
"490 342 CURVE SMOOTH",
"705 342 OFFCURVE",
"858 439 OFFCURVE",
"858 673 CURVE SMOOTH",
"858 763 OFFCURVE",
"836 840 OFFCURVE",
"790 895 CURVE",
"738 885 LINE",
"991 885 LINE",
"991 985 LINE",
"704 985 LINE SMOOTH",
"625 985 OFFCURVE",
"608 1005 OFFCURVE",
"490 1005 CURVE SMOOTH",
"276 1005 OFFCURVE",
"118 908 OFFCURVE",
"118 673 CURVE SMOOTH",
"118 537 OFFCURVE",
"166 461 OFFCURVE",
"240 407 CURVE",
"251 471 LINE",
"165 379 OFFCURVE",
"120 314 OFFCURVE",
"120 244 CURVE SMOOTH",
"120 192 OFFCURVE",
"128 125 OFFCURVE",
"191 66 CURVE",
"151 41 OFFCURVE",
"80 -52 OFFCURVE",
"80 -150 CURVE SMOOTH",
"80 -248 OFFCURVE",
"144 -403 OFFCURVE",
"477 -403 CURVE SMOOTH"
);
},
{
closed = 1;
nodes = (
"220 -300 OFFCURVE",
"208 -196 OFFCURVE",
"208 -126 CURVE SMOOTH",
"208 -49 OFFCURVE",
"255 4 OFFCURVE",
"303 47 CURVE",
"236 26 LINE",
"640 26 LINE SMOOTH",
"767 26 OFFCURVE",
"794 -22 OFFCURVE",
"794 -94 CURVE SMOOTH",
"794 -189 OFFCURVE",
"715 -300 OFFCURVE",
"473 -300 CURVE SMOOTH"
);
},
{
closed = 1;
nodes = (
"351 445 OFFCURVE",
"246 512 OFFCURVE",
"246 673 CURVE SMOOTH",
"246 835 OFFCURVE",
"351 902 OFFCURVE",
"490 902 CURVE SMOOTH",
"629 902 OFFCURVE",
"733 835 OFFCURVE",
"733 673 CURVE SMOOTH",
"733 512 OFFCURVE",
"629 445 OFFCURVE",
"490 445 CURVE SMOOTH"
);
}
);
width = 1006;
},
{
anchors = (
{
name = top;
position = "{529, 1015}";
}
);
background = {
paths = (
{
closed = 1;
nodes = (
"876 -412 OFFCURVE",
"1092 -263 OFFCURVE",
"1092 -46 CURVE SMOOTH",
"1092 128 OFFCURVE",
"977 217 OFFCURVE",
"755 217 CURVE SMOOTH",
"463 217 LINE SMOOTH",
"414 217 OFFCURVE",
"382 242 OFFCURVE",
"382 281 CURVE SMOOTH",
"382 317 OFFCURVE",
"397 341 OFFCURVE",
"442 386 CURVE",
"291 392 LINE",
"363 351 OFFCURVE",
"448 323 OFFCURVE",
"549 323 CURVE SMOOTH",
"837 323 OFFCURVE",
"987 448 OFFCURVE",
"987 687 CURVE SMOOTH",
"987 800 OFFCURVE",
"937 917 OFFCURVE",
"863 979 CURVE",
"783 748 LINE",
"1156 728 LINE",
"1156 988 LINE",
"860 988 LINE SMOOTH",
"805 988 OFFCURVE",
"744 1030 OFFCURVE",
"549 1030 CURVE SMOOTH",
"261 1030 OFFCURVE",
"100 907 OFFCURVE",
"100 687 CURVE SMOOTH",
"100 580 OFFCURVE",
"147 494 OFFCURVE",
"266 409 CURVE",
"351 578 LINE",
"169 460 OFFCURVE",
"99 376 OFFCURVE",
"99 274 CURVE SMOOTH",
"99 218 OFFCURVE",
"122 172 OFFCURVE",
"176 122 CURVE",
"100 64 OFFCURVE",
"60 -15 OFFCURVE",
"60 -106 CURVE SMOOTH",
"60 -305 OFFCURVE",
"235 -412 OFFCURVE",
"562 -412 CURVE SMOOTH"
);
},
{
closed = 1;
nodes = (
"411 -189 OFFCURVE",
"350 -150 OFFCURVE",
"350 -78 CURVE SMOOTH",
"350 -28 OFFCURVE",
"389 43 OFFCURVE",
"458 119 CURVE",
"206 -15 LINE",
"693 -15 LINE SMOOTH",
"773 -15 OFFCURVE",
"796 -31 OFFCURVE",
"796 -75 CURVE SMOOTH",
"796 -142 OFFCURVE",
"717 -189 OFFCURVE",
"557 -189 CURVE SMOOTH"
);
},
{
closed = 1;
nodes = (
"448 554 OFFCURVE",
"395 597 OFFCURVE",
"395 677 CURVE SMOOTH",
"395 756 OFFCURVE",
"451 800 OFFCURVE",
"549 800 CURVE SMOOTH",
"647 800 OFFCURVE",
"702 756 OFFCURVE",
"702 677 CURVE SMOOTH",
"702 595 OFFCURVE",
"649 552 OFFCURVE",
"549 553 CURVE SMOOTH"
);
}
);
};
guideLines = (
{
angle = 270;
position = "{73, 1035}";
},
{
angle = 270;
position = "{1084, 501}";
}
);
layerId = "D42B5605-DB46-4B3B-8EA0-4CE7066523CE";
paths = (
{
closed = 1;
nodes = (
"855 -412 OFFCURVE",
"1065 -263 OFFCURVE",
"1065 -36 CURVE SMOOTH",
"1065 128 OFFCURVE",
"943 217 OFFCURVE",
"737 217 CURVE SMOOTH",
"452 217 LINE SMOOTH",
"405 217 OFFCURVE",
"374 242 OFFCURVE",
"374 281 CURVE SMOOTH",
"374 317 OFFCURVE",
"388 341 OFFCURVE",
"432 386 CURVE",
"265 392 LINE",
"335 351 OFFCURVE",
"418 323 OFFCURVE",
"528 323 CURVE SMOOTH",
"817 323 OFFCURVE",
"967 448 OFFCURVE",
"967 687 CURVE SMOOTH",
"967 734 OFFCURVE",
"958 782 OFFCURVE",
"942 826 CURVE",
"904 708 LINE",
"1105 708 LINE",
"1105 988 LINE",
"839 988 LINE SMOOTH",
"785 988 OFFCURVE",
"723 1030 OFFCURVE",
"528 1030 CURVE SMOOTH",
"240 1030 OFFCURVE",
"79 907 OFFCURVE",
"79 687 CURVE SMOOTH",
"79 580 OFFCURVE",
"126 494 OFFCURVE",
"245 409 CURVE",
"212 485 LINE",
"126 411 OFFCURVE",
"91 347 OFFCURVE",
"91 274 CURVE SMOOTH",
"91 218 OFFCURVE",
"113 172 OFFCURVE",
"173 122 CURVE",
"99 64 OFFCURVE",
"60 -15 OFFCURVE",
"60 -106 CURVE SMOOTH",
"60 -305 OFFCURVE",
"230 -412 OFFCURVE",
"549 -412 CURVE SMOOTH"
);
},
{
closed = 1;
nodes = (
"402 -189 OFFCURVE",
"342 -150 OFFCURVE",
"342 -78 CURVE SMOOTH",
"342 -28 OFFCURVE",
"380 43 OFFCURVE",
"448 119 CURVE",
"202 -15 LINE",
"676 -15 LINE SMOOTH",
"754 -15 OFFCURVE",
"777 -31 OFFCURVE",
"777 -75 CURVE SMOOTH",
"777 -142 OFFCURVE",
"700 -189 OFFCURVE",
"544 -189 CURVE SMOOTH"
);
},
{
closed = 1;
nodes = (
"427 554 OFFCURVE",
"374 597 OFFCURVE",
"374 677 CURVE SMOOTH",
"374 756 OFFCURVE",
"430 800 OFFCURVE",
"528 800 CURVE SMOOTH",
"627 800 OFFCURVE",
"681 756 OFFCURVE",
"681 677 CURVE SMOOTH",
"681 595 OFFCURVE",
"629 552 OFFCURVE",
"528 553 CURVE SMOOTH"
);
}
);
width = 1135;
}
);
leftKerningGroup = g;
rightKerningGroup = g;
unicode = 0067;
userData = {
com.fontlab.hintData = {
hhints = (
{
position = -309;
width = 105;
},
{
position = 96;
width = 100;
},
{
position = 363;
width = 98;
},
{
position = 883;
width = 94;
},
{
position = 905;
width = 95;
}
);
vhints = (
{
position = 118;
width = 128;
},
{
position = 158;
width = 114;
},
{
position = 797;
width = 117;
},
{
position = 837;
width = 128;
}
);
};
};
},
{
color = 4;
glyphname = h;
layers = (
{
anchors = (
{
name = bottom;
position = "{516, 0}";
},
{
name = center;
position = "{496, 493}";
},
{
name = top;
position = "{509, 1358}";
}
);
background = {
anchors = (
{
name = bottom;
position = "{516, 0}";
},
{
name = center;
position = "{496, 493}";
},
{
name = top_case;
position = "{214, 1358}";
}
);
paths = (
{
closed = 1;
nodes = (
"278 0 LINE",
"278 864 LINE",
"241 800 LINE",
"379 887 OFFCURVE",
"483 895 OFFCURVE",
"563 895 CURVE SMOOTH",
"692 895 OFFCURVE",
"739 825 OFFCURVE",
"739 669 CURVE SMOOTH",
"739 0 LINE",
"867 0 LINE",
"867 663 LINE SMOOTH",
"867 891 OFFCURVE",
"773 1000 OFFCURVE",
"570 1000 CURVE SMOOTH",
"473 1000 OFFCURVE",
"392 985 OFFCURVE",
"238 912 CURVE",
"278 870 LINE",
"278 1358 LINE",
"150 1358 LINE",
"150 0 LINE"
);
}
);
};
layerId = "1D628CB9-BBF5-410A-9D74-9E6094BFE839";
paths = (
{
closed = 1;
nodes = (
"278 0 LINE",
"278 867 LINE",
"241 800 LINE",
"379 887 OFFCURVE",
"482 895 OFFCURVE",
"563 895 CURVE SMOOTH",
"692 895 OFFCURVE",
"739 827 OFFCURVE",
"739 668 CURVE SMOOTH",
"739 0 LINE",
"867 0 LINE",
"867 663 LINE SMOOTH",
"867 891 OFFCURVE",
"773 1000 OFFCURVE",
"570 1000 CURVE SMOOTH",
"476 1000 OFFCURVE",
"404 986 OFFCURVE",
"278 928 CURVE",
"278 1358 LINE",
"150 1358 LINE",
"150 0 LINE"
);
}
);
width = 1002;
},
{
anchors = (
{
name = bottom;
position = "{584, 0}";
},
{
name = center;
position = "{571, 493}";
},
{
name = top;
position = "{584, 1358}";
}
);
background = {
anchors = (
{
name = bottom;
position = "{584, -50}";
},
{
name = center;
position = "{571, 493}";
},
{
name = top_case;
position = "{279, 1359}";
}
);
paths = (
{
closed = 1;
nodes = (
"443 0 LINE",
"443 865 LINE",
"306 605 LINE",
"457 721 OFFCURVE",
"531 745 OFFCURVE",
"604 745 CURVE SMOOTH",
"689 745 OFFCURVE",
"724 713 OFFCURVE",
"724 563 CURVE SMOOTH",
"724 0 LINE",
"1052 0 LINE",
"1052 693 LINE SMOOTH",
"1052 926 OFFCURVE",
"895 1030 OFFCURVE",
"741 1030 CURVE SMOOTH",
"625 1030 OFFCURVE",
"488 999 OFFCURVE",
"312 877 CURVE",
"443 896 LINE",
"443 1358 LINE",
"115 1358 LINE",
"115 0 LINE"
);
}
);
};
guideLines = (
{
angle = 119.9358;
position = "{1619, 649}";
}
);
layerId = "D42B5605-DB46-4B3B-8EA0-4CE7066523CE";
paths = (
{
closed = 1;
nodes = (
"443 0 LINE",
"443 865 LINE",
"391 658 LINE",
"437 701 OFFCURVE",
"521 745 OFFCURVE",
"605 745 CURVE SMOOTH",
"699 745 OFFCURVE",
"724 706 OFFCURVE",
"724 583 CURVE SMOOTH",
"724 0 LINE",
"1052 0 LINE",
"1052 663 LINE SMOOTH",
"1052 916 OFFCURVE",
"895 1030 OFFCURVE",
"721 1030 CURVE SMOOTH",
"619 1030 OFFCURVE",
"547 1010 OFFCURVE",
"443 958 CURVE",
"443 1358 LINE",
"115 1358 LINE",
"115 0 LINE"
);
}
);
width = 1152;
}
);
leftKerningGroup = h;
rightKerningGroup = StraightLOWER;
rightMetricsKey = "=n";
unicode = 0068;
},
{
color = 4;
glyphname = hbar;
layers = (
{
background = {
paths = (
{
closed = 1;
nodes = (
"298 0 LINE",
"298 867 LINE",
"261 800 LINE",
"399 887 OFFCURVE",
"502 895 OFFCURVE",
"583 895 CURVE SMOOTH",
"712 895 OFFCURVE",
"759 827 OFFCURVE",
"759 668 CURVE SMOOTH",
"759 0 LINE",
"887 0 LINE",
"887 663 LINE SMOOTH",
"887 891 OFFCURVE",
"793 1000 OFFCURVE",
"590 1000 CURVE SMOOTH",
"496 1000 OFFCURVE",
"424 986 OFFCURVE",
"298 928 CURVE",
"298 1358 LINE",
"170 1358 LINE",
"170 0 LINE"
);
}
);
};
layerId = "1D628CB9-BBF5-410A-9D74-9E6094BFE839";
paths = (
{
closed = 1;
nodes = (
"278 0 LINE",
"278 822 LINE",
"386 883 OFFCURVE",
"482 895 OFFCURVE",
"563 895 CURVE SMOOTH",
"692 895 OFFCURVE",
"739 827 OFFCURVE",
"739 668 CURVE SMOOTH",
"739 0 LINE",
"867 0 LINE",
"867 663 LINE SMOOTH",
"867 891 OFFCURVE",
"773 1000 OFFCURVE",
"570 1000 CURVE SMOOTH",
"476 1000 OFFCURVE",
"404 986 OFFCURVE",
"278 928 CURVE",
"278 1108 LINE",
"490 1108 LINE",
"490 1208 LINE",
"278 1208 LINE",
"278 1358 LINE",
"150 1358 LINE",
"150 1208 LINE",
"-40 1208 LINE",
"-40 1108 LINE",
"150 1108 LINE",
"150 0 LINE"
);
}
);
width = 1002;
},
{
background = {
paths = (
{
closed = 1;
nodes = (
"443 0 LINE",
"443 865 LINE",
"391 658 LINE",
"437 701 OFFCURVE",
"521 745 OFFCURVE",
"605 745 CURVE SMOOTH",
"699 745 OFFCURVE",
"724 706 OFFCURVE",
"724 583 CURVE SMOOTH",
"724 0 LINE",
"1052 0 LINE",
"1052 663 LINE SMOOTH",
"1052 916 OFFCURVE",
"895 1030 OFFCURVE",
"721 1030 CURVE SMOOTH",
"619 1030 OFFCURVE",
"547 1010 OFFCURVE",
"443 958 CURVE",
"443 1358 LINE",
"115 1358 LINE",
"115 0 LINE"
);
}
);
};
guideLines = (
{
position = "{290, 1265}";
}
);
layerId = "D42B5605-DB46-4B3B-8EA0-4CE7066523CE";
paths = (
{
closed = 1;
nodes = (
"443 0 LINE",
"443 698 LINE",
"510 733 OFFCURVE",
"558 745 OFFCURVE",
"605 745 CURVE SMOOTH",
"699 745 OFFCURVE",
"724 706 OFFCURVE",
"724 583 CURVE SMOOTH",
"724 0 LINE",
"1052 0 LINE",
"1052 663 LINE SMOOTH",
"1052 916 OFFCURVE",
"895 1030 OFFCURVE",
"721 1030 CURVE SMOOTH",
"619 1030 OFFCURVE",
"547 1010 OFFCURVE",
"443 958 CURVE",
"443 1098 LINE",
"583 1098 LINE",
"583 1258 LINE",
"443 1258 LINE",
"443 1358 LINE",
"115 1358 LINE",
"115 1258 LINE",
"-25 1258 LINE",
"-25 1098 LINE",
"115 1098 LINE",
"115 0 LINE"
);
}
);
width = 1152;
}
);
leftKerningGroup = h;
widthMetricsKey = h;
rightKerningGroup = StraightLOWER;
rightMetricsKey = n;
unicode = 0127;
},
{
color = 4;
glyphname = i;
layers = (
{
anchors = (
{
name = bottom;
position = "{346, 0}";
},
{
name = ogonek;
position = "{440, 0}";
}
);
background = {
anchors = (
{
name = bottom;
position = "{346, 0}";
},
{
name = ogonek;
position = "{357, 0}";
}
);
paths = (
{
closed = 1;
nodes = (
"602 0 LINE",
"602 90 LINE",
"365 90 LINE",
"410 45 LINE",
"410 985 LINE",
"102 985 LINE",
"102 895 LINE",
"327 895 LINE",
"282 940 LINE",
"282 45 LINE",
"327 90 LINE",
"90 90 LINE",
"90 0 LINE"
);
},
{
closed = 1;
nodes = (
"396 1176 OFFCURVE",
"435 1215 OFFCURVE",
"435 1266 CURVE SMOOTH",
"435 1317 OFFCURVE",
"396 1356 OFFCURVE",
"345 1356 CURVE SMOOTH",
"294 1356 OFFCURVE",
"255 1317 OFFCURVE",
"255 1266 CURVE SMOOTH",
"255 1215 OFFCURVE",
"294 1176 OFFCURVE",
"345 1176 CURVE SMOOTH"
);
}
);
};
guideLines = (
{
angle = 270;
position = "{90, 641}";
},
{
position = "{448, 1356}";
},
{
position = "{466, 1176}";
},
{
angle = 270;
position = "{436, 1176}";
},
{
angle = 270;
position = "{255, 1186}";
}
);
layerId = "1D628CB9-BBF5-410A-9D74-9E6094BFE839";
paths = (
{
closed = 1;
nodes = (
"602 0 LINE",
"602 100 LINE",
"410 100 LINE",
"410 985 LINE",
"94 985 LINE",
"94 885 LINE",
"282 885 LINE",
"282 100 LINE",
"90 100 LINE",
"90 0 LINE"
);
},
{
closed = 1;
nodes = (
"396 1176 OFFCURVE",
"435 1215 OFFCURVE",
"435 1266 CURVE SMOOTH",
"435 1317 OFFCURVE",
"396 1356 OFFCURVE",
"345 1356 CURVE SMOOTH",
"294 1356 OFFCURVE",
"255 1317 OFFCURVE",
"255 1266 CURVE SMOOTH",
"255 1215 OFFCURVE",
"294 1176 OFFCURVE",
"345 1176 CURVE SMOOTH"
);
}
);
width = 662;
},
{
anchors = (
{
name = bottom;
position = "{466, 0}";
},
{
name = ogonek;
position = "{630, 0}";
}
);
background = {
anchors = (
{
name = bottom;
position = "{464, -50}";
},
{
name = ogonek;
position = "{485, 10}";
}
);
paths = (
{
closed = 1;
nodes = (
"842 0 LINE",
"842 270 LINE",
"485 270 LINE",
"630 45 LINE",
"630 985 LINE",
"102 985 LINE",
"102 715 LINE",
"447 715 LINE",
"302 940 LINE",
"302 45 LINE",
"447 270 LINE",
"90 270 LINE",
"90 0 LINE"
);
},
{
closed = 1;
nodes = (
"565 1106 OFFCURVE",
"651 1192 OFFCURVE",
"651 1298 CURVE SMOOTH",
"651 1401 OFFCURVE",
"565 1487 OFFCURVE",
"460 1487 CURVE SMOOTH",
"355 1487 OFFCURVE",
"270 1401 OFFCURVE",
"270 1298 CURVE SMOOTH",
"270 1192 OFFCURVE",
"355 1106 OFFCURVE",
"460 1106 CURVE SMOOTH"
);
}
);
};
guideLines = (
{
angle = 270;
position = "{90, 514}";
},
{
position = "{310, 1106}";
},
{
position = "{122, 1487}";
},
{
angle = 270;
position = "{270, 1062}";
},
{
angle = 270;
position = "{651, 1012}";
}
);
layerId = "D42B5605-DB46-4B3B-8EA0-4CE7066523CE";
paths = (
{
closed = 1;
nodes = (
"842 0 LINE",
"842 270 LINE",
"630 270 LINE",
"630 1015 LINE",
"102 1015 LINE",
"102 745 LINE",
"302 745 LINE",
"302 270 LINE",
"90 270 LINE",
"90 0 LINE"
);
},
{
closed = 1;
nodes = (
"574 1105 OFFCURVE",
"668 1198 OFFCURVE",
"668 1314 CURVE SMOOTH",
"668 1426 OFFCURVE",
"574 1519 OFFCURVE",
"460 1519 CURVE SMOOTH",
"346 1519 OFFCURVE",
"253 1426 OFFCURVE",
"253 1314 CURVE SMOOTH",
"253 1198 OFFCURVE",
"346 1105 OFFCURVE",
"460 1105 CURVE SMOOTH"
);
}
);
width = 872;
}
);
leftKerningGroup = i;
rightKerningGroup = i;
unicode = 0069;
},
{
color = 4;
glyphname = idotless;
layers = (
{
anchors = (
{
name = bottom;
position = "{346, 0}";
},
{
name = ogonek;
position = "{440, 0}";
},
{
name = top;
position = "{346, 985}";
}
);
background = {
anchors = (
{
name = bottom;
position = "{361, 0}";
},
{
name = ogonek;
position = "{630, 10}";
},
{
name = top;
position = "{354, 1034}";
}
);
paths = (
{
closed = 1;
nodes = (
"647 0 LINE",
"647 90 LINE",
"455 90 LINE",
"455 985 LINE",
"135 985 LINE",
"135 895 LINE",
"327 895 LINE",
"327 90 LINE",
"135 90 LINE",
"135 0 LINE"
);
}
);
};
layerId = "1D628CB9-BBF5-410A-9D74-9E6094BFE839";
paths = (
{
closed = 1;
nodes = (
"602 0 LINE",
"602 100 LINE",
"410 100 LINE",
"410 985 LINE",
"94 985 LINE",
"94 885 LINE",
"282 885 LINE",
"282 100 LINE",
"90 100 LINE",
"90 0 LINE"
);
}
);
width = 662;
},
{
anchors = (
{
name = bottom;
position = "{466, 0}";
},
{
name = ogonek;
position = "{630, 0}";
},
{
name = top;
position = "{466, 1015}";
}
);
background = {
anchors = (
{
name = bottom;
position = "{468, 0}";
},
{
name = ogonek;
position = "{767, 10}";
},
{
name = top;
position = "{451, 1054}";
}
);
paths = (
{
closed = 1;
nodes = (
"837 0 LINE",
"837 290 LINE",
"645 290 LINE",
"645 985 LINE",
"125 985 LINE",
"125 695 LINE",
"317 695 LINE",
"317 290 LINE",
"125 290 LINE",
"125 0 LINE"
);
}
);
};
guideLines = (
{
angle = 270;
position = "{441, 1060}";
}
);
layerId = "D42B5605-DB46-4B3B-8EA0-4CE7066523CE";
paths = (
{
closed = 1;
nodes = (
"842 0 LINE",
"842 270 LINE",
"630 270 LINE",
"630 1015 LINE",
"102 1015 LINE",
"102 745 LINE",
"302 745 LINE",
"302 270 LINE",
"90 270 LINE",
"90 0 LINE"
);
}
);
width = 872;
}
);
leftKerningGroup = i;
rightKerningGroup = i;
unicode = 0131;
},
{
color = 4;
glyphname = j;
layers = (
{
background = {
paths = (
{
closed = 1;
nodes = (
"321 -295 OFFCURVE",
"410 -203 OFFCURVE",
"410 18 CURVE SMOOTH",
"410 985 LINE",
"58 985 LINE",
"58 895 LINE",
"327 895 LINE",
"282 940 LINE",
"282 28 LINE SMOOTH",
"282 -123 OFFCURVE",
"258 -190 OFFCURVE",
"145 -190 CURVE SMOOTH",
"82 -190 OFFCURVE",
"42 -185 OFFCURVE",
"-3 -174 CURVE",
"-19 -275 LINE",
"36 -291 OFFCURVE",
"92 -295 OFFCURVE",
"149 -295 CURVE SMOOTH"
);
},
{
closed = 1;
nodes = (
"390 1176 OFFCURVE",
"429 1215 OFFCURVE",
"429 1266 CURVE SMOOTH",
"429 1317 OFFCURVE",
"390 1356 OFFCURVE",
"339 1356 CURVE SMOOTH",
"288 1356 OFFCURVE",
"249 1317 OFFCURVE",
"249 1266 CURVE SMOOTH",
"249 1215 OFFCURVE",
"288 1176 OFFCURVE",
"339 1176 CURVE SMOOTH"
);
}
);
};
layerId = "1D628CB9-BBF5-410A-9D74-9E6094BFE839";
paths = (
{
closed = 1;
nodes = (
"321 -399 OFFCURVE",
"410 -307 OFFCURVE",
"410 -86 CURVE SMOOTH",
"410 985 LINE",
"58 985 LINE",
"58 885 LINE",
"282 885 LINE",
"282 -76 LINE SMOOTH",
"282 -227 OFFCURVE",
"258 -294 OFFCURVE",
"145 -294 CURVE SMOOTH",
"82 -294 OFFCURVE",
"42 -289 OFFCURVE",
"-3 -278 CURVE",
"-19 -379 LINE",
"36 -395 OFFCURVE",
"92 -399 OFFCURVE",
"149 -399 CURVE SMOOTH"
);
},
{
closed = 1;
nodes = (
"390 1176 OFFCURVE",
"429 1215 OFFCURVE",
"429 1266 CURVE SMOOTH",
"429 1317 OFFCURVE",
"390 1356 OFFCURVE",
"339 1356 CURVE SMOOTH",
"288 1356 OFFCURVE",
"249 1317 OFFCURVE",
"249 1266 CURVE SMOOTH",
"249 1215 OFFCURVE",
"288 1176 OFFCURVE",
"339 1176 CURVE SMOOTH"
);
}
);
width = 560;
},
{
background = {
paths = (
{
closed = 1;
nodes = (
"1796 -325 OFFCURVE",
"2030 -223 OFFCURVE",
"2030 98 CURVE SMOOTH",
"2030 985 LINE",
"1458 985 LINE",
"1458 715 LINE",
"1747 715 LINE",
"1702 940 LINE",
"1702 125 LINE SMOOTH",
"1702 25 OFFCURVE",
"1673 -40 OFFCURVE",
"1565 -40 CURVE SMOOTH",
"1534 -40 OFFCURVE",
"1461 -36 OFFCURVE",
"1410 -24 CURVE",
"1369 -299 LINE",
"1460 -319 OFFCURVE",
"1552 -325 OFFCURVE",
"1619 -325 CURVE SMOOTH"
);
},
{
closed = 1;
nodes = (
"1970 1108 OFFCURVE",
"2056 1194 OFFCURVE",
"2056 1300 CURVE SMOOTH",
"2056 1403 OFFCURVE",
"1970 1489 OFFCURVE",
"1865 1489 CURVE SMOOTH",
"1760 1489 OFFCURVE",
"1675 1403 OFFCURVE",
"1675 1300 CURVE SMOOTH",
"1675 1194 OFFCURVE",
"1760 1108 OFFCURVE",
"1865 1108 CURVE SMOOTH"
);
},
{
closed = 1;
nodes = (
"842 0 LINE",
"842 270 LINE",
"630 270 LINE",
"630 1015 LINE",
"102 1015 LINE",
"102 745 LINE",
"302 745 LINE",
"302 270 LINE",
"90 270 LINE",
"90 0 LINE"
);
},
{
closed = 1;
nodes = (
"574 1105 OFFCURVE",
"668 1198 OFFCURVE",
"668 1314 CURVE SMOOTH",
"668 1426 OFFCURVE",
"574 1519 OFFCURVE",
"460 1519 CURVE SMOOTH",
"346 1519 OFFCURVE",
"253 1426 OFFCURVE",
"253 1314 CURVE SMOOTH",
"253 1198 OFFCURVE",
"346 1105 OFFCURVE",
"460 1105 CURVE SMOOTH"
);
}
);
};
guideLines = (
{
angle = 261.6663;
position = "{31, 61}";
},
{
position = "{736, 1556}";
},
{
angle = 270;
position = "{61, 552}";
}
);
layerId = "D42B5605-DB46-4B3B-8EA0-4CE7066523CE";
paths = (
{
closed = 1;
nodes = (
"396 -401 OFFCURVE",
"630 -299 OFFCURVE",
"630 22 CURVE SMOOTH",
"630 1015 LINE",
"58 1015 LINE",
"58 735 LINE",
"302 735 LINE",
"302 49 LINE SMOOTH",
"302 -51 OFFCURVE",
"273 -116 OFFCURVE",
"165 -116 CURVE SMOOTH",
"134 -116 OFFCURVE",
"61 -112 OFFCURVE",
"10 -100 CURVE",
"-31 -375 LINE",
"60 -395 OFFCURVE",
"152 -401 OFFCURVE",
"219 -401 CURVE SMOOTH"
);
},
{
closed = 1;
nodes = (
"574 1105 OFFCURVE",
"668 1198 OFFCURVE",
"668 1314 CURVE SMOOTH",
"668 1426 OFFCURVE",
"574 1519 OFFCURVE",
"460 1519 CURVE SMOOTH",
"346 1519 OFFCURVE",
"253 1426 OFFCURVE",
"253 1314 CURVE SMOOTH",
"253 1198 OFFCURVE",
"346 1105 OFFCURVE",
"460 1105 CURVE SMOOTH"
);
}
);
width = 745;
}
);
leftKerningGroup = j;
rightKerningGroup = StraightLOWER;
unicode = 006A;
},
{
color = 4;
glyphname = jdotless;
layers = (
{
anchors = (
{
name = top;
position = "{346, 985}";
}
);
background = {
anchors = (
{
name = bottom;
position = "{252, -295}";
},
{
name = top;
position = "{293, 985}";
}
);
paths = (
{
closed = 1;
nodes = (
"361 -295 OFFCURVE",
"450 -203 OFFCURVE",
"450 18 CURVE SMOOTH",
"450 985 LINE",
"98 985 LINE",
"98 895 LINE",
"367 895 LINE",
"322 940 LINE",
"322 28 LINE SMOOTH",
"322 -123 OFFCURVE",
"298 -182 OFFCURVE",
"185 -182 CURVE SMOOTH",
"122 -182 OFFCURVE",
"82 -177 OFFCURVE",
"37 -166 CURVE",
"21 -275 LINE",
"76 -291 OFFCURVE",
"132 -295 OFFCURVE",
"189 -295 CURVE SMOOTH"
);
}
);
};
layerId = "1D628CB9-BBF5-410A-9D74-9E6094BFE839";
paths = (
{
closed = 1;
nodes = (
"321 -399 OFFCURVE",
"410 -307 OFFCURVE",
"410 -86 CURVE SMOOTH",
"410 985 LINE",
"58 985 LINE",
"58 885 LINE",
"282 885 LINE",
"282 -76 LINE SMOOTH",
"282 -227 OFFCURVE",
"258 -294 OFFCURVE",
"145 -294 CURVE SMOOTH",
"82 -294 OFFCURVE",
"42 -289 OFFCURVE",
"-3 -278 CURVE",
"-19 -379 LINE",
"36 -395 OFFCURVE",
"92 -399 OFFCURVE",
"149 -399 CURVE SMOOTH"
);
}
);
width = 560;
},
{
anchors = (
{
name = top;
position = "{466, 1015}";
}
);
background = {
anchors = (
{
name = bottom;
position = "{256, -371}";
},
{
name = top;
position = "{297, 1036}";
}
);
paths = (
{
closed = 1;
nodes = (
"410 -391 OFFCURVE",
"554 -188 OFFCURVE",
"554 33 CURVE SMOOTH",
"554 985 LINE",
"2 985 LINE",
"2 695 LINE",
"371 695 LINE",
"226 940 LINE",
"226 132 LINE SMOOTH",
"226 -19 OFFCURVE",
"202 -78 OFFCURVE",
"89 -78 CURVE SMOOTH",
"26 -78 OFFCURVE",
"-14 -73 OFFCURVE",
"-59 -62 CURVE",
"-75 -371 LINE",
"-20 -387 OFFCURVE",
"60 -391 OFFCURVE",
"117 -391 CURVE SMOOTH"
);
}
);
};
guideLines = (
{
position = "{1002, -62}";
}
);
layerId = "D42B5605-DB46-4B3B-8EA0-4CE7066523CE";
paths = (
{
closed = 1;
nodes = (
"396 -401 OFFCURVE",
"630 -299 OFFCURVE",
"630 22 CURVE SMOOTH",
"630 1015 LINE",
"58 1015 LINE",
"58 735 LINE",
"302 735 LINE",
"302 49 LINE SMOOTH",
"302 -51 OFFCURVE",
"273 -116 OFFCURVE",
"165 -116 CURVE SMOOTH",
"134 -116 OFFCURVE",
"61 -112 OFFCURVE",
"10 -100 CURVE",
"-31 -375 LINE",
"60 -395 OFFCURVE",
"152 -401 OFFCURVE",
"219 -401 CURVE SMOOTH"
);
}
);
width = 745;
}
);
leftKerningGroup = j;
rightKerningGroup = StraightLOWER;
unicode = 0237;
},
{
color = 3;
glyphname = k;
layers = (
{
anchors = (
{
name = bottom;
position = "{509, 0}";
},
{
name = top;
position = "{479, 1358}";
}
);
background = {
anchors = (
{
name = bottom;
position = "{509, 0}";
},
{
name = top;
position = "{479, 985}";
}
);
paths = (
{
closed = 1;
nodes = (
"278 0 LINE",
"278 422 LINE",
"244 347 LINE",
"403 488 LINE",
"351 480 LINE",
"479 321 OFFCURVE",
"621 154 OFFCURVE",
"777 -6 CURVE",
"910 17 LINE",
"738 197 OFFCURVE",
"598 359 OFFCURVE",
"445 548 CURVE",
"436 489 LINE",
"870 971 LINE",
"734 991 LINE",
"388 599 LINE",
"265 480 LINE",
"278 449 LINE",
"278 1358 LINE",
"150 1358 LINE",
"150 0 LINE"
);
}
);
};
guideLines = (
{
angle = 270;
position = "{861, 543}";
},
{
angle = 170.3948;
position = "{674, 1004}";
},
{
position = "{340, 971}";
},
{
position = "{340, 991}";
},
{
angle = 189.6052;
position = "{699, -19}";
},
{
position = "{340, 14}";
},
{
position = "{340, -6}";
}
);
layerId = "1D628CB9-BBF5-410A-9D74-9E6094BFE839";
paths = (
{
closed = 1;
nodes = (
"278 0 LINE",
"278 422 LINE",
"244 347 LINE",
"403 488 LINE",
"351 480 LINE",
"479 321 OFFCURVE",
"621 154 OFFCURVE",
"777 -6 CURVE",
"910 17 LINE",
"738 197 OFFCURVE",
"598 359 OFFCURVE",
"445 548 CURVE",
"436 489 LINE",
"870 971 LINE",
"734 991 LINE",
"388 599 LINE",
"265 480 LINE",
"278 449 LINE",
"278 1358 LINE",
"150 1358 LINE",
"150 0 LINE"
);
}
);
width = 893;
},
{
anchors = (
{
name = bottom;
position = "{604, 0}";
},
{
name = top;
position = "{574, 1358}";
}
);
background = {
anchors = (
{
name = bottom;
position = "{604, -50}";
},
{
name = top;
position = "{574, 985}";
}
);
paths = (
{
closed = 1;
nodes = (
"443 0 LINE",
"443 427 LINE",
"309 217 LINE",
"578 388 LINE",
"480 403 LINE",
"598 244 OFFCURVE",
"683 132 OFFCURVE",
"824 -39 CURVE",
"1142 98 LINE",
"976 287 OFFCURVE",
"827 473 OFFCURVE",
"704 636 CURVE",
"692 431 LINE",
"1113 922 LINE",
"797 1027 LINE",
"525 676 LINE",
"340 530 LINE",
"443 544 LINE",
"443 1358 LINE",
"115 1358 LINE",
"115 0 LINE"
);
}
);
};
guideLines = (
{
angle = 230.6224;
position = "{547, 824}";
},
{
angle = 270;
position = "{1142, 573}";
}
);
layerId = "D42B5605-DB46-4B3B-8EA0-4CE7066523CE";
paths = (
{
closed = 1;
nodes = (
"443 0 LINE",
"443 427 LINE",
"309 217 LINE",
"578 388 LINE",
"476 403 LINE",
"594 244 OFFCURVE",
"679 132 OFFCURVE",
"820 -39 CURVE",
"1142 98 LINE",
"976 287 OFFCURVE",
"827 473 OFFCURVE",
"704 636 CURVE",
"692 431 LINE",
"1113 922 LINE",
"789 1027 LINE",
"517 676 LINE",
"372 530 LINE",
"443 544 LINE",
"443 1358 LINE",
"115 1358 LINE",
"115 0 LINE"
);
}
);
width = 1139;
}
);
leftKerningGroup = h;
leftMetricsKey = "=h";
rightKerningGroup = k;
unicode = 006B;
userData = {
com.fontlab.hintData = {
hhints = (
{
position = 0;
width = 21;
},
{
position = 965;
width = 20;
},
{
position = 1338;
width = 20;
}
);
vhints = (
{
position = 140;
width = 128;
}
);
};
};
},
{
color = 4;
glyphname = kgreenlandic;
layers = (
{
background = {
paths = (
{
closed = 1;
nodes = (
"915 18 LINE",
"479 609 LINE",
"479 542 LINE",
"864 970 LINE",
"739 991 LINE",
"398 612 LINE",
"246 469 LINE",
"278 456 LINE",
"278 985 LINE",
"150 985 LINE",
"150 0 LINE",
"278 0 LINE",
"278 419 LINE",
"244 344 LINE",
"453 535 LINE",
"389 538 LINE",
"777 -6 LINE"
);
}
);
};
guideLines = (
{
angle = 170.3948;
position = "{664, 1004}";
},
{
position = "{340, 971}";
},
{
position = "{340, 991}";
},
{
angle = 189.6052;
position = "{699, -19}";
},
{
position = "{340, 14}";
},
{
position = "{340, -6}";
}
);
layerId = "1D628CB9-BBF5-410A-9D74-9E6094BFE839";
paths = (
{
closed = 1;
nodes = (
"910 17 LINE",
"738 197 OFFCURVE",
"598 359 OFFCURVE",
"445 548 CURVE",
"436 489 LINE",
"870 971 LINE",
"734 991 LINE",
"388 599 LINE",
"265 480 LINE",
"278 449 LINE",
"278 985 LINE",
"150 985 LINE",
"150 0 LINE",
"278 0 LINE",
"278 422 LINE",
"244 347 LINE",
"403 488 LINE",
"351 480 LINE",
"479 321 OFFCURVE",
"621 154 OFFCURVE",
"777 -6 CURVE"
);
}
);
width = 893;
},
{
background = {
paths = (
{
closed = 1;
nodes = (
"1125 82 LINE",
"766 559 LINE",
"767 491 LINE",
"1073 900 LINE",
"746 1007 LINE",
"504 681 LINE",
"411 589 LINE",
"443 576 LINE",
"443 985 LINE",
"115 985 LINE",
"115 0 LINE",
"443 0 LINE",
"443 348 LINE",
"406 268 LINE",
"569 364 LINE",
"503 374 LINE",
"766 -25 LINE"
);
}
);
};
layerId = "D42B5605-DB46-4B3B-8EA0-4CE7066523CE";
paths = (
{
closed = 1;
nodes = (
"1142 98 LINE",
"976 287 OFFCURVE",
"827 473 OFFCURVE",
"704 636 CURVE",
"692 431 LINE",
"1113 922 LINE",
"789 1027 LINE",
"517 676 LINE",
"372 530 LINE",
"443 544 LINE",
"443 1015 LINE",
"115 1015 LINE",
"115 0 LINE",
"443 0 LINE",
"443 427 LINE",
"309 217 LINE",
"578 388 LINE",
"476 403 LINE",
"594 244 OFFCURVE",
"679 132 OFFCURVE",
"820 -39 CURVE"
);
}
);
width = 1139;
}
);
leftKerningGroup = StraightLOWER;
leftMetricsKey = n;
rightKerningGroup = k;
rightMetricsKey = k;
unicode = 0138;
},
{
color = 4;
glyphname = l;
layers = (
{
anchors = (
{
name = bottom;
position = "{346, 0}";
},
{
name = center;
position = "{677, 700}";
},
{
name = top;
position = "{346, 1358}";
},
{
name = topright;
position = "{480, 1358}";
}
);
background = {
anchors = (
{
name = bottom;
position = "{355, 0}";
},
{
name = center;
position = "{766, 714}";
},
{
name = top_case;
position = "{355, 1358}";
},
{
name = topright;
position = "{538, 1358}";
}
);
paths = (
{
closed = 1;
nodes = (
"630 0 LINE",
"630 90 LINE",
"374 90 LINE",
"419 45 LINE",
"419 1358 LINE",
"80 1358 LINE",
"80 1267 LINE",
"336 1267 LINE",
"291 1312 LINE",
"291 45 LINE",
"336 90 LINE",
"68 90 LINE",
"68 0 LINE"
);
}
);
};
guideLines = (
{
angle = 270;
position = "{68, 514}";
}
);
layerId = "1D628CB9-BBF5-410A-9D74-9E6094BFE839";
paths = (
{
closed = 1;
nodes = (
"622 0 LINE",
"622 100 LINE",
"410 100 LINE",
"410 1358 LINE",
"74 1358 LINE",
"74 1258 LINE",
"282 1258 LINE",
"282 100 LINE",
"70 100 LINE",
"70 0 LINE"
);
}
);
width = 662;
},
{
anchors = (
{
name = bottom;
position = "{466, 0}";
},
{
name = center;
position = "{902, 710}";
},
{
name = top;
position = "{466, 1358}";
},
{
name = topright;
position = "{670, 1358}";
}
);
background = {
anchors = (
{
name = bottom;
position = "{476, -50}";
},
{
name = center;
position = "{742, 714}";
},
{
name = top_case;
position = "{476, 1358}";
},
{
name = topright;
position = "{739, 1358}";
}
);
paths = (
{
closed = 1;
nodes = (
"861 0 LINE",
"861 270 LINE",
"495 270 LINE",
"640 45 LINE",
"640 1358 LINE",
"112 1358 LINE",
"112 1088 LINE",
"457 1088 LINE",
"312 1312 LINE",
"312 45 LINE",
"457 270 LINE",
"79 270 LINE",
"79 0 LINE"
);
}
);
};
layerId = "D42B5605-DB46-4B3B-8EA0-4CE7066523CE";
paths = (
{
closed = 1;
nodes = (
"862 0 LINE",
"862 270 LINE",
"630 270 LINE",
"630 1358 LINE",
"82 1358 LINE",
"82 1088 LINE",
"302 1088 LINE",
"302 270 LINE",
"70 270 LINE",
"70 0 LINE"
);
}
);
width = 872;
}
);
leftKerningGroup = l;
rightKerningGroup = l;
unicode = 006C;
},
{
color = 4;
glyphname = lslash;
layers = (
{
background = {
paths = (
{
closed = 1;
nodes = (
"710 923 LINE",
"652 1000 LINE",
"7 498 LINE",
"65 420 LINE"
);
},
{
closed = 1;
nodes = (
"644 0 LINE",
"644 100 LINE",
"432 100 LINE",
"432 1358 LINE",
"96 1358 LINE",
"96 1258 LINE",
"304 1258 LINE",
"304 100 LINE",
"92 100 LINE",
"92 0 LINE"
);
}
);
};
layerId = "1D628CB9-BBF5-410A-9D74-9E6094BFE839";
paths = (
{
closed = 1;
nodes = (
"302 605 LINE",
"302 100 LINE",
"90 100 LINE",
"90 0 LINE",
"642 0 LINE",
"642 100 LINE",
"430 100 LINE",
"430 705 LINE",
"710 923 LINE",
"652 1000 LINE",
"430 827 LINE",
"430 1358 LINE",
"94 1358 LINE",
"94 1258 LINE",
"302 1258 LINE",
"302 728 LINE",
"7 498 LINE",
"65 420 LINE"
);
}
);
width = 702;
},
{
background = {
paths = (
{
closed = 1;
nodes = (
"935 1014 LINE",
"835 1141 LINE",
"83 547 LINE",
"183 419 LINE"
);
},
{
closed = 1;
nodes = (
"882 0 LINE",
"882 270 LINE",
"650 270 LINE",
"650 1358 LINE",
"102 1358 LINE",
"102 1088 LINE",
"322 1088 LINE",
"322 270 LINE",
"90 270 LINE",
"90 0 LINE"
);
}
);
};
layerId = "D42B5605-DB46-4B3B-8EA0-4CE7066523CE";
paths = (
{
closed = 1;
nodes = (
"322 529 LINE",
"322 270 LINE",
"90 270 LINE",
"90 0 LINE",
"882 0 LINE",
"882 270 LINE",
"650 270 LINE",
"650 789 LINE",
"935 1014 LINE",
"835 1141 LINE",
"650 995 LINE",
"650 1358 LINE",
"102 1358 LINE",
"102 1088 LINE",
"322 1088 LINE",
"322 736 LINE",
"83 547 LINE",
"183 419 LINE"
);
}
);
width = 912;
}
);
leftKerningGroup = l;
rightKerningGroup = lslash;
unicode = 0142;
},
{
color = 4;
glyphname = m;
layers = (
{
anchors = (
{
name = bottom;
position = "{775, 0}";
},
{
name = top;
position = "{775, 985}";
}
);
background = {
paths = (
{
closed = 1;
nodes = (
"278 0 LINE",
"278 867 LINE",
"241 800 LINE",
"371 887 OFFCURVE",
"468 895 OFFCURVE",
"545 895 CURVE SMOOTH",
"666 895 OFFCURVE",
"711 827 OFFCURVE",
"711 668 CURVE SMOOTH",
"711 0 LINE",
"839 0 LINE",
"839 663 LINE SMOOTH",
"839 891 OFFCURVE",
"750 1000 OFFCURVE",
"556 1000 CURVE SMOOTH",
"463 1000 OFFCURVE",
"393 985 OFFCURVE",
"264 921 CURVE",
"246 985 LINE",
"150 985 LINE",
"150 0 LINE"
);
}
);
};
layerId = "1D628CB9-BBF5-410A-9D74-9E6094BFE839";
paths = (
{
closed = 1;
nodes = (
"278 0 LINE",
"278 868 LINE",
"241 800 LINE",
"371 887 OFFCURVE",
"468 895 OFFCURVE",
"545 895 CURVE SMOOTH",
"666 895 OFFCURVE",
"711 827 OFFCURVE",
"711 668 CURVE SMOOTH",
"711 0 LINE",
"839 0 LINE",
"839 663 LINE SMOOTH",
"839 716 OFFCURVE",
"830 800 OFFCURVE",
"815 832 CURVE",
"802 800 LINE",
"932 887 OFFCURVE",
"1029 895 OFFCURVE",
"1106 895 CURVE SMOOTH",
"1227 895 OFFCURVE",
"1272 827 OFFCURVE",
"1272 668 CURVE SMOOTH",
"1272 0 LINE",
"1400 0 LINE",
"1400 663 LINE SMOOTH",
"1400 891 OFFCURVE",
"1311 1000 OFFCURVE",
"1107 1000 CURVE SMOOTH",
"1005 1000 OFFCURVE",
"870 964 OFFCURVE",
"754 891 CURVE",
"795 884 LINE",
"733 978 OFFCURVE",
"653 1000 OFFCURVE",
"556 1000 CURVE SMOOTH",
"463 1000 OFFCURVE",
"393 985 OFFCURVE",
"264 921 CURVE",
"246 985 LINE",
"150 985 LINE",
"150 0 LINE"
);
}
);
width = 1535;
},
{
anchors = (
{
name = bottom;
position = "{863, 0}";
},
{
name = top;
position = "{863, 1015}";
}
);
background = {
paths = (
{
closed = 1;
nodes = (
"1027 0 LINE",
"1027 865 LINE",
"975 658 LINE",
"1018 701 OFFCURVE",
"1095 745 OFFCURVE",
"1173 745 CURVE SMOOTH",
"1260 745 OFFCURVE",
"1283 706 OFFCURVE",
"1283 583 CURVE SMOOTH",
"1283 0 LINE",
"1611 0 LINE",
"1611 663 LINE SMOOTH",
"1611 916 OFFCURVE",
"1460 1030 OFFCURVE",
"1293 1030 CURVE SMOOTH",
"1191 1030 OFFCURVE",
"1120 1008 OFFCURVE",
"1013 951 CURVE",
"985 1015 LINE",
"699 1015 LINE",
"699 0 LINE"
);
}
);
};
guideLines = (
{
position = "{1099, 715}";
},
{
position = "{839, 550}";
}
);
layerId = "D42B5605-DB46-4B3B-8EA0-4CE7066523CE";
paths = (
{
closed = 1;
nodes = (
"443 0 LINE",
"443 898 LINE",
"391 658 LINE",
"434 701 OFFCURVE",
"511 745 OFFCURVE",
"589 745 CURVE SMOOTH",
"676 745 OFFCURVE",
"699 706 OFFCURVE",
"699 583 CURVE SMOOTH",
"699 0 LINE",
"1027 0 LINE",
"1027 663 LINE SMOOTH",
"1027 745 OFFCURVE",
"1008 829 OFFCURVE",
"979 878 CURVE",
"975 658 LINE",
"1018 701 OFFCURVE",
"1095 745 OFFCURVE",
"1173 745 CURVE SMOOTH",
"1260 745 OFFCURVE",
"1283 706 OFFCURVE",
"1283 583 CURVE SMOOTH",
"1283 0 LINE",
"1611 0 LINE",
"1611 663 LINE SMOOTH",
"1611 916 OFFCURVE",
"1460 1030 OFFCURVE",
"1273 1030 CURVE SMOOTH",
"1145 1030 OFFCURVE",
"1037 996 OFFCURVE",
"902 905 CURVE",
"956 911 LINE",
"894 997 OFFCURVE",
"799 1030 OFFCURVE",
"709 1030 CURVE SMOOTH",
"607 1030 OFFCURVE",
"536 1008 OFFCURVE",
"429 951 CURVE",
"401 1015 LINE",
"115 1015 LINE",
"115 0 LINE"
);
}
);
width = 1711;
}
);
leftKerningGroup = StraightLOWER;
leftMetricsKey = "=n";
rightKerningGroup = StraightLOWER;
rightMetricsKey = "=n";
unicode = 006D;
},
{
color = 3;
glyphname = n;
layers = (
{
anchors = (
{
name = bottom;
position = "{509, 0}";
},
{
name = top;
position = "{503, 985}";
}
);
background = {
anchors = (
{
name = bottom;
position = "{509, 0}";
},
{
name = top;
position = "{503, 985}";
}
);
paths = (
{
closed = 1;
nodes = (
"278 0 LINE",
"278 867 LINE",
"241 800 LINE",
"379 887 OFFCURVE",
"482 895 OFFCURVE",
"563 895 CURVE SMOOTH",
"692 895 OFFCURVE",
"739 827 OFFCURVE",
"739 668 CURVE SMOOTH",
"739 0 LINE",
"867 0 LINE",
"867 663 LINE SMOOTH",
"867 891 OFFCURVE",
"773 1000 OFFCURVE",
"570 1000 CURVE SMOOTH",
"473 1000 OFFCURVE",
"399 985 OFFCURVE",
"264 921 CURVE",
"246 985 LINE",
"150 985 LINE",
"150 0 LINE"
);
}
);
};
layerId = "1D628CB9-BBF5-410A-9D74-9E6094BFE839";
paths = (
{
closed = 1;
nodes = (
"278 0 LINE",
"278 867 LINE",
"241 800 LINE",
"379 887 OFFCURVE",
"482 895 OFFCURVE",
"563 895 CURVE SMOOTH",
"692 895 OFFCURVE",
"739 827 OFFCURVE",
"739 668 CURVE SMOOTH",
"739 0 LINE",
"867 0 LINE",
"867 663 LINE SMOOTH",
"867 891 OFFCURVE",
"773 1000 OFFCURVE",
"570 1000 CURVE SMOOTH",
"473 1000 OFFCURVE",
"399 985 OFFCURVE",
"264 921 CURVE",
"246 985 LINE",
"150 985 LINE",
"150 0 LINE"
);
}
);
width = 1002;
},
{
anchors = (
{
name = bottom;
position = "{583, 0}";
},
{
name = top;
position = "{592, 1015}";
}
);
background = {
anchors = (
{
name = bottom;
position = "{583, -50}";
},
{
name = top;
position = "{592, 1035}";
}
);
paths = (
{
closed = 1;
nodes = (
"443 0 LINE",
"443 865 LINE",
"306 605 LINE",
"457 721 OFFCURVE",
"531 745 OFFCURVE",
"605 745 CURVE SMOOTH",
"694 745 OFFCURVE",
"724 713 OFFCURVE",
"724 563 CURVE SMOOTH",
"724 0 LINE",
"1052 0 LINE",
"1052 693 LINE SMOOTH",
"1052 926 OFFCURVE",
"895 1030 OFFCURVE",
"721 1030 CURVE SMOOTH",
"614 1030 OFFCURVE",
"540 1005 OFFCURVE",
"429 941 CURVE",
"401 985 LINE",
"115 985 LINE",
"115 0 LINE"
);
}
);
};
guideLines = (
{
angle = 270;
position = "{443, 958}";
}
);
layerId = "D42B5605-DB46-4B3B-8EA0-4CE7066523CE";
paths = (
{
closed = 1;
nodes = (
"443 0 LINE",
"443 865 LINE",
"391 658 LINE",
"437 701 OFFCURVE",
"521 745 OFFCURVE",
"605 745 CURVE SMOOTH",
"699 745 OFFCURVE",
"724 706 OFFCURVE",
"724 583 CURVE SMOOTH",
"724 0 LINE",
"1052 0 LINE",
"1052 663 LINE SMOOTH",
"1052 916 OFFCURVE",
"895 1030 OFFCURVE",
"721 1030 CURVE SMOOTH",
"614 1030 OFFCURVE",
"540 1008 OFFCURVE",
"429 951 CURVE",
"401 1015 LINE",
"115 1015 LINE",
"115 0 LINE"
);
}
);
width = 1152;
}
);
leftKerningGroup = StraightLOWER;
rightKerningGroup = StraightLOWER;
unicode = 006E;
userData = {
com.fontlab.hintData = {
hhints = (
{
position = 0;
width = 21;
},
{
position = 895;
width = 105;
},
{
position = 965;
width = 20;
}
);
vhints = (
{
position = 140;
width = 128;
},
{
position = 140;
width = 105;
},
{
position = 729;
width = 128;
}
);
};
};
},
{
color = 4;
glyphname = eng;
layers = (
{
background = {
anchors = (
{
name = bottom;
position = "{494, -50}";
},
{
name = top;
position = "{523, 1035}";
}
);
paths = (
{
closed = 1;
nodes = (
"473 1000 OFFCURVE",
"399 985 OFFCURVE",
"264 921 CURVE",
"246 985 LINE",
"150 985 LINE",
"150 0 LINE",
"278 0 LINE",
"278 822 LINE",
"398 888 OFFCURVE",
"489 895 OFFCURVE",
"563 895 CURVE SMOOTH",
"692 895 OFFCURVE",
"739 827 OFFCURVE",
"739 668 CURVE SMOOTH",
"739 -12 LINE SMOOTH",
"739 -113 OFFCURVE",
"697 -193 OFFCURVE",
"574 -193 CURVE SMOOTH",
"511 -193 OFFCURVE",
"481 -188 OFFCURVE",
"436 -177 CURVE",
"420 -278 LINE",
"475 -294 OFFCURVE",
"521 -298 OFFCURVE",
"578 -298 CURVE SMOOTH",
"760 -298 OFFCURVE",
"867 -192 OFFCURVE",
"867 38 CURVE SMOOTH",
"867 663 LINE SMOOTH",
"867 891 OFFCURVE",
"773 1000 OFFCURVE",
"570 1000 CURVE SMOOTH"
);
}
);
};
guideLines = (
{
position = "{560, -298}";
}
);
layerId = "1D628CB9-BBF5-410A-9D74-9E6094BFE839";
paths = (
{
closed = 1;
nodes = (
"473 1000 OFFCURVE",
"399 985 OFFCURVE",
"264 921 CURVE",
"246 985 LINE",
"150 985 LINE",
"150 0 LINE",
"278 0 LINE",
"278 822 LINE",
"398 888 OFFCURVE",
"489 895 OFFCURVE",
"563 895 CURVE SMOOTH",
"692 895 OFFCURVE",
"739 827 OFFCURVE",
"739 668 CURVE SMOOTH",
"739 -113 LINE SMOOTH",
"739 -214 OFFCURVE",
"697 -294 OFFCURVE",
"574 -294 CURVE SMOOTH",
"511 -294 OFFCURVE",
"481 -289 OFFCURVE",
"436 -278 CURVE",
"420 -379 LINE",
"475 -395 OFFCURVE",
"521 -399 OFFCURVE",
"578 -399 CURVE SMOOTH",
"760 -399 OFFCURVE",
"867 -293 OFFCURVE",
"867 -63 CURVE SMOOTH",
"867 663 LINE SMOOTH",
"867 891 OFFCURVE",
"773 1000 OFFCURVE",
"570 1000 CURVE SMOOTH"
);
}
);
width = 1002;
},
{
background = {
anchors = (
{
name = bottom;
position = "{2083, -50}";
},
{
name = top;
position = "{2112, 1035}";
}
);
paths = (
{
closed = 1;
nodes = (
"2134 1030 OFFCURVE",
"2050 1015 OFFCURVE",
"1929 951 CURVE",
"1901 1015 LINE",
"1615 1015 LINE",
"1615 0 LINE",
"1943 0 LINE",
"1943 698 LINE",
"2010 735 OFFCURVE",
"2058 745 OFFCURVE",
"2105 745 CURVE SMOOTH",
"2194 745 OFFCURVE",
"2224 713 OFFCURVE",
"2224 563 CURVE SMOOTH",
"2224 52 LINE SMOOTH",
"2224 -47 OFFCURVE",
"2215 -125 OFFCURVE",
"2097 -125 CURVE SMOOTH",
"2066 -125 OFFCURVE",
"2003 -121 OFFCURVE",
"1952 -111 CURVE",
"1911 -386 LINE",
"2002 -404 OFFCURVE",
"2064 -410 OFFCURVE",
"2131 -410 CURVE SMOOTH",
"2348 -410 OFFCURVE",
"2552 -276 OFFCURVE",
"2552 22 CURVE SMOOTH",
"2552 693 LINE SMOOTH",
"2552 926 OFFCURVE",
"2395 1030 OFFCURVE",
"2241 1030 CURVE SMOOTH"
);
},
{
closed = 1;
nodes = (
"818 -401 OFFCURVE",
"1052 -299 OFFCURVE",
"1052 22 CURVE SMOOTH",
"1052 1015 LINE",
"480 1015 LINE",
"480 745 LINE",
"724 745 LINE",
"724 49 LINE SMOOTH",
"724 -51 OFFCURVE",
"695 -116 OFFCURVE",
"587 -116 CURVE SMOOTH",
"556 -116 OFFCURVE",
"483 -112 OFFCURVE",
"432 -100 CURVE",
"391 -375 LINE",
"482 -395 OFFCURVE",
"574 -401 OFFCURVE",
"641 -401 CURVE SMOOTH"
);
},
{
closed = 1;
nodes = (
"996 1105 OFFCURVE",
"1090 1198 OFFCURVE",
"1090 1314 CURVE SMOOTH",
"1090 1426 OFFCURVE",
"996 1519 OFFCURVE",
"882 1519 CURVE SMOOTH",
"768 1519 OFFCURVE",
"675 1426 OFFCURVE",
"675 1314 CURVE SMOOTH",
"675 1198 OFFCURVE",
"768 1105 OFFCURVE",
"882 1105 CURVE SMOOTH"
);
}
);
};
layerId = "D42B5605-DB46-4B3B-8EA0-4CE7066523CE";
paths = (
{
closed = 1;
nodes = (
"614 1030 OFFCURVE",
"540 1008 OFFCURVE",
"429 951 CURVE",
"401 1015 LINE",
"115 1015 LINE",
"115 0 LINE",
"443 0 LINE",
"443 698 LINE",
"510 735 OFFCURVE",
"558 745 OFFCURVE",
"605 745 CURVE SMOOTH",
"699 745 OFFCURVE",
"724 706 OFFCURVE",
"724 583 CURVE SMOOTH",
"724 49 LINE SMOOTH",
"724 -51 OFFCURVE",
"695 -116 OFFCURVE",
"587 -116 CURVE SMOOTH",
"556 -116 OFFCURVE",
"483 -112 OFFCURVE",
"432 -100 CURVE",
"391 -375 LINE",
"482 -395 OFFCURVE",
"574 -401 OFFCURVE",
"641 -401 CURVE SMOOTH",
"818 -401 OFFCURVE",
"1052 -299 OFFCURVE",
"1052 22 CURVE SMOOTH",
"1052 663 LINE SMOOTH",
"1052 916 OFFCURVE",
"895 1030 OFFCURVE",
"721 1030 CURVE SMOOTH"
);
}
);
width = 1152;
}
);
leftKerningGroup = StraightLOWER;
leftMetricsKey = n;
widthMetricsKey = n;
rightKerningGroup = StraightLOWER;
unicode = 014B;
},
{
color = 3;
glyphname = o;
layers = (
{
anchors = (
{
name = bottom;
position = "{486, 0}";
},
{
name = center;
position = "{486, 493}";
},
{
name = ogonek;
position = "{586, 0}";
},
{
name = top;
position = "{485, 985}";
},
{
name = topright;
position = "{588, 985}";
}
);
background = {
anchors = (
{
name = bottom;
position = "{486, 0}";
},
{
name = center;
position = "{486, 493}";
},
{
name = ogonek;
position = "{619, 30}";
},
{
name = top;
position = "{485, 985}";
},
{
name = topright;
position = "{780, 664}";
}
);
paths = (
{
closed = 1;
nodes = (
"755 -10 OFFCURVE",
"870 164 OFFCURVE",
"870 495 CURVE SMOOTH",
"870 826 OFFCURVE",
"755 1000 OFFCURVE",
"486 1000 CURVE SMOOTH",
"217 1000 OFFCURVE",
"102 826 OFFCURVE",
"102 495 CURVE SMOOTH",
"102 164 OFFCURVE",
"217 -10 OFFCURVE",
"486 -10 CURVE SMOOTH"
);
},
{
closed = 1;
nodes = (
"289 95 OFFCURVE",
"230 247 OFFCURVE",
"230 495 CURVE SMOOTH",
"230 743 OFFCURVE",
"289 895 OFFCURVE",
"486 895 CURVE SMOOTH",
"683 895 OFFCURVE",
"742 743 OFFCURVE",
"742 495 CURVE SMOOTH",
"742 247 OFFCURVE",
"683 95 OFFCURVE",
"486 95 CURVE SMOOTH"
);
}
);
};
layerId = "1D628CB9-BBF5-410A-9D74-9E6094BFE839";
paths = (
{
closed = 1;
nodes = (
"755 -10 OFFCURVE",
"870 164 OFFCURVE",
"870 495 CURVE SMOOTH",
"870 826 OFFCURVE",
"755 1000 OFFCURVE",
"486 1000 CURVE SMOOTH",
"217 1000 OFFCURVE",
"102 826 OFFCURVE",
"102 495 CURVE SMOOTH",
"102 164 OFFCURVE",
"217 -10 OFFCURVE",
"486 -10 CURVE SMOOTH"
);
},
{
closed = 1;
nodes = (
"289 95 OFFCURVE",
"230 247 OFFCURVE",
"230 495 CURVE SMOOTH",
"230 743 OFFCURVE",
"289 895 OFFCURVE",
"486 895 CURVE SMOOTH",
"683 895 OFFCURVE",
"742 743 OFFCURVE",
"742 495 CURVE SMOOTH",
"742 247 OFFCURVE",
"683 95 OFFCURVE",
"486 95 CURVE SMOOTH"
);
}
);
width = 972;
},
{
anchors = (
{
name = bottom;
position = "{554, 0}";
},
{
name = center;
position = "{554, 493}";
},
{
name = ogonek;
position = "{669, 0}";
},
{
name = top;
position = "{554, 1015}";
},
{
name = topright;
position = "{678, 1015}";
}
);
background = {
anchors = (
{
name = bottom;
position = "{554, -50}";
},
{
name = center;
position = "{554, 493}";
},
{
name = ogonek;
position = "{707, 30}";
},
{
name = top;
position = "{554, 1055}";
},
{
name = topright;
position = "{1038, 574}";
}
);
paths = (
{
closed = 1;
nodes = (
"863 -40 OFFCURVE",
"1033 104 OFFCURVE",
"1033 495 CURVE SMOOTH",
"1033 886 OFFCURVE",
"863 1030 OFFCURVE",
"554 1030 CURVE SMOOTH",
"245 1030 OFFCURVE",
"75 886 OFFCURVE",
"75 495 CURVE SMOOTH",
"75 104 OFFCURVE",
"245 -40 OFFCURVE",
"554 -40 CURVE SMOOTH"
);
},
{
closed = 1;
nodes = (
"454 230 OFFCURVE",
"403 282 OFFCURVE",
"403 495 CURVE SMOOTH",
"403 708 OFFCURVE",
"457 760 OFFCURVE",
"554 760 CURVE SMOOTH",
"651 760 OFFCURVE",
"705 708 OFFCURVE",
"705 495 CURVE SMOOTH",
"705 282 OFFCURVE",
"654 230 OFFCURVE",
"554 230 CURVE SMOOTH"
);
}
);
};
guideLines = (
{
angle = 270;
position = "{554, 558}";
}
);
layerId = "D42B5605-DB46-4B3B-8EA0-4CE7066523CE";
paths = (
{
closed = 1;
nodes = (
"863 -15 OFFCURVE",
"1033 150 OFFCURVE",
"1033 508 CURVE SMOOTH",
"1033 865 OFFCURVE",
"863 1030 OFFCURVE",
"554 1030 CURVE SMOOTH",
"245 1030 OFFCURVE",
"75 865 OFFCURVE",
"75 508 CURVE SMOOTH",
"75 150 OFFCURVE",
"245 -15 OFFCURVE",
"554 -15 CURVE SMOOTH"
);
},
{
closed = 1;
nodes = (
"454 255 OFFCURVE",
"403 305 OFFCURVE",
"403 508 CURVE SMOOTH",
"403 710 OFFCURVE",
"457 760 OFFCURVE",
"554 760 CURVE SMOOTH",
"651 760 OFFCURVE",
"705 710 OFFCURVE",
"705 508 CURVE SMOOTH",
"705 305 OFFCURVE",
"654 255 OFFCURVE",
"554 255 CURVE SMOOTH"
);
}
);
width = 1108;
}
);
leftKerningGroup = RoundLOWER;
rightKerningGroup = RoundLOWER;
rightMetricsKey = "=|";
unicode = 006F;
userData = {
com.fontlab.hintData = {
hhints = (
{
position = -10;
width = 106;
},
{
position = 895;
width = 105;
}
);
vhints = (
{
position = 108;
width = 128;
},
{
position = 748;
width = 128;
}
);
};
};
},
{
color = 6;
glyphname = ohorn;
layers = (
{
anchors = (
{
name = top;
position = "{485, 985}";
}
);
background = {
anchors = (
{
name = _topright;
position = "{790, 664}";
},
{
name = bottom;
position = "{506, 0}";
},
{
name = center;
position = "{506, 493}";
},
{
name = ogonek;
position = "{639, 30}";
},
{
name = top;
position = "{506, 985}";
},
{
name = topright;
position = "{790, 664}";
}
);
components = (
{
name = o;
},
{
name = horncomb;
transform = "{1, 0, 0, 1, 740, -321}";
}
);
};
components = (
{
name = o;
},
{
name = horncomb;
transform = "{1, 0, 0, 1, 238, 0}";
}
);
layerId = "1D628CB9-BBF5-410A-9D74-9E6094BFE839";
width = 972;
},
{
anchors = (
{
name = _topright;
position = "{786, 664}";
},
{
name = bottom;
position = "{492, 0}";
},
{
name = center;
position = "{492, 493}";
},
{
name = ogonek;
position = "{625, 30}";
},
{
name = top;
position = "{492, 985}";
},
{
name = topright;
position = "{786, 664}";
}
);
associatedMasterId = "1D628CB9-BBF5-410A-9D74-9E6094BFE839";
layerId = "507808C2-100D-496F-AF8E-12FACB515944";
name = "Regular Jul 25 16, 11:48";
paths = (
{
closed = 1;
nodes = (
"759 -10 OFFCURVE",
"876 182 OFFCURVE",
"876 495 CURVE SMOOTH",
"876 826 OFFCURVE",
"761 1000 OFFCURVE",
"492 1000 CURVE SMOOTH",
"223 1000 OFFCURVE",
"108 826 OFFCURVE",
"108 495 CURVE SMOOTH",
"108 182 OFFCURVE",
"225 -10 OFFCURVE",
"492 -10 CURVE SMOOTH"
);
},
{
closed = 1;
nodes = (
"292 96 OFFCURVE",
"236 257 OFFCURVE",
"236 495 CURVE SMOOTH",
"236 730 OFFCURVE",
"295 895 OFFCURVE",
"492 895 CURVE SMOOTH",
"689 895 OFFCURVE",
"748 730 OFFCURVE",
"748 495 CURVE SMOOTH",
"748 257 OFFCURVE",
"692 96 OFFCURVE",
"492 96 CURVE SMOOTH"
);
},
{
closed = 1;
nodes = (
"796 756 LINE SMOOTH",
"918 797 OFFCURVE",
"1024 856 OFFCURVE",
"1024 981 CURVE SMOOTH",
"1024 1021 OFFCURVE",
"1017 1053 OFFCURVE",
"1007 1079 CURVE",
"875 1079 LINE",
"888 1051 OFFCURVE",
"896 1020 OFFCURVE",
"896 989 CURVE SMOOTH",
"896 913 OFFCURVE",
"857 870 OFFCURVE",
"786 839 CURVE SMOOTH",
"751 824 LINE",
"751 741 LINE"
);
}
);
width = 984;
},
{
anchors = (
{
name = top;
position = "{504, 1015}";
}
);
background = {
anchors = (
{
name = _topright;
position = "{790, 664}";
},
{
name = bottom;
position = "{536, -50}";
},
{
name = center;
position = "{496, 493}";
},
{
name = ogonek;
position = "{629, 30}";
},
{
name = top;
position = "{535, 1064}";
},
{
name = topright;
position = "{790, 664}";
}
);
components = (
{
name = o;
},
{
name = horncomb;
transform = "{1, 0, 0, 1, 855, -411}";
}
);
};
components = (
{
name = o;
},
{
name = horncomb;
transform = "{1, 0, 0, 1, 328, 0}";
}
);
guideLines = (
{
angle = 270;
position = "{535, 558}";
}
);
layerId = "D42B5605-DB46-4B3B-8EA0-4CE7066523CE";
width = 1108;
}
);
leftKerningGroup = RoundLOWER;
rightKerningGroup = hornLOWERo;
unicode = 01A1;
userData = {
com.schriftgestaltung.Glyphs.ColorIndex = 7;
};
},
